<svg width="28" height="28" fill="none" xmlns="http://www.w3.org/2000/svg"><path d="M10.27 19.283c.244.244.627.209.906 0l4.254-4.254c.314-.314.802-.35 1.186 0 .383.348.348.941 0 1.29l-5.23 5.126c-1.151 1.15-3.07 1.15-4.22 0l-.035-.035c-1.15-1.151-1.15-3.069 0-4.22l9.206-9.205c1.15-1.15 3.068-1.15 4.219 0l.035.035c1.15 1.15 1.15 3.068 0 4.219l-.035.035a.586.586 0 00-.07.767c.244.453.453.976.593 1.5.07.348.453.418.732.209.349-.35.628-.663.628-.663a5.556 5.556 0 000-7.845h-.07a5.556 5.556 0 00-7.845 0l-9.276 9.135a5.556 5.556 0 000 7.846l.07.07a5.514 5.514 0 007.81 0l5.266-5.23c1.36-1.36 1.325-3.557-.07-4.917-1.36-1.325-3.556-1.22-4.881.14l-4.15 4.183c-.244.244-.244.663 0 .942l.977.872z" fill="#1C62AE"/></svg>