<svg width="180" height="160" fill="none" xmlns="http://www.w3.org/2000/svg"><path stroke="#666" stroke-width=".821" d="M9.442 86.243v32.023M.411 88.707v2.463M25.864 46.01v2.463M9.068 90.758l-9.032.822M28.274 53.604L9.389 86.448M25.808 47.859L.353 91.377M25.808 45.396L.353 88.914M25.828 48.305l31.202 69.794M58.707 117.446v27.097M57.067 114.161v4.106M170.379 91.17v22.991M178.59 87.064v2.464M170.077 113.736l-111.67 30.381M179.094 89.106L56.75 117.845M9.224 117.904L58.49 144.18"/><path d="M56.894 114.507L26.061 45.538l117.017-12.232 35.254 53.49-121.438 27.711z" fill="#CFE1F5" stroke="#666" stroke-width=".821"/></svg>