<svg width="181" height="160" fill="none" xmlns="http://www.w3.org/2000/svg"><path d="M8.713 79.545v23.396M.496 73.05v2.975M72.318 106.231v29.975M70.553 103.306v3.656M171.018 83.933v24.857M180.216 78.815l.001 3.29M180.219 81.739L70.188 106.962M171.445 108.79l-99.353 27.347M70.553 106.962L.367 75.89M72.38 136.206l-63.607-33.63" stroke="#666" stroke-width=".61"/><path d="M82.544 59.157l.001-.003L88.3 38.66 179.61 78.72 70.614 103.263l11.93-44.106z" fill="#CFE1F5" stroke="#666" stroke-width=".61"/><path d="M67.008 47.296h0l.003-.001 21.36-8.544-18.018 64.502-69.55-30.27 66.205-25.687z" fill="#CFE1F5" stroke="#666" stroke-width=".61"/></svg>