<svg width="181" height="160" fill="none" xmlns="http://www.w3.org/2000/svg"><path d="M29.225 57.942L16.059 65.61M16.168 65.5L1.092 91.63M43.583 76.349L58.39 118.55M29.459 59.962l14.066 16.287M29.384 60.428l-11.106 6.664M18.385 66.984L4.052 90.888M11.026 86.076v31.835M60.631 117.911v25.913M171.375 91.999v23.692M180.567 87.556v2.962M180.629 90.148l-122.46 28.065M171.453 115.249L60.398 144.124M58.409 114.95v2.962M44.31 75.109l-.741 1.481M29.535 57.942v2.591M11.088 86.447L20.07 70.38M19.97 70.529l12.049-7.663M10.86 117.638l49.604 25.912M1.027 91.697l10.06-2.289" stroke="#666" stroke-width=".618"/><path d="M58.299 114.959L44.074 74.836l119.442-23.059 17.037 35.564-122.254 27.618z" fill="#CFE1F5" stroke="#666" stroke-width=".618"/><path d="M44.15 75.003L29.446 57.786l117.41-19.875 16.633 13.833-119.337 23.26z" fill="#CFE1F5" stroke="#666" stroke-width=".618"/></svg>