<svg width="20" height="19" fill="none" xmlns="http://www.w3.org/2000/svg"><path d="M16.563 2.969H3.438c-.58 0-1.137.22-1.547.61-.41.389-.64.917-.641 1.468v8.906c0 .551.231 1.08.641 1.469.41.39.967.609 1.546.61h13.126c.58-.001 1.136-.22 1.546-.61.41-.39.64-.918.641-1.469V5.047c0-.551-.231-1.08-.641-1.469a2.25 2.25 0 00-1.547-.61zm-.554 3.437l-5.625 4.156a.647.647 0 01-.768 0L3.991 6.406a.574.574 0 01.07-.99.648.648 0 01.698.053L10 9.342l5.241-3.873a.65.65 0 01.87.11.572.572 0 01-.102.827z" fill="#fff"/></svg>