<svg width="19" height="19" fill="none" xmlns="http://www.w3.org/2000/svg"><path d="M17.773 13.736c-.194-.207-.878-.817-2.135-1.624-1.266-.814-2.2-1.322-2.468-1.44a.142.142 0 00-.146.018c-.431.337-1.158.955-1.197.988-.252.216-.252.216-.457.149-.363-.119-1.488-.716-2.468-1.7-.98-.982-1.609-2.135-1.728-2.497-.068-.206-.068-.206.149-.457.033-.04.652-.766.988-1.197a.142.142 0 00.019-.146c-.119-.268-.626-1.202-1.44-2.468C6.08 2.105 5.471 1.42 5.264 1.227a.145.145 0 00-.144-.032c-.721.248-1.417.564-2.078.944-.638.371-1.242.798-1.805 1.275a.142.142 0 00-.047.139c.077.361.448 1.87 1.598 3.96C3.963 9.646 4.777 10.74 6.5 12.457c1.724 1.718 2.852 2.58 4.987 3.754 2.09 1.15 3.6 1.521 3.96 1.598a.144.144 0 00.14-.047c.476-.563.903-1.167 1.274-1.805.38-.661.696-1.357.944-2.078a.144.144 0 00-.032-.143z" fill="#fff"/></svg>