<svg width="23" height="18" fill="none" xmlns="http://www.w3.org/2000/svg"><g clip-path="url(#clip0_885_2592)"><path d="M9.2 0h11.5C21.969 0 23 1.009 23 2.25v7.875c0 1.241-1.031 2.25-2.3 2.25H9.2c-1.269 0-2.3-1.009-2.3-2.25V2.25C6.9 1.009 7.931 0 9.2 0zm7.906 3.751a.871.871 0 00-.719-.376.872.872 0 00-.718.376l-2.013 2.953-.622-.763a.873.873 0 00-1.344 0l-2.3 2.813a.827.827 0 00-.104.893.865.865 0 00.777.478H19.837c.32 0 .611-.172.762-.446a.825.825 0 00-.043-.865l-3.45-5.063zm-5.031-.376c0-.298-.121-.585-.337-.796a1.163 1.163 0 00-.813-.329c-.305 0-.598.119-.813.33a1.113 1.113 0 00-.337.795c0 .298.121.585.337.795a1.163 1.163 0 001.626 0c.216-.21.337-.497.337-.795zM2.3 4.5h3.45v10.125c0 .622.514 1.125 1.15 1.125h4.6c.636 0 1.15-.503 1.15-1.125V13.5h5.75v2.25c0 1.241-1.031 2.25-2.3 2.25H2.3C1.031 18 0 16.991 0 15.75v-9C0 5.509 1.031 4.5 2.3 4.5zm.288 2.25a.57.57 0 00-.575.563v.562c0 .31.258.563.575.563h.575a.57.57 0 00.575-.563v-.563a.57.57 0 00-.575-.562h-.575zm0 3.656a.57.57 0 00-.575.563v.562c0 .31.258.563.575.563h.575a.57.57 0 00.575-.563v-.562a.57.57 0 00-.575-.563h-.575zm0 3.656a.57.57 0 00-.575.563v.563c0 .309.258.562.575.562h.575a.57.57 0 00.575-.563v-.562a.57.57 0 00-.575-.563h-.575zm12.074.563v.563c0 .309.26.562.575.562h.575a.57.57 0 00.575-.563v-.562a.57.57 0 00-.575-.563h-.574a.57.57 0 00-.575.563z" fill="#1C62AE"/></g><defs><clipPath id="clip0_885_2592"><path fill="#fff" d="M0 0h23v18H0z"/></clipPath></defs></svg>