<svg width="36" height="37" fill="none" xmlns="http://www.w3.org/2000/svg"><g filter="url(#filter0_d_876_8944)" fill="#1C62AE"><path d="M13.085 13.046l9.874 9.88c.156.156.46.043.625-.122.17-.171.284-.466.115-.635l-9.872-9.88c-.065-.067-.163-.082-.255-.07-.402.048-.73.583-.487.826v.001zM19.058 23.795c.63.631 1.65.631 2.28 0l.866-.866-9.131-9.135-.866.866a1.615 1.615 0 000 2.279l6.853 6.856h-.002zM10.196 27.844a1.949 1.949 0 001.412-.75l4.357-5.631-1.425-1.427-5.63 4.36c-1.503 1.164-.596 3.564 1.287 3.45l-.001-.002zm-.899-2.694c.38-.38.863-.325.782-.325.977 0 1.464 1.19.772 1.881-.379.38-.862.325-.781.325-.978 0-1.465-1.19-.773-1.881zM26.733 18.399l-.89-.89-1.985.904a.27.27 0 01-.358-.357l.904-1.986-4.645-4.646-.85.85-.381-.381.85-.85-.89-.892L17.04 11.6l-.38-.381 1.448-1.449-.507-.506-3.019 3.018 9.13 9.136 3.019-3.019h.002z"/></g><defs><filter id="filter0_d_876_8944" x="-5" y="-5" width="50" height="50" filterUnits="userSpaceOnUse" color-interpolation-filters="sRGB"><feFlood flood-opacity="0" result="BackgroundImageFix"/><feColorMatrix in="SourceAlpha" values="0 0 0 0 0 0 0 0 0 0 0 0 0 0 0 0 0 0 127 0" result="hardAlpha"/><feOffset dx="2" dy="2"/><feGaussianBlur stdDeviation="3.5"/><feComposite in2="hardAlpha" operator="out"/><feColorMatrix values="0 0 0 0 0.555 0 0 0 0 0.555 0 0 0 0 0.555 0 0 0 0.18 0"/><feBlend in2="BackgroundImageFix" result="effect1_dropShadow_876_8944"/><feBlend in="SourceGraphic" in2="effect1_dropShadow_876_8944" result="shape"/></filter></defs></svg>