<svg width="36" height="36" fill="none" xmlns="http://www.w3.org/2000/svg"><g filter="url(#filter0_d_876_8951)"><path d="M24.038 10.595a9.426 9.426 0 00-7.114-2.575C12.102 8.326 8 12.733 8 17.665v.109a2.488 2.488 0 104.975 0 .873.873 0 111.702.218v.066a1.222 1.222 0 01-.742.807 2.881 2.881 0 00-1.767 2.662 5.477 5.477 0 005.28 5.477h.24a9.513 9.513 0 006.328-16.43l.022.021zm-2.531 1.593a2.03 2.03 0 110 4.058 2.03 2.03 0 010-4.058zm-6.786-.284a2.029 2.029 0 114.057 0 2.029 2.029 0 01-4.057 0zM19.106 24.8a2.029 2.029 0 110-4.058 2.029 2.029 0 010 4.058zm3.382-3.622a2.029 2.029 0 11-.043-4.058 2.029 2.029 0 01.043 4.058z" fill="#1C62AE"/></g><defs><filter id="filter0_d_876_8951" x="-1.8" y="-1.8" width="41.04" height="41.04" filterUnits="userSpaceOnUse" color-interpolation-filters="sRGB"><feFlood flood-opacity="0" result="BackgroundImageFix"/><feColorMatrix in="SourceAlpha" values="0 0 0 0 0 0 0 0 0 0 0 0 0 0 0 0 0 0 127 0" result="hardAlpha"/><feOffset dx=".72" dy=".72"/><feGaussianBlur stdDeviation="1.26"/><feComposite in2="hardAlpha" operator="out"/><feColorMatrix values="0 0 0 0 0.555 0 0 0 0 0.555 0 0 0 0 0.555 0 0 0 0.18 0"/><feBlend in2="BackgroundImageFix" result="effect1_dropShadow_876_8951"/><feBlend in="SourceGraphic" in2="effect1_dropShadow_876_8951" result="shape"/></filter></defs></svg>