<svg width="36" height="36" viewBox="0 0 36 36" fill="none" xmlns="http://www.w3.org/2000/svg">
<g filter="url(#filter0_d_876_8951)">
<path d="M24.0377 10.595C23.0942 9.69788 21.975 9.00591 20.7507 8.56277C19.5264 8.11963 18.2236 7.93492 16.9244 8.02028C12.1022 8.32576 8 12.7334 8 17.6647V17.7738C8 18.1005 8.06434 18.424 8.18935 18.7258C8.31436 19.0276 8.49758 19.3018 8.72857 19.5328C8.95955 19.7637 9.23377 19.947 9.53556 20.072C9.83736 20.197 10.1608 20.2613 10.4875 20.2613C10.8141 20.2613 11.1376 20.197 11.4394 20.072C11.7412 19.947 12.0154 19.7637 12.2464 19.5328C12.4774 19.3018 12.6606 19.0276 12.7856 18.7258C12.9106 18.424 12.975 18.1005 12.975 17.7738C12.9676 17.6458 12.9886 17.5178 13.0363 17.3988C13.0841 17.2798 13.1575 17.1728 13.2512 17.0854C13.345 16.998 13.4569 16.9323 13.5789 16.8931C13.701 16.8538 13.8302 16.8419 13.9573 16.8582C14.0845 16.8745 14.2065 16.9186 14.3147 16.9874C14.4229 17.0562 14.5146 17.148 14.5833 17.2562C14.652 17.3645 14.696 17.4865 14.7122 17.6137C14.7283 17.7409 14.7163 17.87 14.6769 17.992V18.0575C14.6247 18.2406 14.5304 18.4089 14.4016 18.5491C14.2728 18.6892 14.113 18.7974 13.935 18.8648C13.4106 19.0845 12.9629 19.4546 12.6483 19.9283C12.3338 20.402 12.1665 20.9583 12.1676 21.5269C12.1667 22.946 12.7167 24.3101 13.7017 25.3318C14.6867 26.3534 16.0298 26.9528 17.4481 27.0037H17.6881C19.5756 26.9637 21.4085 26.363 22.9535 25.2781C24.4985 24.1932 25.6859 22.6732 26.3644 20.9114C27.0429 19.1497 27.1818 17.2259 26.7636 15.3849C26.3454 13.5439 25.3889 11.8689 24.0159 10.5732L24.0377 10.595ZM21.5066 12.1879C21.9079 12.1879 22.3003 12.3069 22.634 12.5299C22.9677 12.7529 23.2278 13.0698 23.3814 13.4406C23.535 13.8114 23.5752 14.2194 23.4969 14.6131C23.4186 15.0067 23.2253 15.3683 22.9415 15.6521C22.6577 15.9359 22.2961 16.1291 21.9025 16.2074C21.5088 16.2857 21.1008 16.2456 20.73 16.092C20.3592 15.9384 20.0423 15.6783 19.8193 15.3446C19.5963 15.0109 19.4773 14.6185 19.4773 14.2172C19.4773 13.679 19.6911 13.1628 20.0717 12.7823C20.4523 12.4017 20.9684 12.1879 21.5066 12.1879ZM14.7206 11.9042C14.7206 11.5029 14.8396 11.1106 15.0626 10.7769C15.2855 10.4431 15.6025 10.183 15.9733 10.0295C16.3441 9.87586 16.7521 9.83568 17.1457 9.91398C17.5394 9.99228 17.9009 10.1855 18.1847 10.4693C18.4685 10.7531 18.6618 11.1147 18.7401 11.5084C18.8184 11.902 18.7782 12.31 18.6246 12.6808C18.471 13.0516 18.2109 13.3685 17.8772 13.5915C17.5435 13.8145 17.1512 13.9335 16.7498 13.9335C16.2116 13.9335 15.6955 13.7197 15.3149 13.3392C14.9344 12.9586 14.7206 12.4424 14.7206 11.9042ZM19.1064 24.7999C18.705 24.7999 18.3127 24.6809 17.979 24.4579C17.6453 24.2349 17.3852 23.918 17.2316 23.5472C17.078 23.1764 17.0378 22.7684 17.1161 22.3747C17.1944 21.9811 17.3877 21.6195 17.6715 21.3357C17.9553 21.0519 18.3169 20.8587 18.7105 20.7804C19.1041 20.7021 19.5122 20.7422 19.883 20.8958C20.2538 21.0494 20.5707 21.3095 20.7937 21.6432C21.0166 21.9769 21.1357 22.3693 21.1357 22.7706C21.1357 23.3088 20.9219 23.825 20.5413 24.2055C20.1607 24.5861 19.6446 24.7999 19.1064 24.7999ZM22.4885 21.1778C22.0862 21.1821 21.6918 21.0668 21.3552 20.8464C21.0187 20.6261 20.7552 20.3107 20.5982 19.9403C20.4413 19.5699 20.398 19.1612 20.4738 18.7662C20.5496 18.3711 20.7411 18.0075 21.024 17.7215C21.3069 17.4355 21.6685 17.2401 22.0627 17.16C22.4569 17.0799 22.866 17.1188 23.2381 17.2717C23.6102 17.4246 23.9284 17.6847 24.1524 18.0189C24.3763 18.353 24.4959 18.7462 24.4959 19.1485C24.496 19.6829 24.2852 20.1958 23.9093 20.5757C23.5335 20.9557 23.0229 21.172 22.4885 21.1778Z" fill="#1C62AE"/>
</g>
<defs>
<filter id="filter0_d_876_8951" x="-1.8" y="-1.8" width="41.04" height="41.04" filterUnits="userSpaceOnUse" color-interpolation-filters="sRGB">
<feFlood flood-opacity="0" result="BackgroundImageFix"/>
<feColorMatrix in="SourceAlpha" type="matrix" values="0 0 0 0 0 0 0 0 0 0 0 0 0 0 0 0 0 0 127 0" result="hardAlpha"/>
<feOffset dx="0.72" dy="0.72"/>
<feGaussianBlur stdDeviation="1.26"/>
<feComposite in2="hardAlpha" operator="out"/>
<feColorMatrix type="matrix" values="0 0 0 0 0.555 0 0 0 0 0.555 0 0 0 0 0.555 0 0 0 0.18 0"/>
<feBlend mode="normal" in2="BackgroundImageFix" result="effect1_dropShadow_876_8951"/>
<feBlend mode="normal" in="SourceGraphic" in2="effect1_dropShadow_876_8951" result="shape"/>
</filter>
</defs>
</svg>
