<svg width="39" height="36" fill="none" xmlns="http://www.w3.org/2000/svg"><g filter="url(#filter0_d_876_8842)" fill="#1C62AE"><path d="M16.015 18.747l-6.32-1.5v5.629l8.721 2.068v-8.467l-2.222 2.219a.192.192 0 01-.18.05z"/><path d="M18.228 16.122l-8.666-2.056-2.23 2.228 8.666 2.055 2.23-2.227zM21.02 17.884l8.648-2.052-2.009-1.768-8.647 2.052 2.008 1.768z"/><path d="M20.968 18.284a.19.19 0 01-.126-.048l-2.043-1.797v8.505l8.72-2.068v-6.14l-6.507 1.543a.18.18 0 01-.044.005zM16.964 12.055l-6.679 1.79 8.322 1.973 8.177-1.94-9.82-1.823z"/></g><defs><filter id="filter0_d_876_8842" x="-5" y="-5" width="50" height="50" filterUnits="userSpaceOnUse" color-interpolation-filters="sRGB"><feFlood flood-opacity="0" result="BackgroundImageFix"/><feColorMatrix in="SourceAlpha" values="0 0 0 0 0 0 0 0 0 0 0 0 0 0 0 0 0 0 127 0" result="hardAlpha"/><feOffset dx="2" dy="2"/><feGaussianBlur stdDeviation="3.5"/><feComposite in2="hardAlpha" operator="out"/><feColorMatrix values="0 0 0 0 0.555 0 0 0 0 0.555 0 0 0 0 0.555 0 0 0 0.18 0"/><feBlend in2="BackgroundImageFix" result="effect1_dropShadow_876_8842"/><feBlend in="SourceGraphic" in2="effect1_dropShadow_876_8842" result="shape"/></filter></defs></svg>