<svg width="38" height="38" fill="none" xmlns="http://www.w3.org/2000/svg"><g filter="url(#filter0_d_876_8956)" fill="#1C62AE"><path d="M18 28.4c5.617 0 10.193-4.576 10.193-10.192 0-1.768-.468-3.536-1.352-5.07l-.234-.39-.806.468.234.39a9.235 9.235 0 011.222 4.602c0 5.122-4.16 9.282-9.282 9.282s-9.282-4.16-9.282-9.282 4.16-9.282 9.282-9.282a8.74 8.74 0 013.276.624l-.65 1.118 3.562.052-1.716-3.12-.676 1.144A10.344 10.344 0 0018 8.016c-5.616 0-10.192 4.576-10.192 10.192C7.809 23.824 12.385 28.4 18 28.4z"/><path d="M18 11.24a6.968 6.968 0 100 13.937 6.968 6.968 0 000-13.937zm3.093 10.062a.548.548 0 01-.338.13.548.548 0 01-.338-.13l-2.756-2.756c-.052-.052-.078-.104-.104-.156 0-.026-.026-.052-.026-.052-.026-.026-.026-.078-.026-.104v-4.628c0-.26.208-.468.468-.468s.468.208.468.468V18l2.626 2.626c.208.208.208.494.026.676z"/></g><defs><filter id="filter0_d_876_8956" x="-5" y="-5" width="50" height="50" filterUnits="userSpaceOnUse" color-interpolation-filters="sRGB"><feFlood flood-opacity="0" result="BackgroundImageFix"/><feColorMatrix in="SourceAlpha" values="0 0 0 0 0 0 0 0 0 0 0 0 0 0 0 0 0 0 127 0" result="hardAlpha"/><feOffset dx="2" dy="2"/><feGaussianBlur stdDeviation="3.5"/><feComposite in2="hardAlpha" operator="out"/><feColorMatrix values="0 0 0 0 0.555 0 0 0 0 0.555 0 0 0 0 0.555 0 0 0 0.18 0"/><feBlend in2="BackgroundImageFix" result="effect1_dropShadow_876_8956"/><feBlend in="SourceGraphic" in2="effect1_dropShadow_876_8956" result="shape"/></filter></defs></svg>