<svg width="36" height="36" fill="none" xmlns="http://www.w3.org/2000/svg"><g filter="url(#filter0_d_876_9007)"><path d="M25.361 11.579l-2.274-2.577S20.459 11.343 17.68 9c-2.779 2.343-5.406.002-5.406.002L10 11.578s1.81 1.214.76 4.082C9.57 18.906 9.24 23.6 17.68 27c8.44-3.4 8.11-8.094 6.92-11.34-1.049-2.868.761-4.082.761-4.082zm-8.285 9.606a.997.997 0 01-1.415 0l-2.623-2.624 1.413-1.415 1.917 1.917 4.541-4.54 1.414 1.413-5.247 5.249z" fill="#1C62AE"/></g><defs><filter id="filter0_d_876_9007" x="-5" y="-5" width="50" height="50" filterUnits="userSpaceOnUse" color-interpolation-filters="sRGB"><feFlood flood-opacity="0" result="BackgroundImageFix"/><feColorMatrix in="SourceAlpha" values="0 0 0 0 0 0 0 0 0 0 0 0 0 0 0 0 0 0 127 0" result="hardAlpha"/><feOffset dx="2" dy="2"/><feGaussianBlur stdDeviation="3.5"/><feComposite in2="hardAlpha" operator="out"/><feColorMatrix values="0 0 0 0 0.555 0 0 0 0 0.555 0 0 0 0 0.555 0 0 0 0.18 0"/><feBlend in2="BackgroundImageFix" result="effect1_dropShadow_876_9007"/><feBlend in="SourceGraphic" in2="effect1_dropShadow_876_9007" result="shape"/></filter></defs></svg>