<svg width="39" height="36" viewBox="0 0 39 36" fill="none" xmlns="http://www.w3.org/2000/svg">
<g filter="url(#filter0_d_876_8842)">
<path d="M16.0147 18.7466L9.69531 17.2477V22.8757L18.4161 24.9443V16.4766L16.1944 18.6957C16.1476 18.7429 16.0798 18.7616 16.0147 18.7466Z" fill="#1C62AE"/>
<path d="M18.2282 16.1215L9.5624 14.0663L7.33203 16.2937L15.9978 18.3488L18.2282 16.1215Z" fill="#1C62AE"/>
<path d="M21.0201 17.8836L29.6676 15.8321L27.6592 14.0645L19.0117 16.1159L21.0201 17.8836Z" fill="#1C62AE"/>
<path d="M20.9682 18.284C20.9221 18.284 20.8768 18.2675 20.8417 18.2361L18.7988 16.4385V24.9444L27.5197 22.8758V16.7357L21.0124 18.2788C20.9978 18.2825 20.9828 18.284 20.9682 18.284Z" fill="#1C62AE"/>
<path d="M16.9643 12.0547L10.2852 13.8441L18.6066 15.8176L26.7838 13.8778L16.9643 12.0547Z" fill="#1C62AE"/>
</g>
<defs>
<filter id="filter0_d_876_8842" x="-5" y="-5" width="50" height="50" filterUnits="userSpaceOnUse" color-interpolation-filters="sRGB">
<feFlood flood-opacity="0" result="BackgroundImageFix"/>
<feColorMatrix in="SourceAlpha" type="matrix" values="0 0 0 0 0 0 0 0 0 0 0 0 0 0 0 0 0 0 127 0" result="hardAlpha"/>
<feOffset dx="2" dy="2"/>
<feGaussianBlur stdDeviation="3.5"/>
<feComposite in2="hardAlpha" operator="out"/>
<feColorMatrix type="matrix" values="0 0 0 0 0.555 0 0 0 0 0.555 0 0 0 0 0.555 0 0 0 0.18 0"/>
<feBlend mode="normal" in2="BackgroundImageFix" result="effect1_dropShadow_876_8842"/>
<feBlend mode="normal" in="SourceGraphic" in2="effect1_dropShadow_876_8842" result="shape"/>
</filter>
</defs>
</svg>
