<svg width="50" height="45" fill="none" xmlns="http://www.w3.org/2000/svg"><g filter="url(#filter0_d_876_9070)"><g clip-path="url(#clip0_876_9070)" fill-rule="evenodd" clip-rule="evenodd" fill="#1C62AE"><path d="M26.47 9.624v1.582a1.322 1.322 0 001.324 1.324h1.582l-2.905-2.906z"/><path d="M27.794 13.412h1.765a.44.44 0 01.441.44v12.354a1.322 1.322 0 01-1.323 1.323H16.323A1.323 1.323 0 0115 26.206V10.323A1.322 1.322 0 0116.323 9h8.824c.244 0 .441.198.441.441v1.765a2.208 2.208 0 002.206 2.206zm-10.9 10.459l.882.882a.44.44 0 00.624 0l1.765-1.765a.442.442 0 00-.624-.623l-1.453 1.452-.57-.57a.442.442 0 00-.624.624zm4.724.129h6.176a.441.441 0 000-.882h-6.176a.441.441 0 000 .882zm-4.724-3.659l.882.883a.44.44 0 00.624 0l1.765-1.765a.442.442 0 00-.624-.624l-1.453 1.453-.57-.57a.441.441 0 00-.624.623zm4.724.13h6.176a.441.441 0 000-.883h-6.176a.441.441 0 000 .883zm-4.724-3.66l.882.883a.44.44 0 00.624 0l1.765-1.764a.442.442 0 00-.624-.624l-1.453 1.453-.57-.57a.441.441 0 00-.624.623zm4.724.13h6.176a.441.441 0 000-.882h-6.176a.441.441 0 000 .882z"/></g></g><defs><clipPath id="clip0_876_9070"><rect x="5" width="36" height="36" rx="5" fill="#fff"/></clipPath><filter id="filter0_d_876_9070" x="0" y="-5" width="50" height="50" filterUnits="userSpaceOnUse" color-interpolation-filters="sRGB"><feFlood flood-opacity="0" result="BackgroundImageFix"/><feColorMatrix in="SourceAlpha" values="0 0 0 0 0 0 0 0 0 0 0 0 0 0 0 0 0 0 127 0" result="hardAlpha"/><feOffset dx="2" dy="2"/><feGaussianBlur stdDeviation="3.5"/><feComposite in2="hardAlpha" operator="out"/><feColorMatrix values="0 0 0 0 0.555 0 0 0 0 0.555 0 0 0 0 0.555 0 0 0 0.18 0"/><feBlend in2="BackgroundImageFix" result="effect1_dropShadow_876_9070"/><feBlend in="SourceGraphic" in2="effect1_dropShadow_876_9070" result="shape"/></filter></defs></svg>