<svg width="41" height="36" fill="none" xmlns="http://www.w3.org/2000/svg"><g filter="url(#filter0_d_876_8929)" fill="#1C62AE"><path d="M9.93 21.127c.002 0 .002.001.003.002.001 0 .002-.002.004-.001l.169.027.002.002h.003l.165.039c.002 0 .002.001.003.002h.004l.173.059.002.001h.003l.177.076.002.001h.003l.177.091v.001h.002l.177.095s0 .002.002.002l.004.001.177.118v.002h.002l.178.13v.002h.003l.173.142.001.003h.003l.165.158.17.162v.003h.003l.103.114v.001l.1.115v.002h.002l.094.123v.002l.003.002.087.13v.001l.001.001.083.134.08.13v.003l.075.138v.001h.001l.071.138v.004l.003.002.059.146.067.17v.001l.011.03.016.033.007.015.017.023.001.006.005.004.013.026.017.024.017.02v.002c.001.001.002 0 .003.002l.017.023.018.019.02.02.022.022.018.014.02.014.003.003.003.001.021.018.017.011 1.053.605.021.01v.001h.002l.02.01.016.007.02.005.003.002.003.002.002-.001.024.003h.027l.013-.002.008-.002.005-.003.015-.01v-.002h.003l.016-.016.015-.014v-.004l.056-.079s.002 0 .003-.002v-.003l.064-.075c.001-.001.003 0 .005-.002l.002-.005.067-.06h.002l.002-.002.07-.055c.002-.001.004 0 .005-.002.002 0 .002-.003.004-.004l13.852-7.993-.976-.555-.002-.002-.003-.001-.023-.016-.004-.006c-.002-.002-.005-.001-.007-.003l-.015-.015-.017-.012h-.001l-.002-.001-.027-.02c-.002-.001-.002-.004-.004-.006-.004-.004-.01-.007-.013-.012l-.009-.013-.017-.012c-.003-.002-.003-.006-.006-.009-.002-.002-.005 0-.007-.003l-.02-.024-.02-.023v-.004h-.003l-.019-.028-.02-.028v-.002l-.003-.002-.02-.032v-.001l-.016-.028v-.005l-.005-.005-.01-.027-.013-.023v-.001l-.002-.002-.016-.032v-.003c0-.002-.003-.002-.003-.004l-.063-.173-.061-.138-.065-.134-.072-.138-.074-.13-.09-.124v-.002l-.086-.13-.091-.117-.097-.112h-.004l-.098-.11-.165-.161-.169-.157-.168-.137-.175-.124-.171-.117-.173-.1-.173-.085-.174-.074-.162-.056-.169-.038-.162-.027-.094-.003h-.091l-.08.01-.085.026-.081.028-.073.044h-.001l-.54.308-13.521 7.81.089.006zM15.103 24.11l.004.002h.005l.177.03.002.002h.003l.177.042c.002 0 .002.003.004.003h.004l.18.067.002.001h.002l.185.079.002.001h.001l.185.09.003.003h.004l.185.115v.002h.002l.185.126s0 .002.002.002h.002l.185.142v.002h.002l.14.118 14.364-8.293-.104-.087-.177-.132-.186-.128-.18-.114-.177-.09-.181-.076-.178-.063-.173-.04-.17-.028-.092-.007-.089.008h-.001l-.091.006-.076.02-.075.033-.076.042-.542.313v.001l-13.524 7.804.085.004zM15.767 24.866l-.002-.001c-.002 0-.002-.002-.003-.003h-.001l-.003-.004c-.003 0-.005 0-.007-.002l-.005-.002a.078.078 0 01-.014-.003l-.004.001-.006-.002-.005.002-.003.001-.007.006c-.002.004-.002.009-.005.012h-.001l-.001.003c0 .003.003.006.002.01l-.028.175.216-.123-.123-.07zM9.382 22.173l-.066.043-.067.044-.061.05-.016.018.323-.187-.043.01-.07.022zM7.537 20.639l.01.023.012.024.017.023c.002.002 0 .005.002.006 0 .002.003.003.004.005l.013.024.014.017v.003c.001 0 .003 0 .003.002l.02.027.02.027.011.015.02.016c.001.002 0 .004.002.006.002.001.005 0 .006.003l.016.019.014.011.022.013.004.005c.002.002.005 0 .006.002l.023.019.016.013 1.056.606.021.011.02.01.025.01h.001l.027.004.002.002h.002l.013.002h.031l.012-.003h.004l.003-.003c.002-.002.006 0 .01-.002.002-.002.003-.006.007-.007l.01-.005.008-.006.01-.013c0-.002.003-.001.004-.003.002-.001.001-.004.003-.005l.01-.01.046-.076c.002-.001.004-.001.005-.003l.001-.005.06-.071c0-.002.003-.001.005-.003 0-.001 0-.003.002-.005l.07-.063h.004l.003-.004.07-.051.004-.001c.002 0 .002-.003.003-.003l13.842-7.994-.974-.563-.02-.01-.006-.007c-.002-.001-.006 0-.008-.003l-.02-.017-.021-.014-.002-.003-.004-.001-.023-.02-.002-.003-.004-.001-.023-.024-.02-.02-.001-.003-.003-.001-.02-.024-.02-.023v-.003l-.005-.005-.018-.03-.016-.018v-.003l-.006-.005-.02-.031v-.002l-.016-.028v-.001l-.003-.003-.015-.032v-.001l-.001-.001-.007-.016-14.373 8.298.002.006zM16.809 25.359l14.354-8.283v-.299l-14.354 8.287v.295z"/><path d="M5.736 19.488h.003l.37.24c.003.002.003.005.005.007.003.002.006.001.008.004l.004.004.255.197.001.002h.002l.26.225v.002h.003l.098.095.001.002.003.001.094.102.095.103v.004l.004.001.087.114v.001l.001.001.083.118.087.123v.002l.002.001.079.126v.003l.002.001.067.126.07.13v.002l.003.002.059.13v.001l.06.133v.004l.001.002.06.17v.003l.007.022.012.024.013.023.018.03.019.025.001.006.005.004.014.027.007.012.02.018.004.005c.001.002.004.002.005.003l.019.023.023.027v.001h.001l.016.02.014.01.022.014c.004.002.005.007.008.01.004.003.009.003.012.006l.005.007.012.005.003.003h.004l.83.48.003.003h.002l.015.01.015.005.026.008.002.002h.003l.013.005.017.002v.001h.002l.013.003h.027l.012-.003.008-.001.008-.006c.004-.002.007 0 .01-.002l.009-.008c.002-.002.005 0 .007-.003.002-.001.001-.004.004-.006l.006-.004.004-.004.006-.01.006-.013.002-.002v-.002l.048-.083.003-.002.001-.004.055-.075.003-.002.001-.004.06-.066c0-.002.003-.002.004-.003l.003-.005.067-.055c.001-.001.003 0 .004-.002 0 0 0-.002.002-.003l.07-.047h.002l.075-.048c.003-.002.006 0 .009-.002.003-.001.004-.005.007-.006l.082-.027h.004c.001 0 .001-.002.003-.002l.087-.02h.003l.088-.016c.003 0 .004.002.007.001l.005-.002h.098l.083.004h.013l.006.002c.003 0 .005-.002.007 0l.099.019h.002l.213.052.003.002h.004l.21.075v.001h.002l.224.09.002.003h.004l.216.11.001.002h.002l.22.126c.002 0 .002.002.003.002h.002l.217.146v.002h.002l.216.157.001.002h.002l.216.174.002.002h.002l.212.193.001.002h.002l.098.1h.002l.098.103.001.003c.001 0 .002 0 .003.002l.091.113.09.115.001.001h.001l.09.123.001.003h.002l.079.123v.001l.08.13v.004s.002 0 .002.002l.067.133.067.13v.003l.002.001.063.142v.003l.052.13v.002l.001.001.053.163.012.021c.002.003 0 .006.002.01 0 .003.005.004.006.008l.005.022.011.018v.003c.001 0 .002 0 .003.002l.012.026.017.023c.002.002 0 .004.002.006l.004.004.014.027.009.014.019.019.004.009.007.006.01.017.018.016c.002.001.002.003.003.005s.004.001.005.003l.016.018.019.016.001.003c.001.001.003 0 .004.002l.015.015.018.012c.002.001.002.004.003.006.002.001.005 0 .007.003l.012.011.014.007v.002h.003l.76.433v.002h.003l.02.013.02.009.002.001h.001l.007.003.017.003c.003 0 .004.003.007.004h.008l.012.005.011.002h.028l.005-.001.015-.006h.004c.002 0 .002-.002.003-.002l.01-.003c.003-.003.006-.003.01-.005.002-.003.001-.007.005-.009l.01-.008.005-.005.007-.01.01-.016.052-.083.048-.076c0-.002.003-.002.005-.004 0-.001 0-.003.002-.005l.063-.07c.001-.002.003-.002.005-.003l.003-.006.063-.051.003-.001v-.002l.071-.051c.002-.002.005 0 .006-.002.002 0 .002-.003.004-.004l.079-.04h.004l.003-.003.082-.03h.003c.002 0 .002-.002.003-.003l.083-.023h.005l.005-.002.09-.012.005.001.005-.002h.098l.083.004h.012l.006.003.007-.002.099.02.002.001h.001l.236.059c.002 0 .002.002.003.002h.003l.19.064.04-.248v-.006c0-.004.004-.006.005-.009 0-.003-.003-.006-.002-.009l.004-.016c.002-.005.007-.007.01-.012l.004-.012c0-.003.003-.003.004-.005v-.003l.007-.006.001-.007.008-.012c0-.001.003 0 .004-.002v-.004l.005-.005.003-.001.001-.003.008-.008.005-.004c.002-.002.004-.001.005-.002.002-.002.001-.004.003-.005l.012-.008c.006-.005.013-.003.02-.005h.001l.008-.005h.004c.003 0 .004-.003.006-.003h.011c.004 0 .006-.004.01-.004h.038c.004 0 .006.004.01.004h.01c.003 0 .004.003.007.003h.004l.007.004c.005.001.01-.001.014.001l.015.008.007.003.003.004h.005l.011.008.143.081.004.005.002.002c.003.001.006 0 .008.002v.001l.006.006c.002.001.004 0 .005.002l.004.004.002.001.002.003c.003.004.004.009.006.013l.004.001c0 .002 0 .004.002.006l.001.001c.003.002.002.006.004.008.003.006.007.009.009.015 0 .002.003.002.004.004l.01.03.01.02c.002.003 0 .007.001.01.002.002.002.005.003.008.002.003.006.003.008.006l.004.008v.009l.002.004.002.002c.008.006.017.011.02.02l.005.004v.001h.001l.014-.02c.002-.003.005-.002.007-.005.001 0 0-.004.002-.005h.001l.003-.002c0-.001 0-.003.002-.004.007-.006.015-.006.022-.009l.012-.005c.005-.001.008-.006.014-.006h.024c.01 0 .017.007.026.011l.005.001.006.001.008.005h.002l.213.126.003.004.003.002.01.004.002.001c.001.002.004.001.006.003l.002.001.004.004.003.009s0 .002.002.003c.002.003.006.003.008.006l.004.008v.008a.059.059 0 01.01.019l.001.003c0 .005.005.007.005.012l.048.11v.003h.002l.08.047v-.303l-.151-.128-.183-.14-.179-.123-.182-.112-.179-.087-.185-.08-.173-.064-.175-.042-.167-.03-.091-.003-.094.004-.086.01-.077.021-.076.033-.079.04-.064.05-.06.052-.058.07-.053.075-.008.011-.007.007c-.001.001 0 .003-.002.005l-.016.015-.015.015-.006.003-.004.006-.011.008-.015.01-.004.001-.001.002-.02.012c-.005.004-.01.003-.016.005l-.007.005-.02.004-.019.003a.052.052 0 01-.013.002h-.049l-.027-.005h-.002l-.005-.001-.016-.004h-.002l-.002-.001-.028-.008v-.001h-.005l-.02-.008-.002-.002c-.002-.001-.003 0-.005-.002l-.022-.011-.023-.011-.002-.002h-.003l-1.055-.607-.002-.002-.003-.001-.023-.016c-.001 0 0-.002-.002-.003l-.004-.001-.02-.017-.021-.014c-.002-.001-.002-.003-.002-.004l-.004-.001-.024-.02-.001-.002c-.001-.001-.002 0-.003-.002l-.024-.023-.02-.02-.024-.023c-.001-.002 0-.005-.002-.006-.001-.002-.004-.001-.005-.003l-.02-.027-.017-.021v-.002l-.002-.001-.02-.028-.001-.005-.005-.005-.013-.026-.017-.023-.001-.005-.005-.005-.012-.024v-.001l-.001-.002-.016-.035v-.002l-.002-.002-.011-.032-.067-.168-.057-.14-.07-.137-.072-.134-.078-.129-.083-.134-.085-.126-.09-.118-.098-.113-.1-.11-.168-.161-.164-.156-.167-.137-.178-.13-.17-.114-.176-.093-.173-.089-.174-.074-.166-.056-.159-.038-.167-.027-.092-.007-.093.007-.087.007-.078.022-.077.03-.072.04v.001l-.065.047-.064.056-.057.064-.048.078-.008.008c-.002.001-.001.003-.002.005l-.012.012-.01.012c0 .001-.003 0-.004.002-.002.002-.001.005-.003.006l-.011.011c-.002.002-.004 0-.005.002-.001.001 0 .003-.002.004l-.016.012c-.004.003-.007.002-.01.004-.004.002-.004.005-.007.006l-.01.004-.008.006c-.006.004-.013.004-.02.006-.003.002-.005.006-.009.007l-.02.004-.02.004a.057.057 0 01-.013.001h-.043l-.013-.001-.016-.003-.028-.004-.001-.001h-.006l-.016-.005-.003-.002c-.003 0-.006 0-.008-.002l-.028-.012-.003-.001-.023-.012h-.001l-.024-.012-.001-.001H8.78l-1.064-.611-.003-.004-.006-.003-.02-.016-.019-.016-.022-.013-.004-.005c-.002-.001-.004 0-.006-.002l-.024-.02-.003-.006c-.001-.002-.004 0-.006-.003l-.015-.018-.02-.016c-.001-.001 0-.005-.002-.006s-.005-.001-.006-.003l-.02-.023v-.003l-.003-.001-.02-.028-.019-.026-.016-.02c-.002-.002-.001-.004-.002-.006l-.008-.008-.013-.026-.016-.023-.001-.005-.005-.005-.016-.032v-.002l-.002-.001-.011-.028v-.002l-.002-.001-.01-.027-.012-.021c-.002-.003 0-.005-.001-.007l-.005-.005-.046-.132-.057-.134-.063-.132-.069-.123-.075-.13-.077-.123-.08-.123-.081-.115-.092-.104-.093-.105-.097-.105-.006-.002v.327c0 .007-.006.011-.007.017-.002.008 0 .014-.003.02l-.008.008a.06.06 0 01-.008.008.069.069 0 01-.044.018.068.068 0 01-.035-.01l-.3-.177-.001-.003h-.003c-.002-.002-.005-.001-.007-.002l-.007-.004-.001-.001-.002-.001-.001-.002h-.002l-.003-.003-.001-.002c-.004-.002-.008-.001-.01-.004-.004-.005-.004-.01-.007-.016v-.002a.063.063 0 01-.008-.018l-.002-.006c-.002-.003-.005-.004-.006-.007l-.04-.107-.003-.009v-.001c-.002-.002-.004 0-.005-.003l-.008-.012-.007-.01-.001-.004-.004-.005-.004-.008-.001-.003-.006-.008c-.003-.003-.006-.002-.009-.005l-.001-.002c-.001-.002-.003-.001-.005-.002l-.007-.008-.006-.003-.003-.003-.005-.001-.012-.008h-.007l-.034.05c-.002.004-.006.006-.008.008l-.003.004-.003.004-.005.002a.067.067 0 01-.026.01c-.006.003-.01.008-.017.008h-.023c-.01 0-.017-.007-.025-.01l-.01-.003-.01-.006-.005-.002-.162-.09c-.002-.001-.002-.003-.003-.005l-.013-.007c-.002-.002-.005-.002-.007-.003-.001-.002-.001-.005-.003-.007l-.004-.004H5.58v-.002l-.001-.001-.001-.001-.002-.001-.001-.001c-.005-.006-.005-.013-.008-.02-.004-.003-.004-.007-.007-.011l-.007-.006v-.003a.051.051 0 01-.005-.013l-.002-.003-.002-.007-.005-.008c-.002-.003 0-.006-.001-.009-.002-.004-.006-.006-.007-.01l-.003-.01v-.001l-.001-.005-.003-.003-.004-.012v-.001l-.003-.004-.012-.012c-.003-.003-.002-.007-.004-.01l-.005-.006-.002-.003-.007-.007c-.003-.002-.002-.006-.004-.008s-.005-.001-.006-.004l-.003-.003s0-.002-.002-.002-.004 0-.006-.002l-.008-.004h-.001l-.008-.004c-.003-.002-.003-.006-.006-.007l-.002-.002h-.004l-.005-.002-.006-.002-.002.003v.328l.31.176c.002 0 .002.002.002.003z"/><path d="M6.75 19.313h.001v.001l.095.106.095.107.001.004c.002.001.003 0 .004.002l.083.118v.002h.001l.083.126v.001l.08.126v.002l.076.13v.001l.07.126.001.003.002.001.063.135v.001h.001l.06.139v.004l.02.054 14.37-8.295-.03-.077-.054-.135-.062-.131-.069-.123-.075-.134-.075-.117-.084-.122-.083-.113-.088-.108-.099-.11v-.001l-.085-.097c-.004-.003-.01-.002-.013-.005l-.004-.004v-.001h-.002l-.002-.003h-.001c-.004-.002-.005-.005-.008-.007l-.002-.001-.347.199-14.019 8.09.097.106zM5.57 18.904c.005.005.014.006.018.013.002.002 0 .005.002.006l.006.003c.003.004.003.01.005.014a.04.04 0 01.005.005h.002v.003c.004.005.01.007.012.013v.001c.004.002.005.007.008.01 0 0 .002 0 .003.002v.002c.009.009.019.017.022.03v.002l14.37-8.3-.003-.004v-.002l-.003-.004-.008-.013c-.002-.002 0-.004-.002-.005-.001-.002-.003-.001-.004-.002l-.008-.008c-.003-.003-.002-.007-.005-.01l-.006-.008-.005-.006-.002-.001-.008-.008-.001-.005-.005-.001c-.003-.001-.003-.004-.005-.004l-.012-.004-.011-.007h-.002v-.002h-.004-.002l-.009-.002-.006.001-.002.001-14.346 8.284c.002.002.004.001.005.003v.003zM5.823 19.17l.011-.017c.004-.005.01-.006.015-.01.003-.003.002-.007.004-.01.001-.002.003-.001.005-.002l.001-.005h.003c.005-.005.01-.006.016-.01.002 0 .002-.003.004-.005l14.273-8.238-.047-.027c-.003-.001-.003-.005-.005-.006l-.015-.006-14.352 8.287.087.049z"/><path d="M6.078 19.162c.007.005.016.007.02.015.002.001.001.004.002.006.005.004.011.004.015.01.002.003 0 .007.002.01.003.004.008.005.01.009v.005l.004.003v.003l.001.005c.002.002.005.002.006.004.002.003 0 .006.002.009l.003.005c.005.005.013.008.016.015v.008c.002.003.006.003.007.006v.006c0 .002.003.003.004.005l.039.105h.002l.193.115v-.275c0-.003.003-.005.004-.008 0-.01.005-.016.01-.024.004-.008.008-.015.015-.02.003-.002.003-.006.006-.008l.02-.011c.001-.002.003 0 .005-.001l.003-.004 14.083-8.128-.02-.054-.001-.005v-.005c-.002-.003-.005-.004-.005-.006l-.001-.003-.002-.003-.001-.004c-.002-.002-.004-.003-.005-.006l-.002-.005-.004-.007-.004-.005-.006-.009c-.006-.003-.009-.01-.014-.015-.005-.003-.01-.008-.014-.014l-.009-.003c-.005-.001-.006-.005-.01-.008h-.002l-.003-.003h-.018l-.098.06h-.001l-.001.001L6.076 19.16l.002.002zM14.561 25.166l-.071.035-.063.046-.06.05-.021.023.333-.195-.04.012-.078.029z"/></g><defs><filter id="filter0_d_876_8929" x="-4" y="-5" width="50" height="50" filterUnits="userSpaceOnUse" color-interpolation-filters="sRGB"><feFlood flood-opacity="0" result="BackgroundImageFix"/><feColorMatrix in="SourceAlpha" values="0 0 0 0 0 0 0 0 0 0 0 0 0 0 0 0 0 0 127 0" result="hardAlpha"/><feOffset dx="2" dy="2"/><feGaussianBlur stdDeviation="3.5"/><feComposite in2="hardAlpha" operator="out"/><feColorMatrix values="0 0 0 0 0.555 0 0 0 0 0.555 0 0 0 0 0.555 0 0 0 0.18 0"/><feBlend in2="BackgroundImageFix" result="effect1_dropShadow_876_8929"/><feBlend in="SourceGraphic" in2="effect1_dropShadow_876_8929" result="shape"/></filter></defs></svg>