<svg width="41" height="36" viewBox="0 0 41 36" fill="none" xmlns="http://www.w3.org/2000/svg">
<g filter="url(#filter0_d_876_8929)">
<path d="M9.93056 21.1271C9.93168 21.1271 9.93224 21.1282 9.93336 21.1285C9.93448 21.1285 9.93532 21.1274 9.93672 21.1277L10.1058 21.1551C10.107 21.1554 10.1072 21.1565 10.1084 21.1565C10.1092 21.1568 10.11 21.1559 10.1109 21.1562L10.2764 21.1957C10.2778 21.196 10.278 21.1974 10.2794 21.1979C10.2806 21.1982 10.2817 21.1971 10.2831 21.1977L10.4564 21.2567C10.4572 21.257 10.4575 21.2581 10.4584 21.2584C10.4592 21.2587 10.46 21.2581 10.4612 21.2584L10.6384 21.3335C10.6392 21.3337 10.6395 21.3351 10.6404 21.3354C10.6412 21.336 10.6423 21.3351 10.6432 21.3357L10.8204 21.4264C10.8207 21.4264 10.8207 21.4267 10.8207 21.427C10.821 21.427 10.8212 21.427 10.8215 21.427L10.9988 21.5216C10.9999 21.5222 10.9999 21.5239 11.0013 21.5244C11.0021 21.5253 11.0035 21.5244 11.0046 21.5253L11.1819 21.6434C11.1824 21.6437 11.1822 21.6443 11.1827 21.6448C11.1833 21.6451 11.1838 21.6448 11.1844 21.6451L11.3616 21.7747C11.3622 21.7753 11.3622 21.7761 11.3628 21.7767C11.3633 21.7773 11.3642 21.7767 11.3647 21.7773L11.5378 21.9189C11.5386 21.9195 11.5383 21.9209 11.5392 21.9215C11.54 21.9223 11.5411 21.9217 11.542 21.9226L11.7074 22.0799L11.8766 22.2418C11.8774 22.2426 11.8771 22.2437 11.8777 22.2446C11.8785 22.2451 11.8796 22.2449 11.8802 22.2457L11.9827 22.3594C11.983 22.3597 11.9827 22.3599 11.983 22.3599C11.9832 22.3602 11.9835 22.3602 11.9838 22.3605L12.0824 22.4747C12.0829 22.4753 12.0826 22.4761 12.0829 22.4767C12.0835 22.4773 12.084 22.477 12.0846 22.4775L12.179 22.5996C12.1795 22.6005 12.1792 22.6016 12.1798 22.6021C12.1804 22.603 12.1815 22.603 12.182 22.6038L12.2688 22.734C12.2691 22.7343 12.2688 22.7349 12.2691 22.7351C12.2694 22.7357 12.27 22.7354 12.2702 22.736L12.3531 22.8701C12.3531 22.8704 12.3534 22.8707 12.3534 22.8707L12.4321 23.0003C12.4324 23.0009 12.4321 23.0017 12.4324 23.0023C12.4326 23.0028 12.4335 23.0028 12.4338 23.0034L12.5085 23.1411C12.5085 23.1414 12.5085 23.1417 12.5085 23.142C12.5088 23.1423 12.5091 23.1423 12.5094 23.1425L12.5802 23.2803C12.5808 23.2814 12.5799 23.2828 12.5805 23.2839C12.581 23.2851 12.5822 23.2851 12.5827 23.2862L12.6418 23.4321L12.6421 23.4326L12.709 23.6017C12.709 23.602 12.709 23.6023 12.709 23.6026C12.709 23.6029 12.7096 23.6029 12.7096 23.6031L12.7205 23.6323L12.7356 23.6661L12.7429 23.681L12.76 23.7045C12.7614 23.7065 12.7602 23.7087 12.7614 23.7104C12.7625 23.7121 12.765 23.7123 12.7658 23.7143L12.7787 23.7401L12.7958 23.7636L12.8129 23.7843C12.8134 23.7849 12.8132 23.7857 12.8134 23.7863C12.814 23.7871 12.8151 23.7868 12.8157 23.7877L12.8328 23.8112L12.8515 23.8299L12.8708 23.8493L12.8935 23.8717L12.9109 23.8862L12.9316 23.9002C12.9327 23.9011 12.9327 23.9025 12.9336 23.9033C12.9347 23.9041 12.9361 23.9036 12.9372 23.9044L12.9582 23.9218L12.9753 23.9333L14.0278 24.5381L14.0494 24.5484C14.0496 24.5487 14.0496 24.549 14.0499 24.5493C14.0505 24.5493 14.0508 24.549 14.051 24.5493L14.0706 24.5593L14.0874 24.5658L14.1062 24.5714L14.1098 24.5725C14.111 24.5728 14.1115 24.5742 14.1126 24.5747C14.1138 24.5747 14.1143 24.5739 14.1154 24.5739L14.139 24.5773H14.153H14.1664L14.179 24.5747L14.1866 24.5733L14.1922 24.5697L14.2067 24.5593C14.207 24.5591 14.2073 24.5593 14.2073 24.5591C14.2076 24.5591 14.2076 24.5588 14.2078 24.5585C14.2087 24.5579 14.2098 24.5585 14.2104 24.5579L14.226 24.5423C14.226 24.5423 14.2263 24.5423 14.2263 24.542C14.2266 24.542 14.2266 24.5417 14.2266 24.5417L14.2409 24.5277C14.2417 24.5266 14.2409 24.5252 14.2417 24.5241L14.2969 24.4454C14.2977 24.4443 14.2991 24.4445 14.2997 24.4434C14.3005 24.4426 14.3 24.4412 14.3008 24.4403L14.3638 24.3653C14.3652 24.3636 14.3674 24.3642 14.3688 24.3628C14.3702 24.3614 14.37 24.3591 14.3714 24.3577L14.4383 24.2987C14.4388 24.2981 14.44 24.2984 14.4405 24.2978C14.4411 24.2973 14.4411 24.2964 14.4416 24.2959L14.5125 24.2407C14.5139 24.2396 14.5158 24.2404 14.5172 24.2393C14.5189 24.2382 14.5189 24.2359 14.5206 24.2351L28.3728 16.2419L27.3967 15.6867C27.3958 15.6861 27.3958 15.685 27.395 15.6845C27.3942 15.6839 27.393 15.6842 27.3922 15.6836L27.3687 15.6677C27.3667 15.6663 27.3667 15.6635 27.3648 15.6618C27.3628 15.6601 27.36 15.6609 27.3583 15.659L27.3435 15.6441L27.3256 15.6321C27.3253 15.6318 27.3253 15.6315 27.325 15.6313C27.3244 15.631 27.3239 15.631 27.3233 15.6307L27.2959 15.6111C27.2939 15.6097 27.2939 15.6069 27.2922 15.6052C27.2878 15.601 27.2824 15.5985 27.2788 15.5932L27.2701 15.5803L27.2528 15.5677C27.2497 15.5655 27.25 15.5618 27.2474 15.5593C27.2452 15.5573 27.2416 15.5582 27.2399 15.5557L27.2203 15.5321L27.2007 15.5086C27.1998 15.5078 27.2004 15.5064 27.1996 15.5055C27.199 15.5047 27.1976 15.505 27.197 15.5041L27.178 15.4767C27.1777 15.4767 27.1777 15.4767 27.1777 15.4767L27.1581 15.4493C27.1576 15.4487 27.1581 15.4479 27.1576 15.4473C27.157 15.4465 27.1559 15.4459 27.1553 15.4451L27.1357 15.4134C27.1354 15.4131 27.1357 15.4126 27.1354 15.412C27.1352 15.4117 27.1349 15.4115 27.1346 15.4112L27.1189 15.3837C27.1181 15.3823 27.1192 15.3804 27.1184 15.379C27.1172 15.3767 27.115 15.3759 27.1142 15.3737L27.1041 15.3468L27.0912 15.3244C27.0909 15.3238 27.0912 15.3233 27.0909 15.3227C27.0906 15.3219 27.0895 15.3216 27.0892 15.3207L27.0733 15.2891C27.0727 15.288 27.0736 15.2869 27.073 15.2857C27.0724 15.2843 27.0705 15.2835 27.0699 15.2818L27.0072 15.1093L26.9456 14.9713L26.8809 14.8372L26.8806 14.8369L26.8095 14.6991L26.735 14.5687L26.6457 14.4446C26.6454 14.4443 26.6457 14.4438 26.6454 14.4435C26.6452 14.4429 26.6446 14.4429 26.6443 14.4424L26.5586 14.3139L26.4676 14.1963L26.371 14.084H26.3674L26.2694 13.9745L26.1042 13.8129L25.9351 13.6559L25.7674 13.5187L25.5924 13.3946L25.421 13.2779L25.2482 13.1782L25.0752 13.0933L24.9013 13.0194L24.7389 12.9629L24.5704 12.9245L24.408 12.8982L24.3139 12.8945H24.2226L24.1428 12.9046L24.0577 12.9309L23.9765 12.9589L23.904 13.0026C23.9037 13.0026 23.9034 13.0026 23.9031 13.0029C23.9028 13.0029 23.9028 13.0035 23.9026 13.0037L23.363 13.3106C23.3627 13.3106 23.3627 13.3106 23.3627 13.3106L9.8418 21.1207L9.93056 21.1271Z" fill="#1C62AE"/>
<path d="M15.1027 24.1101C15.1044 24.1101 15.1055 24.112 15.1072 24.1123C15.1089 24.1123 15.1103 24.1109 15.1119 24.1112L15.2892 24.1423C15.29 24.1423 15.2903 24.1434 15.2911 24.1437C15.2923 24.1437 15.2928 24.1428 15.2939 24.1431L15.4712 24.1862C15.4729 24.1865 15.4734 24.1885 15.4748 24.189C15.4762 24.1893 15.4776 24.1882 15.479 24.1887L15.6599 24.2559C15.6605 24.2562 15.6605 24.2568 15.661 24.2571C15.6616 24.2573 15.6624 24.2568 15.663 24.2571L15.8481 24.3357C15.8489 24.336 15.8489 24.3369 15.8495 24.3374C15.8503 24.3377 15.8509 24.3371 15.8514 24.3374L16.0365 24.4276C16.0376 24.4281 16.0379 24.4298 16.039 24.4304C16.0401 24.4309 16.0415 24.4301 16.0427 24.4309L16.2277 24.5452C16.2283 24.5455 16.2283 24.5463 16.2289 24.5469C16.2294 24.5471 16.23 24.5469 16.2305 24.5471L16.4153 24.6734C16.4159 24.6737 16.4159 24.6745 16.4165 24.6751C16.417 24.6757 16.4181 24.6751 16.4187 24.6757L16.6038 24.8173C16.6043 24.8176 16.6041 24.8185 16.6046 24.8187C16.6052 24.8193 16.6057 24.819 16.6063 24.8193L16.746 24.9369L31.1103 16.6441L31.0064 16.5565L30.8289 16.4252L30.6433 16.2972L30.4624 16.1835L30.2863 16.0939L30.1045 16.0167L29.9267 15.9539L29.7543 15.9131L29.5843 15.8862L29.4922 15.8789L29.4031 15.8865C29.4026 15.8865 29.4023 15.8865 29.4017 15.8865L29.3107 15.8935L29.2349 15.9139L29.1595 15.9464L29.0842 15.9875L28.5424 16.3014C28.5424 16.3017 28.5424 16.302 28.5421 16.302L15.0176 24.1064L15.1027 24.1101Z" fill="#1C62AE"/>
<path d="M15.7673 24.8656C15.7665 24.865 15.7654 24.8653 15.7645 24.8647C15.7634 24.8642 15.7634 24.8625 15.7623 24.8617C15.7617 24.8617 15.7612 24.8616 15.7606 24.8614C15.7592 24.8608 15.7589 24.8589 15.7575 24.858C15.7553 24.8572 15.7525 24.8574 15.7505 24.8563L15.7455 24.8538C15.7407 24.853 15.7363 24.8521 15.7318 24.8505C15.7301 24.8507 15.7293 24.8521 15.7279 24.8521C15.7256 24.8521 15.7239 24.8499 15.722 24.8496C15.7203 24.8499 15.7192 24.8516 15.7175 24.8516C15.7167 24.8524 15.7153 24.8524 15.7144 24.8532C15.7125 24.8558 15.7094 24.8575 15.7071 24.8594C15.7046 24.8631 15.7055 24.8678 15.7024 24.8709C15.7018 24.8715 15.7013 24.8712 15.7007 24.8715C15.7004 24.8723 15.7001 24.8729 15.6999 24.8737C15.6999 24.8773 15.7029 24.8801 15.7024 24.884L15.6738 25.059L15.89 24.9364L15.7673 24.8664C15.7676 24.8664 15.7676 24.8659 15.7673 24.8656Z" fill="#1C62AE"/>
<path d="M9.38188 22.1734L9.31552 22.2157L9.2486 22.2599L9.18784 22.3103L9.17188 22.3282L9.49471 22.1406L9.4516 22.1504L9.38188 22.1734Z" fill="#1C62AE"/>
<path d="M7.5374 20.6389L7.5472 20.6619L7.55924 20.686L7.57632 20.7095C7.57772 20.7114 7.5766 20.7137 7.57772 20.7154C7.57884 20.717 7.58136 20.7176 7.58248 20.7196L7.5948 20.7445L7.60852 20.761C7.60908 20.7618 7.6088 20.763 7.60936 20.7638C7.6102 20.7646 7.6116 20.7646 7.61216 20.7655L7.6312 20.7929H7.63148L7.65108 20.8204L7.6634 20.8352L7.68216 20.8509C7.68412 20.8526 7.68356 20.8551 7.68524 20.8568C7.6872 20.8584 7.68972 20.8579 7.69112 20.8598L7.7068 20.8786L7.7208 20.8901L7.7432 20.903C7.74544 20.9041 7.74544 20.9069 7.7474 20.9083C7.74936 20.9097 7.75188 20.9088 7.75328 20.9102L7.77568 20.929H7.77596L7.79164 20.9416L8.8478 21.5478L8.86936 21.559L8.8898 21.5688L8.91444 21.5794H8.915L8.94244 21.5834C8.94328 21.5834 8.94356 21.5845 8.9444 21.5845C8.94524 21.5848 8.9458 21.5839 8.94636 21.5842L8.95896 21.5867H8.97632H8.98976L9.00236 21.5842L9.00572 21.5836L9.00852 21.5814C9.01132 21.5792 9.01524 21.5803 9.01832 21.5786C9.0214 21.5766 9.02224 21.5727 9.0256 21.5716L9.03624 21.5674L9.0438 21.5615L9.0536 21.5481C9.05472 21.5464 9.05724 21.5467 9.05836 21.5453C9.05976 21.5436 9.0592 21.5414 9.0606 21.54L9.0704 21.5302L9.11744 21.4543C9.11856 21.4526 9.1208 21.4526 9.12192 21.4512C9.12276 21.4495 9.1222 21.4476 9.12332 21.4462L9.1824 21.375C9.1838 21.3734 9.18604 21.3739 9.18772 21.3722C9.18884 21.3708 9.18856 21.3689 9.18996 21.3675L9.2608 21.3045C9.26192 21.3036 9.26332 21.3039 9.26444 21.3031C9.26556 21.3022 9.26556 21.3006 9.26668 21.2997L9.3378 21.2488C9.33892 21.2479 9.34032 21.2488 9.34116 21.2479C9.34256 21.2471 9.34256 21.2454 9.34368 21.2448L23.186 13.2508L22.2116 12.6878L22.1912 12.6774C22.1887 12.6763 22.1884 12.6729 22.1862 12.6715C22.1836 12.6698 22.1803 12.6704 22.178 12.6684L22.1576 12.6511L22.1369 12.6371C22.1358 12.6365 22.136 12.6348 22.1349 12.6343C22.1338 12.6334 22.1324 12.6337 22.1313 12.6329L22.1075 12.6133C22.1066 12.6124 22.1066 12.611 22.1058 12.6102C22.105 12.6094 22.1033 12.6096 22.1024 12.6088L22.0789 12.5853L22.0593 12.5657C22.0585 12.5648 22.0588 12.5632 22.0579 12.5623C22.0571 12.5615 22.0557 12.5618 22.0551 12.5609L22.0355 12.5374L22.0159 12.5139C22.0151 12.513 22.0156 12.5116 22.0148 12.5105C22.0134 12.5086 22.0112 12.5077 22.0098 12.5058L21.9918 12.4769L21.9764 12.4584C21.9756 12.4576 21.9762 12.4562 21.9753 12.4551C21.9739 12.4531 21.9717 12.4523 21.9703 12.4503L21.9507 12.4187C21.9507 12.4187 21.9507 12.4178 21.9504 12.4173L21.9498 12.4167L21.9339 12.3893C21.9336 12.3887 21.9339 12.3882 21.9336 12.3876C21.933 12.3865 21.9319 12.3862 21.9314 12.3851L21.9157 12.3534C21.9154 12.3529 21.916 12.3523 21.9157 12.3518C21.9154 12.3512 21.9148 12.3512 21.9146 12.3506L21.9078 12.335L7.53516 20.6333L7.5374 20.6389Z" fill="#1C62AE"/>
<path d="M16.8086 25.3588L31.1628 17.0764V16.7773L16.8086 25.0637V25.3588Z" fill="#1C62AE"/>
<path d="M5.73631 19.4876C5.73715 19.4878 5.73799 19.4873 5.73855 19.4878L6.10871 19.7278C6.11151 19.7298 6.11151 19.7334 6.11403 19.7354C6.11655 19.7373 6.11991 19.7362 6.12187 19.7387L6.12579 19.7429L6.38115 19.94C6.38171 19.9406 6.38171 19.9414 6.38227 19.942C6.38283 19.9423 6.38367 19.942 6.38423 19.9426L6.64407 20.1668C6.64463 20.1674 6.64435 20.1682 6.64491 20.1685C6.64547 20.1691 6.64631 20.1688 6.64687 20.1694L6.74543 20.264C6.74599 20.2646 6.74571 20.2654 6.74627 20.266C6.74683 20.2668 6.74795 20.2665 6.74851 20.2671L6.84315 20.3693L6.84343 20.3696L6.93779 20.4723C6.93863 20.4732 6.93835 20.4746 6.93891 20.4757C6.93975 20.4765 6.94115 20.4765 6.94199 20.4774L7.02879 20.591C7.02907 20.5913 7.02879 20.5922 7.02907 20.5924C7.02935 20.593 7.03019 20.5927 7.03047 20.5933L7.11335 20.7114L7.19959 20.8338C7.20015 20.8344 7.19959 20.8352 7.20015 20.836C7.20043 20.8366 7.20127 20.8366 7.20183 20.8372L7.28051 20.9629C7.28107 20.9637 7.28051 20.9648 7.28107 20.9657C7.28135 20.9665 7.28247 20.9665 7.28303 20.9674L7.34967 21.0925L7.42051 21.2227C7.42107 21.2236 7.42051 21.2244 7.42079 21.2252C7.42135 21.2261 7.42247 21.2264 7.42275 21.2272L7.48183 21.3574V21.3577C7.48183 21.358 7.48211 21.358 7.48211 21.358L7.54119 21.4915C7.54175 21.4926 7.54091 21.4938 7.54119 21.4946C7.54175 21.4957 7.54315 21.496 7.54343 21.4971L7.60251 21.6665C7.60279 21.6671 7.60223 21.6679 7.60251 21.6685C7.60251 21.6693 7.60335 21.6693 7.60363 21.6702L7.60979 21.6917L7.62183 21.7158L7.63499 21.7388C7.63499 21.739 7.63527 21.739 7.63527 21.739L7.65347 21.7684L7.67167 21.7939C7.67307 21.7959 7.67195 21.7981 7.67307 21.7998C7.67419 21.8015 7.67671 21.8018 7.67755 21.8037L7.69155 21.8314L7.69911 21.8432L7.71955 21.8606C7.72123 21.8622 7.72095 21.8648 7.72263 21.8664C7.72403 21.8681 7.72683 21.8678 7.72823 21.8695L7.74699 21.8925L7.77023 21.9194C7.77051 21.9196 7.77023 21.9199 7.77051 21.9202C7.77079 21.9205 7.77107 21.9202 7.77107 21.9205L7.78675 21.9392L7.80075 21.9507L7.82315 21.9636C7.82735 21.9661 7.82791 21.9709 7.83099 21.974C7.83463 21.9768 7.83967 21.9765 7.84275 21.9801L7.84835 21.9866L7.85983 21.9919C7.86123 21.9924 7.86123 21.9941 7.86263 21.9947C7.86375 21.9952 7.86543 21.9944 7.86683 21.9952L8.69787 22.4754C8.69871 22.476 8.69871 22.4771 8.69955 22.4777C8.70039 22.4782 8.70123 22.4777 8.70207 22.4782L8.71719 22.4883L8.73175 22.4931L8.75807 22.5009C8.75891 22.5012 8.75919 22.5023 8.76031 22.5026C8.76143 22.5029 8.76227 22.5023 8.76339 22.5026L8.77627 22.5076L8.79279 22.5104C8.79335 22.5104 8.79363 22.511 8.79391 22.5113C8.79447 22.5113 8.79475 22.511 8.79503 22.511L8.80763 22.5135H8.82107H8.83451L8.84711 22.511L8.85467 22.5096L8.86335 22.504C8.86671 22.502 8.87035 22.5037 8.87371 22.5023L8.88155 22.4945C8.88351 22.4925 8.88659 22.4931 8.88855 22.4914C8.89051 22.4897 8.89023 22.4866 8.89275 22.4852L8.89891 22.481L8.90283 22.4771L8.90927 22.4662L8.91543 22.4536C8.91571 22.4528 8.91683 22.4528 8.91711 22.4522C8.91739 22.4514 8.91711 22.4505 8.91739 22.45L8.96471 22.3674C8.96555 22.366 8.96723 22.366 8.96835 22.3646C8.96891 22.3634 8.96835 22.3618 8.96919 22.3606L9.02407 22.2856C9.02463 22.2848 9.02603 22.2848 9.02659 22.2839C9.02743 22.2828 9.02715 22.2814 9.02799 22.2803L9.08707 22.2136C9.08847 22.212 9.09099 22.2125 9.09239 22.2111C9.09379 22.2094 9.09351 22.2072 9.09519 22.2058L9.16211 22.1506C9.16323 22.1498 9.16491 22.1504 9.16603 22.1495C9.16687 22.1487 9.16687 22.1473 9.16799 22.1464L9.23883 22.0994C9.23911 22.0991 9.23939 22.0994 9.23967 22.0991C9.23995 22.0991 9.23995 22.0988 9.24023 22.0986L9.31527 22.051C9.31807 22.0493 9.32115 22.0507 9.32395 22.0493C9.32703 22.0479 9.32787 22.0445 9.33067 22.0434L9.41327 22.016C9.41439 22.0157 9.41551 22.0165 9.41663 22.0162C9.41803 22.0157 9.41831 22.0143 9.41971 22.014L9.50651 21.9944C9.50735 21.9944 9.50791 21.995 9.50875 21.9947C9.50931 21.9947 9.50959 21.9938 9.51015 21.9938L9.59835 21.9779C9.60059 21.9773 9.60227 21.9796 9.60451 21.9793C9.60675 21.979 9.60815 21.9768 9.61039 21.9768H9.70503C9.70559 21.9768 9.70615 21.9773 9.70671 21.9773C9.70727 21.9773 9.70783 21.9768 9.70839 21.9768L9.79099 21.9807H9.80359C9.80611 21.9807 9.80779 21.9832 9.81003 21.9835C9.81283 21.9838 9.81451 21.9815 9.81703 21.9821L9.91559 22.0017C9.91615 22.0017 9.91615 22.0025 9.91671 22.0025C9.91727 22.0025 9.91783 22.002 9.91839 22.0022L10.1309 22.0538C10.1323 22.054 10.1329 22.0557 10.1343 22.0563C10.1357 22.0566 10.1368 22.0554 10.1382 22.056L10.3471 22.131C10.3476 22.1313 10.3476 22.1319 10.3482 22.1322C10.3487 22.1324 10.3493 22.1319 10.3499 22.1322L10.5741 22.2223C10.5753 22.2226 10.5753 22.224 10.5764 22.2246C10.5775 22.2251 10.5786 22.2243 10.5797 22.2248L10.7962 22.3354C10.7967 22.3357 10.7967 22.3366 10.7973 22.3368C10.7981 22.3371 10.7987 22.3368 10.7993 22.3371L11.0199 22.4628C11.0207 22.4634 11.0207 22.4645 11.0216 22.4651C11.0224 22.4656 11.0235 22.4651 11.0244 22.4656L11.2408 22.6115C11.2411 22.6118 11.2411 22.6124 11.2414 22.6126C11.2419 22.6129 11.2425 22.6126 11.2431 22.6129L11.4595 22.7703C11.4601 22.7706 11.4598 22.7714 11.4603 22.7717C11.4609 22.7722 11.4615 22.772 11.462 22.7722L11.6785 22.9456C11.679 22.9461 11.679 22.947 11.6796 22.9475C11.6801 22.9481 11.6813 22.9478 11.6818 22.9484L11.8943 23.141C11.8949 23.1416 11.8946 23.1424 11.8952 23.143C11.8957 23.1432 11.8963 23.143 11.8969 23.1435L11.9954 23.2421C11.9957 23.2424 11.9954 23.2426 11.9957 23.2429C11.996 23.2432 11.9963 23.2429 11.9965 23.2432L12.0951 23.346C12.0959 23.3468 12.0957 23.3482 12.0962 23.349C12.0971 23.3499 12.0985 23.3499 12.0993 23.3507L12.19 23.4644C12.19 23.4647 12.1903 23.4647 12.1903 23.4647L12.2807 23.5789C12.281 23.5792 12.2807 23.5798 12.281 23.58C12.2813 23.5803 12.2819 23.5803 12.2821 23.5806L12.3726 23.7027C12.3731 23.7035 12.3726 23.7046 12.3734 23.7058C12.3737 23.7063 12.3745 23.7063 12.3751 23.7069L12.4538 23.8295C12.4538 23.8298 12.4538 23.8301 12.4538 23.8301C12.4541 23.8306 12.4546 23.8306 12.4549 23.8309L12.5336 23.9606C12.5341 23.9617 12.5336 23.9628 12.5341 23.9639C12.5347 23.9648 12.5358 23.9648 12.5364 23.9659L12.6027 24.0989C12.6027 24.0992 12.603 24.0992 12.603 24.0992L12.6699 24.2294C12.6702 24.2302 12.6697 24.2308 12.6702 24.2316C12.6705 24.2322 12.6713 24.2324 12.6716 24.233L12.7346 24.3747C12.7349 24.3752 12.7343 24.3758 12.7346 24.3764C12.7349 24.3769 12.7355 24.3769 12.7357 24.3775L12.787 24.5071C12.7873 24.508 12.7867 24.5088 12.787 24.5096C12.7873 24.5105 12.7881 24.5105 12.7884 24.5113L12.841 24.6737L12.8533 24.695C12.855 24.6981 12.8533 24.7014 12.8547 24.7045C12.8559 24.7079 12.8598 24.7093 12.8606 24.7126L12.8662 24.735L12.8771 24.7535C12.8774 24.7544 12.8771 24.7552 12.8774 24.7558C12.878 24.7566 12.8791 24.7569 12.8797 24.7577L12.8925 24.784L12.9091 24.8067C12.9105 24.8087 12.9093 24.8109 12.9105 24.8126C12.9116 24.8143 12.9141 24.8146 12.9149 24.8165L12.9289 24.8442L12.9379 24.8582L12.9569 24.877C12.9595 24.8795 12.9586 24.8829 12.9606 24.8857C12.9628 24.8885 12.9665 24.8888 12.9684 24.8916L12.9785 24.9092L12.9961 24.9246C12.9978 24.926 12.9975 24.9285 12.9989 24.9302C13.0003 24.9316 13.0029 24.9313 13.0043 24.933L13.0199 24.9515L13.0387 24.9672C13.0395 24.968 13.0395 24.9694 13.0404 24.9702C13.0412 24.9711 13.0429 24.9708 13.0437 24.9716L13.0589 24.9868L13.0765 24.9988C13.0785 25.0002 13.0785 25.003 13.0804 25.0047C13.0824 25.0064 13.0852 25.0055 13.0869 25.0075L13.0986 25.0192L13.1126 25.0262C13.1132 25.0265 13.1132 25.0274 13.1137 25.0276C13.1146 25.0279 13.1151 25.0276 13.1157 25.0279L13.8756 25.4611C13.8762 25.4614 13.8762 25.4622 13.8767 25.4625C13.8776 25.463 13.8784 25.4625 13.8793 25.463L13.8983 25.4756L13.9199 25.4849C13.9204 25.4852 13.9204 25.4857 13.921 25.486C13.9213 25.4863 13.9218 25.4857 13.9224 25.486L13.9291 25.4894L13.9462 25.4922C13.949 25.4927 13.9504 25.4955 13.9526 25.4964C13.9554 25.4969 13.9579 25.4952 13.9605 25.4961L13.9733 25.5011L13.9845 25.5031H13.9983H14.0117L14.0173 25.502L14.0321 25.4961C14.0335 25.4955 14.0349 25.4966 14.0363 25.4961C14.0375 25.4958 14.0377 25.4944 14.0389 25.4941L14.0484 25.4913L14.0492 25.491C14.0515 25.488 14.0554 25.4882 14.0582 25.4857C14.0607 25.4832 14.0604 25.4793 14.0635 25.477L14.0747 25.4689L14.0792 25.4644L14.0865 25.4544L14.096 25.4384C14.096 25.4381 14.0963 25.4381 14.0965 25.4381C14.0965 25.4378 14.0963 25.4376 14.0965 25.4373L14.1478 25.3547C14.1478 25.3544 14.1481 25.3544 14.1483 25.3544L14.1957 25.2791C14.1968 25.2771 14.1993 25.2774 14.2007 25.2754C14.2018 25.2738 14.2013 25.2715 14.2027 25.2698L14.2657 25.1993C14.2671 25.1979 14.2693 25.1982 14.2707 25.1968C14.2724 25.1954 14.2721 25.1926 14.2738 25.1912L14.3371 25.1396C14.3379 25.1391 14.3387 25.1394 14.3396 25.1388C14.3399 25.1385 14.3399 25.1377 14.3404 25.1374L14.4113 25.0859C14.4129 25.0845 14.4155 25.0856 14.4171 25.0845C14.4191 25.0834 14.4194 25.0808 14.4213 25.0797L14.5 25.0402C14.5011 25.0397 14.5025 25.0405 14.5037 25.04C14.5051 25.0394 14.5053 25.0377 14.5067 25.0372L14.5893 25.0064C14.5905 25.0058 14.5913 25.0069 14.5924 25.0064C14.5935 25.0061 14.5938 25.0047 14.5949 25.0044L14.6778 24.9809C14.6798 24.9803 14.6812 24.982 14.6831 24.9814C14.6851 24.9812 14.6859 24.9789 14.6879 24.9786L14.7783 24.9666C14.7803 24.9663 14.7814 24.968 14.7834 24.968C14.7851 24.9677 14.7862 24.966 14.7879 24.966H14.8822C14.8828 24.966 14.8831 24.9666 14.8839 24.9666C14.8845 24.9666 14.8847 24.966 14.8856 24.966L14.9685 24.97H14.9808C14.9833 24.97 14.985 24.9725 14.9872 24.9728C14.99 24.973 14.9917 24.9708 14.9942 24.9714L15.0928 24.991C15.0933 24.9912 15.0936 24.9918 15.0945 24.9921C15.095 24.9921 15.0956 24.9915 15.0961 24.9918L15.3325 25.0509C15.3336 25.0512 15.3339 25.0526 15.335 25.0528C15.3361 25.0531 15.3372 25.0523 15.3383 25.0526L15.5282 25.1175L15.5688 24.8686V24.8627C15.5688 24.8591 15.5721 24.8571 15.5727 24.854C15.573 24.8507 15.5702 24.8484 15.571 24.8454L15.5752 24.8294C15.5766 24.8238 15.5819 24.8218 15.5845 24.8171C15.5845 24.8168 15.5845 24.8168 15.5845 24.8165L15.5887 24.8045C15.5892 24.8025 15.5917 24.802 15.5926 24.7997C15.5934 24.7992 15.5929 24.798 15.5937 24.7972L15.5996 24.7913C15.6007 24.7888 15.5993 24.786 15.601 24.7838L15.6088 24.7723C15.6097 24.7709 15.6116 24.7712 15.6125 24.77C15.6133 24.7686 15.6127 24.767 15.6139 24.7656L15.6178 24.7611C15.6186 24.7602 15.62 24.7605 15.6209 24.7597C15.6217 24.7588 15.6211 24.7577 15.622 24.7569L15.6298 24.7493C15.6301 24.749 15.6301 24.7493 15.6304 24.749C15.6307 24.749 15.6304 24.7488 15.6307 24.7485L15.6349 24.7446C15.6365 24.7432 15.6388 24.7437 15.6405 24.7426C15.6419 24.7412 15.6413 24.7392 15.643 24.7381L15.6547 24.73C15.6606 24.7255 15.6682 24.7275 15.6749 24.7252C15.6755 24.725 15.6755 24.7244 15.676 24.7241L15.6839 24.7202C15.6853 24.7194 15.6869 24.7205 15.6883 24.7199C15.6909 24.7196 15.692 24.7171 15.6945 24.7171H15.7054C15.7088 24.7166 15.7107 24.7132 15.7141 24.7132H15.7219H15.7337H15.7455H15.7533C15.7569 24.7132 15.7592 24.7166 15.7625 24.7171H15.7729C15.7757 24.7171 15.7774 24.7196 15.7796 24.7202C15.781 24.7205 15.7821 24.7196 15.7835 24.7202L15.7911 24.7238C15.7959 24.7252 15.8006 24.7227 15.8054 24.7252L15.8202 24.7328L15.8267 24.7362C15.8283 24.737 15.8283 24.739 15.83 24.7398C15.8317 24.7406 15.8331 24.7395 15.8348 24.7406L15.8465 24.7482L15.9888 24.8294C15.9907 24.8305 15.991 24.8333 15.9927 24.8344C15.9935 24.835 15.9947 24.835 15.9952 24.8356C15.9977 24.8372 16.0011 24.8364 16.0033 24.8384C16.0036 24.8386 16.0033 24.8389 16.0036 24.8392C16.0061 24.8412 16.0075 24.8431 16.0095 24.8451C16.0106 24.8462 16.0126 24.8456 16.0137 24.8468L16.0179 24.8507C16.0182 24.851 16.0182 24.8512 16.0182 24.8515C16.0187 24.8521 16.0199 24.8518 16.0204 24.8524C16.0213 24.8532 16.021 24.8549 16.0215 24.8554C16.0252 24.8591 16.0255 24.8638 16.0283 24.868C16.0291 24.8689 16.0308 24.8686 16.0316 24.8694C16.0327 24.8706 16.0327 24.8734 16.0339 24.8748C16.0341 24.875 16.0344 24.875 16.0344 24.875C16.0347 24.8753 16.0344 24.8753 16.0347 24.8756L16.0353 24.8762C16.0375 24.8784 16.0369 24.882 16.0386 24.8843C16.042 24.8896 16.0462 24.8927 16.0479 24.8986C16.0487 24.9005 16.0512 24.9011 16.0521 24.9033L16.0624 24.9336L16.0722 24.9534C16.0739 24.9565 16.0719 24.9599 16.0731 24.963C16.0747 24.9652 16.0745 24.9683 16.0759 24.9705C16.0781 24.9736 16.0823 24.9739 16.084 24.9772L16.0879 24.9848C16.0893 24.9876 16.0876 24.9907 16.0885 24.9938L16.0904 24.9977C16.0913 24.998 16.0915 24.9991 16.0924 24.9996C16.0997 25.0064 16.1092 25.0111 16.1128 25.0204L16.1167 25.024C16.117 25.0243 16.117 25.0248 16.1173 25.0251C16.1176 25.0254 16.1181 25.0254 16.1184 25.0257L16.1324 25.005C16.1341 25.0024 16.1372 25.0027 16.1389 25.0005C16.1403 24.9991 16.1394 24.9963 16.1411 24.9949C16.1414 24.9946 16.1419 24.9946 16.1422 24.9946C16.1428 24.9938 16.1436 24.9935 16.1445 24.9929C16.1453 24.9918 16.1459 24.9904 16.147 24.9893C16.1473 24.989 16.1478 24.9893 16.1478 24.989C16.1537 24.9834 16.1621 24.9831 16.1691 24.98C16.1733 24.9786 16.1761 24.9758 16.1806 24.9753C16.1859 24.9739 16.1893 24.9694 16.1951 24.9694H16.2027H16.2069H16.2077H16.2108H16.2187C16.2287 24.9694 16.236 24.9761 16.2447 24.98C16.2467 24.9806 16.2483 24.9809 16.2503 24.9814C16.2525 24.9823 16.2545 24.9809 16.2565 24.982L16.2643 24.9865C16.2646 24.9868 16.2646 24.9873 16.2651 24.9876C16.2654 24.9876 16.2657 24.9873 16.266 24.9876L16.4788 25.1133C16.4802 25.1142 16.4802 25.1161 16.4816 25.117C16.4827 25.1175 16.4835 25.1186 16.4847 25.1189C16.488 25.1209 16.4917 25.1212 16.4947 25.1234C16.4953 25.124 16.4961 25.124 16.4967 25.1242C16.4984 25.1259 16.5012 25.1254 16.5026 25.127C16.5026 25.127 16.5026 25.1273 16.5029 25.1273C16.5031 25.1279 16.504 25.1276 16.5045 25.1282L16.5085 25.1321C16.511 25.1346 16.5101 25.1382 16.5124 25.141C16.5129 25.1419 16.5129 25.143 16.5135 25.1436C16.516 25.1466 16.5199 25.1469 16.5216 25.1503L16.5258 25.1584C16.5272 25.1609 16.5255 25.1637 16.5264 25.166C16.5306 25.1718 16.5331 25.1777 16.5351 25.1844C16.5351 25.1847 16.5353 25.1847 16.5353 25.1847L16.537 25.1884C16.5379 25.1926 16.5423 25.1954 16.5423 25.1996C16.5423 25.1998 16.5421 25.1998 16.5421 25.2001L16.5905 25.3107C16.5908 25.3116 16.5902 25.3124 16.5905 25.3132C16.5908 25.3135 16.5913 25.3132 16.5916 25.3138C16.5919 25.3138 16.5925 25.3135 16.5927 25.3138L16.6728 25.36V25.0565L16.5208 24.9285L16.3379 24.7885L16.159 24.6662L15.9767 24.5536L15.7984 24.4665C15.7981 24.4665 15.7981 24.4665 15.7981 24.4665L15.613 24.3878L15.4397 24.3234L15.2655 24.2812L15.0981 24.2518L15.0065 24.2476L14.9127 24.252L14.8268 24.2624L14.7498 24.2831L14.6739 24.3159L14.5952 24.3551L14.5314 24.4052L14.4706 24.4584L14.4127 24.5273L14.3595 24.6034L14.3525 24.6141C14.3505 24.6172 14.3471 24.6186 14.3449 24.6208C14.3438 24.6222 14.3443 24.6242 14.3429 24.6256L14.3273 24.641L14.3119 24.6564C14.3102 24.658 14.3074 24.6575 14.3057 24.6592C14.3037 24.6606 14.3043 24.6631 14.3023 24.6645L14.2906 24.6726L14.2757 24.6832C14.2749 24.6841 14.2735 24.6835 14.2724 24.6844C14.2718 24.6849 14.2718 24.6858 14.271 24.6863L14.2514 24.6984C14.2463 24.7017 14.2405 24.7014 14.2349 24.7031C14.2321 24.704 14.2309 24.707 14.2284 24.7076L14.2088 24.7115L14.1892 24.7154C14.1845 24.7166 14.1803 24.7168 14.1758 24.7168H14.1562H14.1366C14.1335 24.7168 14.1304 24.7166 14.1271 24.7163L14.0996 24.7124C14.0991 24.7124 14.0991 24.7118 14.0985 24.7118C14.0965 24.7112 14.0946 24.7112 14.0926 24.711L14.0767 24.707C14.0761 24.707 14.0761 24.7065 14.0755 24.7062C14.0747 24.7062 14.0739 24.7062 14.073 24.7059L14.0453 24.6978C14.0447 24.6975 14.0447 24.697 14.0442 24.697C14.0428 24.6964 14.0411 24.6967 14.0397 24.6961L14.0201 24.6886C14.0193 24.6883 14.019 24.6869 14.0181 24.6866C14.0165 24.686 14.0148 24.6863 14.0134 24.6855L13.991 24.674L13.9677 24.6628C13.9669 24.6625 13.9669 24.6614 13.9663 24.6611C13.9652 24.6606 13.9641 24.6608 13.963 24.6603L12.9077 24.0538C12.9068 24.0532 12.9068 24.0524 12.9063 24.0518C12.9054 24.0513 12.9043 24.0516 12.9035 24.051L12.8799 24.035C12.8788 24.0345 12.8791 24.0328 12.878 24.0322C12.8769 24.0314 12.8755 24.0317 12.8743 24.0308L12.8533 24.0135L12.8326 23.9995C12.8315 23.9986 12.8315 23.9972 12.8307 23.9964C12.8295 23.9956 12.8279 23.9958 12.8267 23.995L12.8032 23.9754C12.8024 23.9748 12.8027 23.9734 12.8018 23.9729C12.801 23.972 12.7996 23.9723 12.7987 23.9715L12.7749 23.948L12.7747 23.9477L12.7551 23.9281L12.7315 23.9046C12.7299 23.9029 12.7304 23.9004 12.729 23.8987C12.7276 23.8973 12.7251 23.8978 12.724 23.8962L12.7044 23.8687L12.6873 23.848C12.6867 23.8474 12.687 23.8463 12.6867 23.8458C12.6862 23.8449 12.6851 23.8452 12.6845 23.8446L12.6649 23.8172C12.6638 23.8158 12.6646 23.8138 12.6638 23.8122C12.6624 23.8102 12.6601 23.8094 12.659 23.8071L12.6461 23.7814L12.6291 23.7578C12.6279 23.7564 12.6288 23.7545 12.6279 23.7528C12.6265 23.7508 12.6243 23.75 12.6232 23.7478L12.6114 23.7242C12.6111 23.7237 12.6114 23.7234 12.6114 23.7228C12.6111 23.7223 12.6103 23.722 12.61 23.7214L12.5941 23.6859C12.5938 23.6853 12.5943 23.6845 12.5941 23.6836C12.5938 23.6828 12.5927 23.6825 12.5924 23.6817L12.5806 23.65L12.5143 23.4823L12.4574 23.3412L12.3871 23.2048L12.3149 23.071L12.2368 22.9425C12.2365 22.9422 12.2365 22.9422 12.2365 22.9422L12.1536 22.8081L12.0693 22.6818L11.9783 22.5642L11.8806 22.4508L11.7818 22.341L11.6132 22.18L11.4491 22.0238L11.2817 21.8869L11.1045 21.7572L10.9334 21.6433L10.7584 21.5498L10.5848 21.461L10.4106 21.3871L10.2446 21.3305L10.0861 21.2927L9.91895 21.2658L9.82711 21.2588L9.73415 21.2661L9.64679 21.2731L9.56895 21.2947L9.49195 21.3258L9.41999 21.3658L9.41915 21.3664L9.35475 21.4126L9.29147 21.4686L9.23435 21.5327L9.18563 21.6111C9.18339 21.6144 9.18003 21.6158 9.17779 21.6186C9.17639 21.62 9.17695 21.6223 9.17555 21.6237L9.16351 21.6357L9.15483 21.6475C9.15343 21.6492 9.15091 21.6486 9.14951 21.65C9.14811 21.652 9.14895 21.6545 9.14727 21.6559L9.13551 21.6674C9.13439 21.6685 9.13243 21.6679 9.13131 21.669C9.12991 21.6702 9.13019 21.6721 9.12879 21.6732L9.11283 21.6853C9.10947 21.6878 9.10555 21.6872 9.10219 21.6889C9.09939 21.6906 9.09883 21.694 9.09603 21.6948L9.08539 21.699L9.07811 21.7049C9.07223 21.7094 9.06523 21.7091 9.05879 21.7113C9.05487 21.713 9.05291 21.7172 9.04899 21.7178L9.02939 21.7217L9.00979 21.7256C9.00503 21.7267 9.00083 21.727 8.99635 21.727H8.97675H8.95295C8.94847 21.727 8.94427 21.7267 8.93951 21.7256L8.92411 21.7225C8.92383 21.7225 8.92383 21.7225 8.92355 21.7225L8.89611 21.7186C8.89555 21.7186 8.89555 21.718 8.89499 21.718C8.89303 21.7175 8.89107 21.7175 8.88911 21.7172L8.87315 21.7133C8.87203 21.713 8.87147 21.7116 8.87035 21.7113C8.86727 21.7105 8.86447 21.7105 8.86167 21.7094L8.83395 21.6973C8.83339 21.697 8.83339 21.6965 8.83311 21.6965C8.83227 21.6962 8.83171 21.6962 8.83115 21.6959L8.80763 21.6844C8.80735 21.6844 8.80735 21.6842 8.80735 21.6842C8.80707 21.6839 8.80679 21.6839 8.80651 21.6839L8.78271 21.6718C8.78215 21.6716 8.78215 21.671 8.78187 21.6707C8.78103 21.6704 8.78019 21.6704 8.77963 21.6702L7.71647 21.0598C7.71479 21.0589 7.71479 21.0567 7.71311 21.0556C7.71115 21.0542 7.70891 21.0547 7.70723 21.0533L7.68763 21.0374C7.68735 21.0371 7.68735 21.0368 7.68735 21.0368C7.68707 21.0365 7.68707 21.0365 7.68679 21.0365L7.66831 21.0208L7.64591 21.008C7.64395 21.0068 7.64395 21.0043 7.64227 21.0032C7.64003 21.0018 7.63751 21.0024 7.63583 21.0007L7.61231 20.9811C7.61035 20.9794 7.61063 20.9766 7.60895 20.9749C7.60755 20.9735 7.60475 20.9741 7.60335 20.9724L7.58795 20.9539L7.56891 20.9382C7.56695 20.9366 7.56723 20.9335 7.56555 20.9321C7.56387 20.9307 7.56107 20.931 7.55967 20.9293L7.54007 20.9058C7.53951 20.9049 7.53979 20.9038 7.53923 20.9032C7.53867 20.9024 7.53727 20.9027 7.53671 20.9018L7.51711 20.8744C7.51711 20.8744 7.51711 20.8741 7.51711 20.8738C7.51683 20.8738 7.51683 20.8738 7.51683 20.8738L7.49835 20.8478L7.48155 20.8279C7.48015 20.8262 7.48099 20.8237 7.47959 20.822C7.47735 20.819 7.47371 20.8173 7.47231 20.8139L7.45943 20.7876L7.44291 20.7649C7.44179 20.7635 7.44263 20.7616 7.44179 20.7599C7.44039 20.7579 7.43815 20.7571 7.43703 20.7548L7.42107 20.7232C7.42079 20.7226 7.42135 20.7221 7.42107 20.7215C7.42051 20.7207 7.41967 20.7204 7.41939 20.7196L7.40763 20.6921C7.40735 20.6916 7.40791 20.691 7.40763 20.6904C7.40735 20.6899 7.40651 20.6896 7.40623 20.6888L7.39615 20.6616L7.38411 20.6409C7.38411 20.6406 7.38383 20.6406 7.38355 20.6403C7.38243 20.6384 7.38355 20.6361 7.38271 20.6344C7.38159 20.6322 7.37907 20.6311 7.37823 20.6286L7.33203 20.4975L7.27463 20.3634L7.27435 20.3631L7.21219 20.2307L7.14331 20.1083L7.06827 19.9781L6.99099 19.8546C6.99099 19.8546 6.99099 19.8546 6.99099 19.8544L6.91063 19.732C6.91063 19.7317 6.91035 19.7317 6.91035 19.7317L6.82999 19.6172L6.73815 19.5133C6.73815 19.5133 6.73815 19.513 6.73787 19.5128L6.64491 19.4083H6.64519L6.54775 19.3028C6.54607 19.3019 6.54411 19.3019 6.54243 19.3008C6.54215 19.3005 6.54215 19.3005 6.54187 19.3005V19.6281C6.54187 19.6348 6.53627 19.6393 6.53459 19.6455C6.53347 19.6525 6.53571 19.6589 6.53235 19.6645C6.53011 19.6682 6.52647 19.6698 6.52423 19.6726C6.52143 19.676 6.51891 19.6782 6.51583 19.6808C6.50295 19.6914 6.48839 19.6987 6.47243 19.6987C6.46011 19.6987 6.44779 19.6956 6.43687 19.6889L6.13755 19.5119C6.13671 19.5114 6.13671 19.5102 6.13559 19.5094C6.13475 19.5091 6.13391 19.5088 6.13307 19.5083C6.13055 19.5074 6.12831 19.5077 6.12607 19.5066L6.11851 19.5027C6.11823 19.5024 6.11823 19.5018 6.11767 19.5018C6.11711 19.5013 6.11627 19.5016 6.11571 19.501C6.11571 19.5007 6.11543 19.501 6.11515 19.5007C6.11487 19.5002 6.11487 19.4996 6.11459 19.4993C6.11431 19.499 6.11375 19.499 6.11347 19.4988L6.10955 19.4957L6.10927 19.4954C6.10871 19.4951 6.10899 19.4943 6.10871 19.494C6.10535 19.4918 6.10115 19.4929 6.09835 19.4898C6.09471 19.4853 6.09499 19.4792 6.09247 19.4741L6.09219 19.4738C6.09163 19.4733 6.09191 19.4722 6.09135 19.4716C6.08771 19.4654 6.08547 19.4604 6.08379 19.4537C6.08295 19.4517 6.08239 19.45 6.08155 19.4478C6.08015 19.4453 6.07707 19.4439 6.07595 19.4411L6.03647 19.3344C6.03647 19.3341 6.03647 19.3341 6.03647 19.3338C6.03647 19.3338 6.03619 19.3338 6.03619 19.3336L6.03311 19.3254L6.03255 19.324C6.03115 19.3224 6.02863 19.3232 6.02751 19.3212L6.01995 19.3095L6.01267 19.2983C6.01183 19.2972 6.01267 19.2958 6.01183 19.2946C6.01099 19.293 6.00903 19.2921 6.00819 19.2904L6.00399 19.2823L6.00259 19.2795L5.99671 19.2708C5.99419 19.268 5.99055 19.2692 5.98831 19.2661L5.98663 19.2636C5.98551 19.2624 5.98355 19.263 5.98243 19.2619L5.97459 19.2543C5.97459 19.2543 5.97459 19.254 5.97431 19.2538L5.96899 19.2512C5.96787 19.2507 5.96759 19.249 5.96647 19.2484C5.96451 19.2476 5.96283 19.2479 5.96087 19.2468L5.94911 19.2392C5.94883 19.2389 5.94883 19.2386 5.94855 19.2384H5.94463H5.94239L5.90823 19.2899C5.90599 19.2932 5.90235 19.2949 5.89983 19.2974C5.89871 19.2988 5.89815 19.3 5.89703 19.3011C5.89563 19.3025 5.89507 19.3039 5.89367 19.3053C5.89255 19.3064 5.89031 19.3061 5.88891 19.3072C5.88107 19.3128 5.87239 19.3159 5.86287 19.3179C5.85727 19.3196 5.85279 19.3249 5.84635 19.3249H5.84215H5.83459H5.83039H5.82647H5.82255C5.81303 19.3249 5.80631 19.3184 5.79819 19.3148C5.79483 19.3137 5.79175 19.314 5.78867 19.3123L5.77803 19.3064C5.77635 19.305 5.77411 19.305 5.77271 19.3036L5.61143 19.214C5.60947 19.2129 5.60947 19.2106 5.60779 19.2095C5.60303 19.2073 5.59911 19.2048 5.59463 19.202C5.59463 19.2017 5.59435 19.2017 5.59435 19.2017C5.59435 19.2017 5.59435 19.2014 5.59407 19.2014C5.59407 19.2011 5.59407 19.2011 5.59407 19.2011C5.59267 19.2 5.58987 19.2003 5.58847 19.1989C5.58847 19.1986 5.58847 19.1986 5.58819 19.1983C5.58651 19.1966 5.58679 19.1938 5.58539 19.1922C5.58399 19.191 5.58259 19.1899 5.58147 19.1882C5.58119 19.188 5.58035 19.188 5.57979 19.1877C5.57923 19.1871 5.57951 19.1866 5.57923 19.186L5.57867 19.1849L5.57783 19.184C5.57783 19.184 5.57783 19.1838 5.57755 19.1838V19.1835C5.57727 19.1832 5.57671 19.1829 5.57643 19.1826C5.57615 19.1821 5.57531 19.1824 5.57475 19.1818C5.56999 19.1759 5.56999 19.1689 5.56691 19.1628C5.56327 19.1594 5.56271 19.1549 5.56019 19.151C5.55795 19.1485 5.55487 19.1471 5.55347 19.1446C5.55291 19.1437 5.55347 19.1429 5.55319 19.142C5.55095 19.1376 5.54955 19.1342 5.54843 19.1294C5.54787 19.128 5.54619 19.1275 5.54591 19.1258L5.54423 19.1191L5.53919 19.1115C5.53723 19.1084 5.53891 19.1054 5.53751 19.1023C5.53555 19.0981 5.53163 19.0964 5.53051 19.0916L5.52799 19.0827L5.52771 19.0818C5.52743 19.0816 5.52771 19.0813 5.52771 19.0807L5.52659 19.0765C5.52603 19.0751 5.52463 19.0746 5.52407 19.0732L5.51987 19.0611C5.51959 19.0606 5.52015 19.0603 5.51987 19.0597C5.51875 19.0586 5.51763 19.0575 5.51651 19.0564C5.51651 19.0561 5.51623 19.0561 5.51623 19.0561L5.50475 19.0443C5.50195 19.0415 5.50279 19.0373 5.50055 19.034C5.49887 19.032 5.49691 19.0298 5.49551 19.0278L5.49355 19.025L5.48655 19.0183C5.48403 19.016 5.48487 19.0124 5.48291 19.0102C5.48123 19.0079 5.47815 19.0088 5.47675 19.0065L5.47395 19.0026C5.47311 19.0023 5.47311 19.0012 5.47227 19.0009C5.46975 19.0001 5.46751 19.0004 5.46555 18.9992L5.45771 18.9953C5.45743 18.9953 5.45743 18.995 5.45743 18.9948C5.45715 18.9948 5.45715 18.9948 5.45687 18.9948L5.44931 18.9908C5.44595 18.9892 5.44567 18.9852 5.44287 18.9836C5.44259 18.9833 5.44259 18.9833 5.44231 18.9833L5.44063 18.9824H5.43671C5.43475 18.9824 5.43363 18.9805 5.43195 18.9805C5.43167 18.9805 5.43139 18.9808 5.43111 18.9808C5.42943 18.9808 5.42775 18.9788 5.42607 18.9785C5.42607 18.9788 5.42607 18.9788 5.42579 18.9788L5.42383 18.9808V19.3086L5.73463 19.4853C5.73575 19.4859 5.73575 19.487 5.73631 19.4876Z" fill="#1C62AE"/>
<path d="M6.7509 19.3129C6.75118 19.3132 6.7509 19.3135 6.75118 19.3138C6.75146 19.314 6.75146 19.3138 6.75174 19.314L6.8461 19.4199C6.84638 19.4202 6.84666 19.4202 6.84666 19.4202L6.94102 19.5268C6.94214 19.528 6.94158 19.5296 6.94242 19.531C6.94354 19.5322 6.94522 19.5319 6.94606 19.5333L7.02894 19.6514C7.02922 19.6517 7.02894 19.6523 7.02922 19.6528C7.0295 19.6531 7.02978 19.6531 7.03006 19.6534L7.11266 19.7791C7.11266 19.7794 7.11266 19.7797 7.11266 19.7797C7.11294 19.78 7.11322 19.78 7.1135 19.7802L7.19218 19.906C7.19246 19.9065 7.19218 19.9068 7.19246 19.9074C7.19274 19.9076 7.1933 19.9076 7.19358 19.9082L7.26862 20.0384C7.26862 20.0387 7.2689 20.039 7.2689 20.039L7.33974 20.1647C7.3403 20.1655 7.33974 20.1666 7.34002 20.1675C7.34058 20.1683 7.3417 20.1686 7.34226 20.1694L7.40526 20.3036C7.40554 20.3041 7.40498 20.3047 7.40526 20.305C7.40554 20.3055 7.40582 20.3055 7.4061 20.3058L7.46518 20.4436C7.46546 20.4444 7.4649 20.4452 7.46518 20.4461C7.46546 20.4469 7.46658 20.4472 7.46686 20.448L7.4859 20.5024L21.8555 12.2071L21.8258 12.1301L21.7718 11.9946L21.7102 11.8638L21.641 11.7412L21.6407 11.7409L21.566 11.6068L21.4907 11.49H21.4901L21.4072 11.3679C21.4072 11.3679 21.4072 11.3676 21.4072 11.3674L21.3243 11.2548L21.2361 11.1467C21.2359 11.1467 21.2359 11.1467 21.2359 11.1467L21.1373 11.0364C21.137 11.0361 21.1373 11.0361 21.137 11.0358L21.0516 10.939C21.0477 10.9364 21.0429 10.9373 21.0393 10.9339L21.0351 10.93C21.0348 10.9297 21.0348 10.9292 21.0345 10.9289C21.0343 10.9286 21.0337 10.9286 21.0334 10.9283L21.0312 10.9258L21.0298 10.9255C21.0261 10.9244 21.025 10.9205 21.0222 10.9191C21.0214 10.9185 21.0203 10.9188 21.0197 10.918L20.6733 11.1165C20.6731 11.1165 20.6731 11.1168 20.6731 11.1168L6.6543 19.2079L6.7509 19.3129Z" fill="#1C62AE"/>
<path d="M5.56921 18.9039C5.57537 18.9087 5.58377 18.9098 5.58825 18.9168C5.58965 18.9188 5.58853 18.9216 5.58965 18.9235C5.59161 18.9252 5.59441 18.9247 5.59581 18.9263C5.59945 18.93 5.59889 18.9356 5.60141 18.9398C5.60337 18.9417 5.60505 18.9434 5.60645 18.9454L5.60757 18.9459C5.60757 18.9459 5.60785 18.9471 5.60841 18.9476C5.61177 18.9529 5.61793 18.9549 5.62017 18.9613V18.9622C5.62381 18.9644 5.62493 18.9686 5.62801 18.9714C5.62857 18.9725 5.63025 18.9725 5.63109 18.9739C5.63137 18.9745 5.63109 18.9753 5.63137 18.9762C5.64005 18.9849 5.64957 18.9933 5.65293 19.0059C5.65321 19.0064 5.65265 19.007 5.65265 19.0075L20.0234 10.7086C20.0228 10.7067 20.0206 10.7061 20.02 10.7039L20.0192 10.7016L20.0172 10.6985V10.6977L20.0164 10.6974L20.0085 10.6854C20.0074 10.6834 20.0085 10.6812 20.0074 10.6795C20.006 10.6784 20.0041 10.6789 20.0027 10.6775L19.9948 10.67C19.992 10.6672 19.9926 10.663 19.9903 10.6599C19.9881 10.6571 19.9859 10.6546 19.9842 10.6518L19.9786 10.6462L19.9783 10.6453C19.9777 10.6451 19.9772 10.6448 19.9772 10.6448L19.9693 10.6367C19.9682 10.6355 19.9688 10.6336 19.9677 10.6325L19.9626 10.6308C19.9604 10.6299 19.9598 10.6274 19.9579 10.6266C19.9537 10.6252 19.9497 10.6255 19.9458 10.6229L19.9346 10.6157L19.9332 10.6151L19.9324 10.6145H19.9287C19.9282 10.6145 19.9279 10.614 19.9273 10.614L19.9265 10.6143C19.9237 10.6143 19.9209 10.6126 19.9184 10.6123C19.9161 10.6129 19.9139 10.6131 19.9122 10.6134L19.9105 10.6143L5.56445 18.8981C5.56557 18.8995 5.56753 18.8992 5.56865 18.9009C5.56921 18.9017 5.56865 18.9031 5.56921 18.9039Z" fill="#1C62AE"/>
<path d="M5.82341 19.1696L5.83433 19.1531C5.83797 19.1475 5.84469 19.1472 5.84945 19.143C5.85169 19.1396 5.85057 19.1357 5.85337 19.1326C5.85449 19.1315 5.85645 19.1318 5.85757 19.1307C5.85869 19.1295 5.85813 19.1276 5.85925 19.1265C5.86009 19.1256 5.86121 19.1259 5.86205 19.1253C5.86653 19.1206 5.87241 19.1197 5.87801 19.1167C5.87969 19.1153 5.87997 19.1125 5.88193 19.1113L20.1546 10.8729L20.1079 10.8463C20.1054 10.8449 20.1051 10.8415 20.1028 10.8401C20.0978 10.8379 20.0922 10.8373 20.088 10.834L5.73633 19.1214L5.82341 19.1696Z" fill="#1C62AE"/>
<path d="M6.07757 19.1622C6.08457 19.1672 6.09381 19.1686 6.09885 19.1767C6.09997 19.1784 6.09913 19.1809 6.10025 19.1826C6.10473 19.1868 6.11117 19.1874 6.11481 19.1924C6.11705 19.1958 6.11565 19.2 6.11733 19.2036C6.12013 19.207 6.12489 19.2078 6.12685 19.2117C6.12769 19.2131 6.12657 19.2151 6.12713 19.2165C6.12825 19.2179 6.12993 19.2182 6.13077 19.2196C6.13133 19.2204 6.13049 19.2215 6.13105 19.2227C6.13189 19.2241 6.13133 19.2263 6.13217 19.228C6.13385 19.2299 6.13721 19.2299 6.13833 19.2322C6.14001 19.2347 6.13889 19.2381 6.14029 19.2406C6.14141 19.242 6.14141 19.2442 6.14253 19.2456C6.14813 19.2512 6.15569 19.2535 6.15933 19.261C6.16045 19.2635 6.15905 19.2663 6.15989 19.2689C6.16129 19.2717 6.16465 19.2722 6.16577 19.275C6.16661 19.277 6.16493 19.2792 6.16549 19.2812C6.16661 19.2831 6.16885 19.2837 6.16969 19.2857L6.20861 19.3912C6.20917 19.3915 6.21001 19.3912 6.21057 19.3915L6.40405 19.506V19.2313C6.40405 19.228 6.40713 19.2257 6.40769 19.2227C6.40881 19.2137 6.41301 19.207 6.41749 19.1989C6.42225 19.191 6.42561 19.184 6.43317 19.1784C6.43597 19.1765 6.43597 19.1725 6.43905 19.1711L6.45865 19.1597C6.46033 19.1585 6.46229 19.1597 6.46397 19.1588C6.46537 19.158 6.46537 19.1557 6.46705 19.1549L20.5502 11.0271L20.5306 10.9725L20.5287 10.9685C20.5278 10.9666 20.5289 10.9646 20.5281 10.9627C20.527 10.9601 20.5245 10.9593 20.5236 10.9568L20.5228 10.9545L20.5208 10.9515C20.5197 10.9501 20.5205 10.9481 20.5197 10.9467C20.5183 10.9445 20.5161 10.9436 20.5149 10.9411L20.5127 10.9363L20.5088 10.9293L20.5049 10.9235L20.499 10.9151C20.4931 10.9117 20.49 10.9058 20.4855 10.9002C20.4797 10.8971 20.4757 10.8918 20.4713 10.8865L20.462 10.8834C20.4575 10.882 20.4561 10.8775 20.4525 10.8753C20.4517 10.8747 20.4505 10.875 20.4497 10.8742L20.4472 10.8717C20.4472 10.8717 20.4463 10.8714 20.4458 10.8711H20.4441H20.4363H20.4321H20.4293L20.331 10.9319C20.3304 10.9321 20.3296 10.9321 20.3296 10.9321L20.329 10.933L6.07617 19.1599C6.07701 19.1605 6.07673 19.1613 6.07757 19.1622Z" fill="#1C62AE"/>
<path d="M14.5613 25.1656L14.4896 25.2014L14.4272 25.2468L14.4269 25.2471L14.367 25.2961L14.3457 25.3196L14.6789 25.125L14.6383 25.1365L14.5613 25.1656Z" fill="#1C62AE"/>
</g>
<defs>
<filter id="filter0_d_876_8929" x="-4" y="-5" width="50" height="50" filterUnits="userSpaceOnUse" color-interpolation-filters="sRGB">
<feFlood flood-opacity="0" result="BackgroundImageFix"/>
<feColorMatrix in="SourceAlpha" type="matrix" values="0 0 0 0 0 0 0 0 0 0 0 0 0 0 0 0 0 0 127 0" result="hardAlpha"/>
<feOffset dx="2" dy="2"/>
<feGaussianBlur stdDeviation="3.5"/>
<feComposite in2="hardAlpha" operator="out"/>
<feColorMatrix type="matrix" values="0 0 0 0 0.555 0 0 0 0 0.555 0 0 0 0 0.555 0 0 0 0.18 0"/>
<feBlend mode="normal" in2="BackgroundImageFix" result="effect1_dropShadow_876_8929"/>
<feBlend mode="normal" in="SourceGraphic" in2="effect1_dropShadow_876_8929" result="shape"/>
</filter>
</defs>
</svg>
