<svg width="38" height="50" fill="none" xmlns="http://www.w3.org/2000/svg"><path d="M4.796.365C2.703.365 1 2.05 1 4.121v41.357c0 2.072 1.703 3.756 3.796 3.756h28.407c2.094 0 3.797-1.684 3.797-3.756V14.242a.935.935 0 00-.265-.652L24.185.653a.951.951 0 00-.683-.288H4.796zm0 1.88h17.046v12.217c0 .52.424.94.948.94h12.315v30.076c0 1.035-.853 1.877-1.901 1.877H4.796c-1.048 0-1.901-.842-1.901-1.877V4.121c0-1.034.853-1.876 1.901-1.876zm18.94.658l10.304 10.62H23.737V2.902zM18.616 14.39a3.125 3.125 0 00-.792.1c-.742.184-1.937.903-1.596 3.651.151 1.214.6 2.76 1.263 4.426a193.31 193.31 0 01-1.145 3.41c-.369 1.076-.75 2.187-1.089 3.234-.272.84-.521 1.635-.757 2.386-.33 1.053-.63 2.006-.923 2.87-5.065 2.853-7.088 5.324-7.212 6.844-.05.618.193 1.154.667 1.472.238.16.58.295 1.055.295.477 0 1.088-.137 1.864-.521 2.734-1.356 4.025-3.599 5.176-6.794a54.863 54.863 0 013.324-1.652c1.969-.901 3.646-1.458 5.054-1.785 1.63 1.697 3.353 2.812 4.97 2.812 1.759 0 3-.577 3.403-1.582.298-.741.07-1.565-.608-2.204-.965-.908-2.681-1.373-4.83-1.312-.713.02-1.467.1-2.255.238-1.785-2.126-3.519-5.078-4.683-7.795 1.193-3.821 1.63-6.318.541-7.49-.272-.293-.722-.594-1.427-.603zm-.014 1.878c.032 0 .048.002.05 0 .033.041.379.543-.243 3.129a11.283 11.283 0 01-.3-1.486c-.14-1.128.061-1.57.174-1.597.161-.04.264-.046.319-.046zm.036 8.852c.98 1.969 2.186 3.948 3.5 5.623a30.231 30.231 0 00-4.481 1.662 62.27 62.27 0 00-1.677.797l.33-1.047c.233-.745.48-1.534.751-2.369.335-1.032.713-2.136 1.079-3.203l.498-1.462zm7.95 6.797c1.7-.027 2.628.35 2.914.491.403.2.558.394.599.473-.102.11-.542.377-1.626.377-.806 0-1.72-.488-2.664-1.303.275-.022.534-.034.777-.038zm-14.172 5.46c-.803 1.615-1.775 2.736-3.312 3.498a3.434 3.434 0 01-.762.288c.29-.632 1.353-1.99 4.074-3.785z" fill="#2D2D2D"/></svg>