<svg width="66" height="66" fill="none" xmlns="http://www.w3.org/2000/svg"><path d="M42.877 24.577a12.908 12.908 0 012.678 6.544.815.815 0 00.807.725l8.183.035a.817.817 0 00.816-.87A22.486 22.486 0 0049.94 17.79a.815.815 0 00-.586-.284h-.03a.814.814 0 00-.576.236l-5.804 5.754a.815.815 0 00-.067 1.081zM34.108 19.643c2.39.3 4.64 1.255 6.508 2.764a.815.815 0 001.083-.053l5.839-5.733a.817.817 0 00-.033-1.193A22.486 22.486 0 0034.35 9.85a.815.815 0 00-.616.21l-.02.021a.814.814 0 00-.245.574l-.074 8.172a.815.815 0 00.713.816zM54.538 33.51l-8.183-.035a.815.815 0 00-.812.718 12.908 12.908 0 01-2.735 6.52.815.815 0 00.058 1.082l5.753 5.804c.16.16.368.252.605.24a.815.815 0 00.588-.278 22.486 22.486 0 005.535-13.173.815.815 0 00-.809-.877zM34.192 55.361a22.491 22.491 0 0013.22-5.42.813.813 0 00.048-1.193l-5.753-5.803a.813.813 0 00-1.082-.068 12.902 12.902 0 01-6.543 2.678.815.815 0 00-.725.807l-.035 8.183a.814.814 0 00.87.817zM31.006 45.563a12.51 12.51 0 01-6.335-2.61.79.79 0 00-1.05.061l-5.598 5.617a.792.792 0 00.044 1.156 21.792 21.792 0 0012.807 5.269.79.79 0 00.594-.21.757.757 0 00.25-.58l-.012-7.92a.79.79 0 00-.7-.783zm-.868 7.84a20.188 20.188 0 01-10.385-4.27l4.503-4.518a14.083 14.083 0 005.871 2.42l.011 6.368zM16.375 47.1l5.599-5.617a.79.79 0 00.058-1.05 12.51 12.51 0 01-2.631-6.327.79.79 0 00-.786-.697l-7.92.013a.79.79 0 00-.558.232l-.02.02a.79.79 0 00-.208.596 21.793 21.793 0 005.31 12.79.79.79 0 001.156.04zM11.563 35l6.369-.01a14.084 14.084 0 002.439 5.863l-4.503 4.518a20.188 20.188 0 01-4.305-10.37zM18.633 31.658a.79.79 0 00.784-.7 12.501 12.501 0 012.61-6.335.79.79 0 00-.061-1.05l-5.617-5.598a.79.79 0 00-1.156.044 21.794 21.794 0 00-5.269 12.806.788.788 0 00.79.846l7.92-.013zm-2.786-11.952l4.517 4.502a14.081 14.081 0 00-2.42 5.872l-6.368.01a20.187 20.187 0 014.27-10.384zM23.522 21.902a.79.79 0 001.049.063 12.502 12.502 0 016.335-2.61.79.79 0 00.7-.783l.017-7.931a.79.79 0 00-.845-.79 21.793 21.793 0 00-12.8 5.284.788.788 0 00-.045 1.155l5.589 5.612zm6.52-10.398l-.014 6.378a14.082 14.082 0 00-5.871 2.42l-4.493-4.513a20.186 20.186 0 0110.377-4.285z" fill="#1C62AE"/></svg>