<svg width="64" height="66" fill="none" xmlns="http://www.w3.org/2000/svg"><path d="M21.642 39.416a12.51 12.51 0 01-2.619-6.333.79.79 0 00-.784-.7l-7.93-.006a.792.792 0 00-.788.846 21.793 21.793 0 005.299 12.795.79.79 0 00.568.273.757.757 0 00.587-.23l5.605-5.597a.79.79 0 00.062-1.048zm-6.17 4.915a20.188 20.188 0 01-4.298-10.374l6.378.005c.351 2.115 1.18 4.12 2.426 5.869l-4.506 4.5zM10.31 30.797l7.93.007a.79.79 0 00.785-.699 12.51 12.51 0 012.629-6.328.79.79 0 00-.06-1.049l-5.596-5.605a.79.79 0 00-.558-.232h-.029a.79.79 0 00-.569.273 21.793 21.793 0 00-5.32 12.786.79.79 0 00.787.847zm5.182-11.945l4.499 4.507a14.084 14.084 0 00-2.436 5.864l-6.378-.005a20.189 20.189 0 014.315-10.366zM22.715 21.611a.79.79 0 001.05.062 12.501 12.501 0 016.33-2.618.79.79 0 00.7-.784l.007-7.93a.79.79 0 00-.846-.79 21.794 21.794 0 00-12.794 5.3.788.788 0 00-.043 1.155l5.596 5.605zm6.507-10.406l-.005 6.379a14.083 14.083 0 00-5.869 2.426l-4.499-4.507a20.186 20.186 0 0110.373-4.298zM32.307 44.848a.79.79 0 01.703-.781 12.501 12.501 0 006.343-2.59.79.79 0 011.05.066l5.58 5.636a.79.79 0 01-.048 1.156A21.793 21.793 0 0133.11 53.56a.788.788 0 01-.842-.792l.04-7.92zm11.943 2.827l-4.488-4.533a14.083 14.083 0 01-5.879 2.4l-.031 6.368a20.186 20.186 0 0010.398-4.235zM41.506 23.794a12.51 12.51 0 012.619 6.332.79.79 0 00.783.7l7.931.007a.792.792 0 00.788-.847 21.793 21.793 0 00-5.299-12.794.79.79 0 00-.568-.273h-.028c-.21 0-.41.082-.56.23l-5.604 5.596a.79.79 0 00-.062 1.049zM39.373 21.651a12.51 12.51 0 00-6.32-2.649.79.79 0 01-.696-.787l.032-7.93a.792.792 0 01.85-.785 21.793 21.793 0 0112.77 5.362.79.79 0 01.27.57v.028a.79.79 0 01-.234.557l-5.623 5.578a.79.79 0 01-1.05.056zM52.839 32.412l-7.93-.006a.79.79 0 00-.786.698 12.51 12.51 0 01-2.629 6.328.79.79 0 00.06 1.05l5.596 5.604a.79.79 0 001.156-.04 21.794 21.794 0 005.32-12.786.79.79 0 00-.787-.848zM30.075 44.153a12.506 12.506 0 01-6.328-2.628.79.79 0 00-1.05.06l-5.604 5.596a.787.787 0 00.04 1.155 21.8 21.8 0 0012.786 5.32.79.79 0 00.847-.787l.007-7.93a.79.79 0 00-.698-.786zm-.888 7.848a20.192 20.192 0 01-10.366-4.314l4.507-4.5a14.085 14.085 0 005.864 2.436l-.005 6.378z" fill="#1C62AE"/></svg>