<svg width="66" height="66" fill="none" xmlns="http://www.w3.org/2000/svg"><path d="M42.877 24.578a12.908 12.908 0 012.678 6.543.815.815 0 00.807.725l8.183.035a.817.817 0 00.816-.87 22.486 22.486 0 00-5.421-13.22.815.815 0 00-1.192-.049l-5.804 5.754a.815.815 0 00-.067 1.082zM54.538 33.51l-8.183-.035a.815.815 0 00-.812.718 12.907 12.907 0 01-2.735 6.52.815.815 0 00.058 1.083l5.753 5.803c.16.161.368.252.605.24a.815.815 0 00.588-.277 22.486 22.486 0 005.535-13.174.815.815 0 00-.809-.877zM34.192 55.361a22.491 22.491 0 0013.22-5.42.813.813 0 00.048-1.193l-5.753-5.803a.813.813 0 00-1.082-.068 12.902 12.902 0 01-6.543 2.678.815.815 0 00-.725.807l-.035 8.183a.814.814 0 00.87.817zM10.698 33.51l8.183-.035a.815.815 0 01.813.718 12.907 12.907 0 002.735 6.52.815.815 0 01-.058 1.083l-5.754 5.803a.785.785 0 01-.605.24.815.815 0 01-.587-.277 22.486 22.486 0 01-5.536-13.174.815.815 0 01.81-.877zM31.044 55.361a22.491 22.491 0 01-13.22-5.42.814.814 0 01-.048-1.193l5.753-5.803a.813.813 0 011.083-.068 12.903 12.903 0 006.543 2.678c.41.046.723.393.724.807l.036 8.183a.813.813 0 01-.87.817zM34.282 19.475A12.674 12.674 0 0140.7 22.12a.8.8 0 001.063-.063l5.672-5.69a.802.802 0 00-.044-1.171 22.079 22.079 0 00-12.975-5.338.8.8 0 00-.602.213l-.021.02a.8.8 0 00-.233.566l.013 8.024a.8.8 0 00.709.794zM31.218 19.475A12.674 12.674 0 0024.8 22.12a.8.8 0 01-1.063-.063l-5.672-5.69a.802.802 0 01.044-1.171c3.657-3.154 8.144-5 12.975-5.338a.8.8 0 01.602.213l.021.02a.8.8 0 01.233.566l-.013 8.024a.8.8 0 01-.709.794zM22.164 24.537a12.675 12.675 0 00-2.637 6.422.8.8 0 01-.792.711l-8.035.027a.802.802 0 01-.8-.855 22.078 22.078 0 015.335-12.976.8.8 0 01.575-.278h.029a.8.8 0 01.567.232l5.692 5.655a.8.8 0 01.066 1.062z" fill="#1C62AE"/></svg>