<svg width="66" height="66" fill="none" xmlns="http://www.w3.org/2000/svg"><path d="M42.877 24.578a12.908 12.908 0 012.678 6.543.815.815 0 00.807.725l8.183.035a.817.817 0 00.816-.87 22.486 22.486 0 00-5.421-13.22.815.815 0 00-1.192-.049l-5.804 5.754a.815.815 0 00-.067 1.082zM54.538 33.51l-8.183-.035a.815.815 0 00-.812.718 12.907 12.907 0 01-2.735 6.52.815.815 0 00.058 1.083l5.753 5.803c.16.161.368.252.605.24a.815.815 0 00.588-.277 22.486 22.486 0 005.535-13.174.815.815 0 00-.809-.877zM34.192 55.361a22.491 22.491 0 0013.22-5.42.813.813 0 00.048-1.193l-5.753-5.803a.813.813 0 00-1.082-.068 12.902 12.902 0 01-6.543 2.678.815.815 0 00-.725.807l-.035 8.183a.814.814 0 00.87.817zM10.698 33.51l8.183-.035a.815.815 0 01.813.718 12.907 12.907 0 002.735 6.52.815.815 0 01-.058 1.083l-5.754 5.803a.785.785 0 01-.605.24.815.815 0 01-.587-.277 22.486 22.486 0 01-5.536-13.174.815.815 0 01.81-.877zM31.044 55.361a22.491 22.491 0 01-13.22-5.42.814.814 0 01-.048-1.193l5.753-5.803a.813.813 0 011.083-.068 12.903 12.903 0 006.543 2.678c.41.046.723.393.724.807l.036 8.183a.813.813 0 01-.87.817zM18.633 31.658a.79.79 0 00.784-.7 12.501 12.501 0 012.61-6.335.79.79 0 00-.061-1.05l-5.617-5.598a.79.79 0 00-1.156.044 21.794 21.794 0 00-5.269 12.806.788.788 0 00.79.846l7.92-.013zm-2.786-11.952l4.517 4.502a14.081 14.081 0 00-2.42 5.872l-6.368.01a20.187 20.187 0 014.27-10.384zM23.522 21.902a.79.79 0 001.049.063 12.502 12.502 0 016.335-2.61.79.79 0 00.7-.783l.017-7.931a.79.79 0 00-.845-.79 21.793 21.793 0 00-12.8 5.284.788.788 0 00-.045 1.155l5.589 5.612zm6.52-10.398l-.014 6.378a14.082 14.082 0 00-5.871 2.42l-4.493-4.513a20.186 20.186 0 0110.377-4.285zM34.1 19.693c2.39.3 4.64 1.255 6.508 2.764a.815.815 0 001.083-.053l5.839-5.733a.817.817 0 00-.032-1.193A22.486 22.486 0 0034.342 9.9a.815.815 0 00-.615.21l-.022.021a.814.814 0 00-.243.574l-.075 8.172a.815.815 0 00.713.816z" fill="#1C62AE"/></svg>