<svg width="29" height="37" viewBox="0 0 29 37" fill="none" xmlns="http://www.w3.org/2000/svg">
<path d="M14.5 2.3125C8.11678 2.3125 2.9375 6.97436 2.9375 12.7188C2.9375 21.9688 14.5 34.6875 14.5 34.6875C14.5 34.6875 26.0625 21.9688 26.0625 12.7188C26.0625 6.97436 20.8832 2.3125 14.5 2.3125ZM14.5 18.5C13.5853 18.5 12.6911 18.2287 11.9305 17.7205C11.1699 17.2123 10.5771 16.49 10.2271 15.6449C9.877 14.7998 9.78541 13.8699 9.96387 12.9727C10.1423 12.0755 10.5828 11.2514 11.2296 10.6046C11.8764 9.95781 12.7005 9.51732 13.5977 9.33887C14.4949 9.16041 15.4248 9.252 16.2699 9.60206C17.115 9.95211 17.8373 10.5449 18.3455 11.3055C18.8537 12.0661 19.125 12.9603 19.125 13.875C19.1237 15.1012 18.636 16.2768 17.7689 17.1439C16.9018 18.011 15.7262 18.4987 14.5 18.5Z" fill="#1C62AE"/>
</svg>
