<svg width="36" height="36" fill="none" xmlns="http://www.w3.org/2000/svg"><g clip-path="url(#clip0_938_14812)"><path d="M18.549 8.394c-3.16.034-2.636 1.618-3.191 1.821-1.624.555-1.583 2.9-1.51 2.814.669.04 1.086-.27 1.526-.755.44-.484.858-1.138 1.428-1.681.145-.117.249-.047.377.016 1.165 1.403 3.905 1.966 5.98 1.985-.294-2.143-1.357-4.235-4.61-4.2zm-1.55 2.764c-.429.456-.801.995-1.231 1.469-.625.42-1.322.926-1.952.927-.377-.008-.566.454-.566.878 0 .525.525 1.28.787 1.28v-.066c.564 2.373 2.192 4.796 4.504 4.823 2.299.027 3.96-2.412 4.52-4.79.276-.145.689-.784.689-1.247 0-.4-.167-.829-.5-.87-.007-.147-.021-.294-.034-.443-2.066-.007-4.768-.475-6.218-1.96zm-2.043 9.32c-.53.214-1.08.417-1.624.614l1.927 2.888c.135.2.106.494-.065.665l-.714.713 2.198 3.249h.673l-2.395-8.13zm7.08.016l-2.388 8.113h.673l2.198-3.249-.713-.713a.542.542 0 01-.066-.665l1.903-2.855a62.548 62.548 0 00-1.608-.631zm-1.223.418c-1.14 1.349-3.325 1.419-4.57.205l2.2 7.49h.114l2.256-7.695zm-8.49.55c-.867.317-1.603.606-1.96.845-.47.37-.92 1.05-1.182 1.837l-1.05 4.463h7.268l-2.034-2.953a.543.543 0 01.04-.698l.747-.746-1.83-2.748zm12.304.074l-1.78 2.674.747.746c.18.18.199.498.04.698L21.6 28.607h7.268l-1.05-4.463c-.262-.787-.918-1.575-1.443-1.837a42.236 42.236 0 00-1.748-.771z" fill="#1C62AE"/></g><defs><clipPath id="clip0_938_14812"><path fill="#fff" transform="translate(8 8)" d="M0 0h21v21H0z"/></clipPath></defs></svg>