<svg width="66" height="66" fill="none" xmlns="http://www.w3.org/2000/svg"><g filter="url(#filter0_d_938_14808)"><rect x="15" y="15" width="36" height="36" rx="5" fill="#fff"/><path d="M36.06 23.375c-1.08.54-4.487.534-4.707.557-3.113-.016-3.89 2.276-3.932 5.375.182-1.5.82-2.82 2.261-3.274a5.783 5.783 0 011.62-.228c.164.044.32.108.456.152.426.072.826.053 1.24 0 .156-.044.33-.105.464-.152.286 0 .955.023 1.645.228 1.94.692 2.236 2.483 2.253 4.092a.277.277 0 01-.27.27.277.277 0 01-.27-.27c.007-1.58-.344-3.11-1.864-3.578a5.588 5.588 0 00-1.494-.202c-.103.049-.273.107-.371.143-.49.087-.958.06-1.426 0-.14-.024-.248-.088-.363-.143-.254 0-.868.023-1.46.203-1.615.582-1.915 2.306-1.932 3.577a.277.277 0 01-.27.27.277.277 0 01-.27-.27c0-.141.01-.273.017-.405-.21.068-.287.333-.287.675 0 .464.513 1.213.827 1.418.423 1.303 1.067 2.699 1.84 3.771l-.355 1.249-.397.169.853 2.489 1.46.936c.204-.384.4-.795.615-1.164l-1.519-2.025.195-.675c.557.524 1.155.852 1.763.852.928-.004 1.38-.564 1.94-1.063l.245.869-1.73 2.076c.2.36.38.748.566 1.122l1.662-1.038.827-2.464c-.106-.041-.216-.087-.32-.126l-.389-1.367c.919-1.185 1.51-2.614 1.79-3.552.267 0 .927-.937.927-1.477 0-.455-.099-.788-.506-.683.005-.042.013-.086.017-.127-.032-3.97-.229-5.088-1.35-6.21zm-5.534 6.21c.435 0 .819.067 1.122.287.245.177.4.451.464.793h.565c.064-.341.22-.616.465-.793.303-.22.695-.287 1.13-.287.825.003 1.28.038 1.595.295.266.323.3.717.295 1.063-.004.52-.372.879-.76 1.072-.388.194-.815.27-1.13.27-.44 0-.838-.067-1.147-.287-.244-.173-.4-.455-.456-.793h-.54c-.057.338-.22.62-.464.793-.31.22-.698.287-1.14.287a2.67 2.67 0 01-1.138-.27c-.387-.193-.747-.551-.751-1.072-.014-.196.006-.399.017-.565.03-.18.112-.37.27-.498.315-.256.778-.292 1.603-.295zm6.362 7.746l-2.27 6.294h2.422l.75-5.746c.11.073-.621-.43-.902-.548zm-8.86.092c-.376.159-.73.306-1.105.465.342 1.767.556 3.858.802 5.737h2.54l-2.237-6.202zm10.809.768l-.709 5.434h4.632l-.54-2.16c0-1.08-.54-1.89-1.08-2.16-.267-.133-1.173-.588-2.303-1.114zm-12.893.11c-.943.408-1.74.776-2.084 1.004-.477.325-1.08 1.08-1.08 2.16l-.54 2.16h4.396l-.692-5.324zm6.43 2.455l-.355.684a.563.563 0 01-.767.21l-.642-.413.81 2.388h2.042l.87-2.506-.853.532a.563.563 0 01-.768-.22l-.337-.675z" fill="#1C62AE"/></g><defs><filter id="filter0_d_938_14808" x=".6" y=".6" width="64.8" height="64.8" filterUnits="userSpaceOnUse" color-interpolation-filters="sRGB"><feFlood flood-opacity="0" result="BackgroundImageFix"/><feColorMatrix in="SourceAlpha" values="0 0 0 0 0 0 0 0 0 0 0 0 0 0 0 0 0 0 127 0" result="hardAlpha"/><feMorphology radius="1" operator="dilate" in="SourceAlpha" result="effect1_dropShadow_938_14808"/><feOffset/><feGaussianBlur stdDeviation="6.7"/><feComposite in2="hardAlpha" operator="out"/><feColorMatrix values="0 0 0 0 0.555 0 0 0 0 0.555 0 0 0 0 0.555 0 0 0 0.18 0"/><feBlend in2="BackgroundImageFix" result="effect1_dropShadow_938_14808"/><feBlend in="SourceGraphic" in2="effect1_dropShadow_938_14808" result="shape"/></filter></defs></svg>