<svg width="34" height="34" fill="none" xmlns="http://www.w3.org/2000/svg"><path fill-rule="evenodd" clip-rule="evenodd" d="M11.97 1.646H6.853a5.12 5.12 0 00-3.618 1.498A5.12 5.12 0 001.738 6.76v20.462a5.12 5.12 0 001.498 3.618 5.12 5.12 0 003.618 1.497h20.461a5.12 5.12 0 003.618-1.497 5.12 5.12 0 001.498-3.618V6.761a5.12 5.12 0 00-1.498-3.617 5.12 5.12 0 00-3.618-1.498H22.2V9.32h1.003a2.046 2.046 0 011.628 3.286l-6.119 8.032a2.045 2.045 0 01-3.255 0l-6.12-8.032a2.045 2.045 0 011.628-3.286h1.004V1.646zm0 25.577H22.2a1.023 1.023 0 000-2.046H11.97a1.023 1.023 0 000 2.046z" fill="#1C62AE"/></svg>