<svg width="32" height="44" fill="none" xmlns="http://www.w3.org/2000/svg"><path d="M30.565 10.435l-9-9A1.5 1.5 0 0020.5 1h-12A7.5 7.5 0 001 8.5v27A7.5 7.5 0 008.5 43h15a7.5 7.5 0 007.5-7.5v-24a1.5 1.5 0 00-.435-1.065zM23.38 22.57a1.5 1.5 0 01-1.38.93h-1.5V28a1.5 1.5 0 01-1.5 1.5h-6a1.5 1.5 0 01-1.5-1.5v-4.5H10a1.5 1.5 0 01-1.38-.93 1.5 1.5 0 01.315-1.635l6-6a1.498 1.498 0 012.13 0l6 6a1.5 1.5 0 01.315 1.635zm6-9a1.501 1.501 0 01-1.38.93h-7.5a3 3 0 01-3-3V4a1.5 1.5 0 01.93-1.38 1.5 1.5 0 011.635.315l9 9a1.5 1.5 0 01.315 1.635z" fill="#1C62AE"/></svg>