<svg width="33" height="33" fill="none" xmlns="http://www.w3.org/2000/svg"><g clip-path="url(#clip0_907_8572)" fill="#F1AF27"><path d="M32.19 16.5l-3.372-3.3 1.274-4.548-4.579-1.165-1.165-4.579L19.8 4.182 16.5.81l-3.3 3.372-4.548-1.274-1.165 4.579-4.579 1.165L4.182 13.2.81 16.5l3.372 3.3-1.274 4.548 4.579 1.165 1.165 4.579 4.548-1.274 3.3 3.373 3.3-3.373 4.548 1.274 1.165-4.579 4.579-1.165-1.274-4.548 3.372-3.3zm-11.565 5.156a2.063 2.063 0 110-4.126 2.063 2.063 0 010 4.126zm-8.25-10.312a2.062 2.062 0 110 4.125 2.062 2.062 0 010-4.125zm.082 10.55l7.22-11.344.866.557-7.22 11.344-.866-.557z"/><path d="M12.375 14.438a1.031 1.031 0 100-2.063 1.031 1.031 0 000 2.063zm8.25 6.187a1.031 1.031 0 100-2.062 1.031 1.031 0 000 2.062z"/></g><defs><clipPath id="clip0_907_8572"><path fill="#fff" d="M0 0h33v33H0z"/></clipPath></defs></svg>