<svg width="320" height="188" fill="none" xmlns="http://www.w3.org/2000/svg"><path d="M259.07 33.6v12.98h6.27V49h-8.8V33.6h2.53z" fill="#666"/><path d="M17 132L158 25l138.5 107H17z" fill="#CFE1F5"/><path stroke="#666" stroke-width="2.882" d="M155.875 12.855l157 120"/><path d="M186.67 84.914V78.6h2.53V94h-2.53v-6.666h-6.6V94h-2.53V78.6h2.53v6.314h6.6zM156.722 181h-2.926l-4.356-15.4h2.662l3.234 12.034 3.498-12.034h2.332l3.476 12.034 3.234-12.034h2.662l-4.356 15.4h-2.926L160 169.758 156.722 181z" fill="#666"/><path stroke="#666" stroke-width="2.882" d="M156.875 25.855l140 107M158.125 12.855l-157 120M157.875 26.145l-140 107"/><path d="M318.196 112.487a1.5 1.5 0 001.291-1.683l-1.76-13.384a1.5 1.5 0 10-2.974.39l1.564 11.898-11.897 1.565a1.5 1.5 0 10.391 2.974l13.385-1.76zM175.087 3.19l142 109 1.826-2.38-142-109-1.826 2.38zM15.94 147.939a1.501 1.501 0 000 2.122l9.545 9.546a1.501 1.501 0 002.122-2.122L19.12 149l8.486-8.485a1.5 1.5 0 00-2.122-2.122l-9.546 9.546zm279.121 2.122a1.502 1.502 0 000-2.122l-9.546-9.546a1.502 1.502 0 00-2.122 0 1.502 1.502 0 000 2.122l8.486 8.485-8.486 8.485a1.502 1.502 0 000 2.122 1.502 1.502 0 002.122 0l9.546-9.546zM17 150.5h277v-3H17v3zM155.939 127.061a1.502 1.502 0 002.122 0l9.546-9.546a1.502 1.502 0 000-2.122 1.502 1.502 0 00-2.122 0L157 123.879l-8.485-8.486a1.502 1.502 0 00-2.122 0 1.502 1.502 0 000 2.122l9.546 9.546zM155.5 25v101h3V25h-3z" fill="#666"/></svg>