<svg width="675" height="426" fill="none" xmlns="http://www.w3.org/2000/svg"><path d="M476.722 65h-2.926l-4.356-15.4h2.662l3.234 12.034 3.498-12.034h2.332l3.476 12.034 3.234-12.034h2.662L486.182 65h-2.926L480 53.758 476.722 65zm14.328-13.97l4.048-1.43h2.2V65h-2.53V52.306l-3.102.88-.616-2.156zM258.722 59h-2.926l-4.356-15.4h2.662l3.234 12.034 3.498-12.034h2.332l3.476 12.034 3.234-12.034h2.662L268.182 59h-2.926L262 47.758 258.722 59zm24.651 0h-10.142v-1.98l5.368-5.478c1.305-1.305 1.958-2.435 1.958-3.388 0-.733-.22-1.313-.66-1.738-.44-.425-1.012-.638-1.716-.638-1.291 0-2.244.638-2.86 1.914l-2.134-1.254c.469-1.012 1.144-1.782 2.024-2.31.88-.543 1.862-.814 2.948-.814 1.364 0 2.522.425 3.476 1.276.968.865 1.452 2.024 1.452 3.476 0 1.555-.873 3.227-2.618 5.016l-3.476 3.476h6.38V59zM108.172 196.714c1.276 0 2.295.411 3.058 1.232.777.807 1.166 1.907 1.166 3.3V208h-2.376v-6.512c0-.821-.22-1.452-.66-1.892-.44-.44-1.041-.66-1.804-.66-.865 0-1.547.271-2.046.814-.499.528-.748 1.313-.748 2.354V208h-2.376v-15.4h2.376v5.808c.733-1.129 1.87-1.694 3.41-1.694zM440.172 207.714c1.276 0 2.295.411 3.058 1.232.777.807 1.166 1.907 1.166 3.3V219h-2.376v-6.512c0-.821-.22-1.452-.66-1.892-.44-.44-1.041-.66-1.804-.66-.865 0-1.547.271-2.046.814-.499.528-.748 1.313-.748 2.354V219h-2.376v-15.4h2.376v5.808c.733-1.129 1.87-1.694 3.41-1.694zM590.172 179.714c1.276 0 2.295.411 3.058 1.232.777.807 1.166 1.907 1.166 3.3V191h-2.376v-6.512c0-.821-.22-1.452-.66-1.892-.44-.44-1.041-.66-1.804-.66-.865 0-1.547.271-2.046.814-.499.528-.748 1.313-.748 2.354V191h-2.376v-15.4h2.376v5.808c.733-1.129 1.87-1.694 3.41-1.694zM405.098 89.562V88h2.376v11h-2.376v-1.584c-.895 1.247-2.178 1.87-3.85 1.87-1.511 0-2.801-.557-3.872-1.672-1.071-1.115-1.606-2.486-1.606-4.114 0-1.628.535-3 1.606-4.114 1.071-1.115 2.361-1.672 3.872-1.672 1.672 0 2.955.616 3.85 1.848zm-5.962 6.468c.66.66 1.489.99 2.486.99.997 0 1.826-.33 2.486-.99.66-.675.99-1.518.99-2.53 0-1.012-.33-1.848-.99-2.508-.66-.675-1.489-1.012-2.486-1.012-.997 0-1.826.337-2.486 1.012-.66.66-.99 1.496-.99 2.508 0 .997.33 1.84.99 2.53z" fill="#100F0D"/><path stroke="#666" stroke-width="2.388" stroke-dasharray="7 7" d="M121.194 85v226M426.194 78v309M573.194 94v193"/><path stroke="#666" stroke-width="2.388" d="M287.489 1.911l138 62M287.148 1.815l168 21"/><path stroke="#666" stroke-width="2.388" stroke-dasharray="7 7" d="M121.298 309.844l31 8M379.318 372.849l47 13M553.113 283.812l21 2"/><path stroke="#666" stroke-width="2.388" d="M454.545 22.938l119 61M427.162 63.817l146 20M120.549 70.895l169-69M425.136 76.814l148 17M151.362 281.138l-151 48M.286 329.841l385 95M380.194 79v295M555.194 92v193M119.969 84.703l305-7.897M384.433 424.6l290-156.65M151.806 319V84M380.454 373.938l175-90M556.162 251.817l117 16M151.285 317.841l228 56M119.972 70.976l305-7.17M121.194 70v15M426.194 63v15M573.194 83v12"/></svg>