<?xml version="1.0" encoding="utf-8"?><svg xmlns="http://www.w3.org/2000/svg" xmlns:xlink="http://www.w3.org/1999/xlink"><symbol fill="none" viewBox="0 0 27 27" id="alert-circle" xmlns="http://www.w3.org/2000/svg"><path d="M13.5 2.531c-6.048 0-10.969 4.92-10.969 10.969 0 6.048 4.92 10.969 10.969 10.969 6.048 0 10.969-4.92 10.969-10.969 0-6.048-4.92-10.969-10.969-10.969Zm0 16.87a1.056 1.056 0 1 1 0-2.11 1.056 1.056 0 0 1 0 2.11Zm1.145-10.607-.302 6.434a.844.844 0 1 1-1.688 0l-.303-6.43v-.003a1.148 1.148 0 0 1 1.596-1.104 1.146 1.146 0 0 1 .695 1.104l.002-.001Z" fill="#1C62AE"/></symbol><symbol fill="none" viewBox="0 0 18 18" id="arrow-down" xmlns="http://www.w3.org/2000/svg"><path d="M4.938 7.469 10 12.53l5.063-5.062" stroke="#2D2D2D" stroke-width="1.688" stroke-linecap="round" stroke-linejoin="round"/></symbol><symbol fill="none" viewBox="0 0 13 13" id="arrow-right" xmlns="http://www.w3.org/2000/svg"><path d="M5.395 10.156 9.05 6.5 5.395 2.844" stroke="#666" stroke-width="1.219" stroke-linecap="round" stroke-linejoin="round"/></symbol><symbol fill="none" viewBox="0 0 28 28" id="attach" xmlns="http://www.w3.org/2000/svg"><path d="M10.27 19.283c.244.244.627.209.906 0l4.254-4.254c.314-.314.802-.35 1.186 0 .383.348.348.941 0 1.29l-5.23 5.126c-1.151 1.15-3.07 1.15-4.22 0l-.035-.035c-1.15-1.151-1.15-3.069 0-4.22l9.206-9.205c1.15-1.15 3.068-1.15 4.219 0l.035.035c1.15 1.15 1.15 3.068 0 4.219l-.035.035a.586.586 0 0 0-.07.767c.244.453.453.976.593 1.5.07.348.453.418.732.209.349-.35.628-.663.628-.663a5.556 5.556 0 0 0 0-7.845h-.07a5.556 5.556 0 0 0-7.845 0l-9.276 9.135a5.556 5.556 0 0 0 0 7.846l.07.07a5.514 5.514 0 0 0 7.81 0l5.266-5.23c1.36-1.36 1.325-3.557-.07-4.917-1.36-1.325-3.556-1.22-4.881.14l-4.15 4.183c-.244.244-.244.663 0 .942l.977.872Z" fill="#1C62AE"/></symbol><symbol fill="none" viewBox="0 0 35 26" id="burger" xmlns="http://www.w3.org/2000/svg"><rect width="35" height="4" rx="1" fill="#1C62AE"/><rect y="11" width="35" height="4" rx="1" fill="#1C62AE"/><rect y="22" width="35" height="4" rx="1" fill="#1C62AE"/></symbol><symbol fill="none" viewBox="0 0 28 28" id="burger-close" xmlns="http://www.w3.org/2000/svg"><path fill="#fff" d="M0 .211h27.577v27.577H0z"/><rect x="2.828" y=".211" width="35" height="4" rx="1" transform="rotate(45 2.828 .211)" fill="#1C62AE"/><rect y="24.96" width="35" height="4" rx="1" transform="rotate(-45 0 24.96)" fill="#1C62AE"/></symbol><symbol fill="none" viewBox="0 0 21 21" id="checkmark" xmlns="http://www.w3.org/2000/svg"><path d="m16.674 5.894-8.658 9.894-3.71-3.71" stroke="#fff" stroke-width="1.946" stroke-linecap="round" stroke-linejoin="round"/></symbol><symbol fill="none" viewBox="0 0 20 19" id="footer-email" xmlns="http://www.w3.org/2000/svg"><path d="M16.563 2.969H3.438c-.58 0-1.137.22-1.547.61-.41.389-.64.917-.641 1.468v8.906c0 .551.231 1.08.641 1.469.41.39.967.609 1.546.61h13.126c.58-.001 1.136-.22 1.546-.61.41-.39.64-.918.641-1.469V5.047c0-.551-.231-1.08-.641-1.469a2.25 2.25 0 0 0-1.547-.61Zm-.554 3.437-5.625 4.156a.647.647 0 0 1-.768 0L3.991 6.406a.574.574 0 0 1 .07-.99.648.648 0 0 1 .698.053L10 9.342l5.241-3.873a.65.65 0 0 1 .87.11.572.572 0 0 1-.102.827Z" fill="#fff"/></symbol><symbol fill="none" viewBox="0 0 19 19" id="footer-tel" xmlns="http://www.w3.org/2000/svg"><path d="M17.773 13.736c-.194-.207-.878-.817-2.135-1.624-1.266-.814-2.2-1.322-2.468-1.44a.142.142 0 0 0-.146.018c-.431.337-1.158.955-1.197.988-.252.216-.252.216-.457.149-.363-.119-1.488-.716-2.468-1.7-.98-.982-1.609-2.135-1.728-2.497-.068-.206-.068-.206.149-.457.033-.04.652-.766.988-1.197a.142.142 0 0 0 .019-.146c-.119-.268-.626-1.202-1.44-2.468C6.08 2.105 5.471 1.42 5.264 1.227a.145.145 0 0 0-.144-.032c-.721.248-1.417.564-2.078.944-.638.371-1.242.798-1.805 1.275a.142.142 0 0 0-.047.139c.077.361.448 1.87 1.598 3.96C3.963 9.646 4.777 10.74 6.5 12.457c1.724 1.718 2.852 2.58 4.987 3.754 2.09 1.15 3.6 1.521 3.96 1.598a.144.144 0 0 0 .14-.047c.476-.563.903-1.167 1.274-1.805.38-.661.696-1.357.944-2.078a.144.144 0 0 0-.032-.143Z" fill="#fff"/></symbol><symbol fill="none" viewBox="0 0 23 18" id="gallery" xmlns="http://www.w3.org/2000/svg"><g clip-path="url(#ja)"><path d="M9.2 0h11.5C21.969 0 23 1.009 23 2.25v7.875c0 1.241-1.031 2.25-2.3 2.25H9.2c-1.269 0-2.3-1.009-2.3-2.25V2.25C6.9 1.009 7.931 0 9.2 0Zm7.906 3.751a.871.871 0 0 0-.719-.376.872.872 0 0 0-.718.376l-2.013 2.953-.622-.763a.873.873 0 0 0-1.344 0l-2.3 2.813a.827.827 0 0 0-.104.893.865.865 0 0 0 .777.478H19.837c.32 0 .611-.172.762-.446a.825.825 0 0 0-.043-.865l-3.45-5.063Zm-5.031-.376c0-.298-.121-.585-.337-.796a1.163 1.163 0 0 0-.813-.329c-.305 0-.598.119-.813.33a1.113 1.113 0 0 0-.337.795c0 .298.121.585.337.795a1.163 1.163 0 0 0 1.626 0c.216-.21.337-.497.337-.795ZM2.3 4.5h3.45v10.125c0 .622.514 1.125 1.15 1.125h4.6c.636 0 1.15-.503 1.15-1.125V13.5h5.75v2.25c0 1.241-1.031 2.25-2.3 2.25H2.3C1.031 18 0 16.991 0 15.75v-9C0 5.509 1.031 4.5 2.3 4.5Zm.288 2.25a.57.57 0 0 0-.575.563v.562c0 .31.258.563.575.563h.575a.57.57 0 0 0 .575-.563v-.563a.57.57 0 0 0-.575-.562h-.575Zm0 3.656a.57.57 0 0 0-.575.563v.562c0 .31.258.563.575.563h.575a.57.57 0 0 0 .575-.563v-.562a.57.57 0 0 0-.575-.563h-.575Zm0 3.656a.57.57 0 0 0-.575.563v.563c0 .309.258.562.575.562h.575a.57.57 0 0 0 .575-.563v-.562a.57.57 0 0 0-.575-.563h-.575Zm12.074.563v.563c0 .309.26.562.575.562h.575a.57.57 0 0 0 .575-.563v-.562a.57.57 0 0 0-.575-.563h-.574a.57.57 0 0 0-.575.563Z" fill="#1C62AE"/></g><defs><clipPath id="ja"><path fill="#fff" d="M0 0h23v18H0z"/></clipPath></defs></symbol><symbol fill="none" viewBox="0 0 36 37" id="icon1" xmlns="http://www.w3.org/2000/svg"><g filter="url(#ka)" fill="#1C62AE"><path d="m13.085 13.046 9.874 9.88c.156.156.46.043.625-.122.17-.171.284-.466.115-.635l-9.872-9.88c-.065-.067-.163-.082-.255-.07-.402.048-.73.583-.487.826v.001ZM19.058 23.795c.63.631 1.65.631 2.28 0l.866-.866-9.131-9.135-.866.866a1.615 1.615 0 0 0 0 2.279l6.853 6.856h-.002ZM10.196 27.844a1.949 1.949 0 0 0 1.412-.75l4.357-5.631-1.425-1.427-5.63 4.36c-1.503 1.164-.596 3.564 1.287 3.45l-.001-.002Zm-.899-2.694c.38-.38.863-.325.782-.325.977 0 1.464 1.19.772 1.881-.379.38-.862.325-.781.325-.978 0-1.465-1.19-.773-1.881ZM26.733 18.399l-.89-.89-1.985.904a.27.27 0 0 1-.358-.357l.904-1.986-4.645-4.646-.85.85-.381-.381.85-.85-.89-.892L17.04 11.6l-.38-.381 1.448-1.449-.507-.506-3.019 3.018 9.13 9.136 3.019-3.019h.002Z"/></g><defs><filter id="ka" x="-5" y="-5" width="50" height="50" filterUnits="userSpaceOnUse" color-interpolation-filters="sRGB"><feFlood flood-opacity="0" result="BackgroundImageFix"/><feColorMatrix in="SourceAlpha" values="0 0 0 0 0 0 0 0 0 0 0 0 0 0 0 0 0 0 127 0" result="hardAlpha"/><feOffset dx="2" dy="2"/><feGaussianBlur stdDeviation="3.5"/><feComposite in2="hardAlpha" operator="out"/><feColorMatrix values="0 0 0 0 0.555 0 0 0 0 0.555 0 0 0 0 0.555 0 0 0 0.18 0"/><feBlend in2="BackgroundImageFix" result="effect1_dropShadow_876_8944"/><feBlend in="SourceGraphic" in2="effect1_dropShadow_876_8944" result="shape"/></filter></defs></symbol><symbol fill="none" viewBox="0 0 38 38" id="icon2" xmlns="http://www.w3.org/2000/svg"><g filter="url(#la)" fill="#1C62AE"><path d="M18 28.4c5.617 0 10.193-4.576 10.193-10.192 0-1.768-.468-3.536-1.352-5.07l-.234-.39-.806.468.234.39a9.235 9.235 0 0 1 1.222 4.602c0 5.122-4.16 9.282-9.282 9.282s-9.282-4.16-9.282-9.282 4.16-9.282 9.282-9.282a8.74 8.74 0 0 1 3.276.624l-.65 1.118 3.562.052-1.716-3.12-.676 1.144A10.344 10.344 0 0 0 18 8.016c-5.616 0-10.192 4.576-10.192 10.192C7.809 23.824 12.385 28.4 18 28.4Z"/><path d="M18 11.24a6.968 6.968 0 1 0 0 13.937 6.968 6.968 0 0 0 0-13.937Zm3.093 10.062a.548.548 0 0 1-.338.13.548.548 0 0 1-.338-.13l-2.756-2.756c-.052-.052-.078-.104-.104-.156 0-.026-.026-.052-.026-.052-.026-.026-.026-.078-.026-.104v-4.628c0-.26.208-.468.468-.468s.468.208.468.468V18l2.626 2.626c.208.208.208.494.026.676Z"/></g><defs><filter id="la" x="-5" y="-5" width="50" height="50" filterUnits="userSpaceOnUse" color-interpolation-filters="sRGB"><feFlood flood-opacity="0" result="BackgroundImageFix"/><feColorMatrix in="SourceAlpha" values="0 0 0 0 0 0 0 0 0 0 0 0 0 0 0 0 0 0 127 0" result="hardAlpha"/><feOffset dx="2" dy="2"/><feGaussianBlur stdDeviation="3.5"/><feComposite in2="hardAlpha" operator="out"/><feColorMatrix values="0 0 0 0 0.555 0 0 0 0 0.555 0 0 0 0 0.555 0 0 0 0.18 0"/><feBlend in2="BackgroundImageFix" result="effect1_dropShadow_876_8956"/><feBlend in="SourceGraphic" in2="effect1_dropShadow_876_8956" result="shape"/></filter></defs></symbol><symbol fill="none" viewBox="0 0 36 36" id="icon3" xmlns="http://www.w3.org/2000/svg"><g filter="url(#ma)"><path d="M24.038 10.595a9.426 9.426 0 0 0-7.114-2.575C12.102 8.326 8 12.733 8 17.665v.109a2.488 2.488 0 1 0 4.975 0 .873.873 0 1 1 1.702.218v.066a1.222 1.222 0 0 1-.742.807 2.881 2.881 0 0 0-1.767 2.662 5.477 5.477 0 0 0 5.28 5.477h.24a9.513 9.513 0 0 0 6.328-16.43l.022.021Zm-2.531 1.593a2.03 2.03 0 1 1 0 4.058 2.03 2.03 0 0 1 0-4.058Zm-6.786-.284a2.029 2.029 0 1 1 4.057 0 2.029 2.029 0 0 1-4.057 0ZM19.106 24.8a2.029 2.029 0 1 1 0-4.058 2.029 2.029 0 0 1 0 4.058Zm3.382-3.622a2.029 2.029 0 1 1-.043-4.058 2.029 2.029 0 0 1 .043 4.058Z" fill="#1C62AE"/></g><defs><filter id="ma" x="-1.8" y="-1.8" width="41.04" height="41.04" filterUnits="userSpaceOnUse" color-interpolation-filters="sRGB"><feFlood flood-opacity="0" result="BackgroundImageFix"/><feColorMatrix in="SourceAlpha" values="0 0 0 0 0 0 0 0 0 0 0 0 0 0 0 0 0 0 127 0" result="hardAlpha"/><feOffset dx=".72" dy=".72"/><feGaussianBlur stdDeviation="1.26"/><feComposite in2="hardAlpha" operator="out"/><feColorMatrix values="0 0 0 0 0.555 0 0 0 0 0.555 0 0 0 0 0.555 0 0 0 0.18 0"/><feBlend in2="BackgroundImageFix" result="effect1_dropShadow_876_8951"/><feBlend in="SourceGraphic" in2="effect1_dropShadow_876_8951" result="shape"/></filter></defs></symbol><symbol fill="none" viewBox="0 0 41 36" id="icon4" xmlns="http://www.w3.org/2000/svg"><g filter="url(#na)" fill="#1C62AE"><path d="M9.93 21.127c.002 0 .002.001.003.002.001 0 .002-.002.004-.001l.169.027.002.002h.003l.165.039c.002 0 .002.001.003.002h.004l.173.059.002.001h.003l.177.076.002.001h.003l.177.091v.001h.002l.177.095s0 .002.002.002l.004.001.177.118v.002h.002l.178.13v.002h.003l.173.142.001.003h.003l.165.158.17.162v.003h.003l.103.114v.001l.1.115v.002h.002l.094.123v.002l.003.002.087.13v.001l.001.001.083.134.08.13v.003l.075.138v.001h.001l.071.138v.004l.003.002.059.146.067.17v.001l.011.03.016.033.007.015.017.023.001.006.005.004.013.026.017.024.017.02v.002c.001.001.002 0 .003.002l.017.023.018.019.02.02.022.022.018.014.02.014.003.003.003.001.021.018.017.011 1.053.605.021.01v.001h.002l.02.01.016.007.02.005.003.002.003.002.002-.001.024.003h.027l.013-.002.008-.002.005-.003.015-.01v-.002h.003l.016-.016.015-.014v-.004l.056-.079s.002 0 .003-.002v-.003l.064-.075c.001-.001.003 0 .005-.002l.002-.005.067-.06h.002l.002-.002.07-.055c.002-.001.004 0 .005-.002.002 0 .002-.003.004-.004l13.852-7.993-.976-.555-.002-.002-.003-.001-.023-.016-.004-.006c-.002-.002-.005-.001-.007-.003l-.015-.015-.017-.012h-.001l-.002-.001-.027-.02c-.002-.001-.002-.004-.004-.006-.004-.004-.01-.007-.013-.012l-.009-.013-.017-.012c-.003-.002-.003-.006-.006-.009-.002-.002-.005 0-.007-.003l-.02-.024-.02-.023v-.004h-.003l-.019-.028-.02-.028v-.002l-.003-.002-.02-.032v-.001l-.016-.028v-.005l-.005-.005-.01-.027-.013-.023v-.001l-.002-.002-.016-.032v-.003c0-.002-.003-.002-.003-.004l-.063-.173-.061-.138-.065-.134-.072-.138-.074-.13-.09-.124v-.002l-.086-.13-.091-.117-.097-.112h-.004l-.098-.11-.165-.161-.169-.157-.168-.137-.175-.124-.171-.117-.173-.1-.173-.085-.174-.074-.162-.056-.169-.038-.162-.027-.094-.003h-.091l-.08.01-.085.026-.081.028-.073.044h-.001l-.54.308-13.521 7.81.089.006ZM15.103 24.11l.004.002h.005l.177.03.002.002h.003l.177.042c.002 0 .002.003.004.003h.004l.18.067.002.001h.002l.185.079.002.001h.001l.185.09.003.003h.004l.185.115v.002h.002l.185.126s0 .002.002.002h.002l.185.142v.002h.002l.14.118 14.364-8.293-.104-.087-.177-.132-.186-.128-.18-.114-.177-.09-.181-.076-.178-.063-.173-.04-.17-.028-.092-.007-.089.008h-.001l-.091.006-.076.02-.075.033-.076.042-.542.313v.001l-13.524 7.804.085.004ZM15.767 24.866l-.002-.001c-.002 0-.002-.002-.003-.003h-.001l-.003-.004c-.003 0-.005 0-.007-.002l-.005-.002a.078.078 0 0 1-.014-.003l-.004.001-.006-.002-.005.002-.003.001-.007.006c-.002.004-.002.009-.005.012h-.001l-.001.003c0 .003.003.006.002.01l-.028.175.216-.123-.123-.07ZM9.382 22.173l-.066.043-.067.044-.061.05-.016.018.323-.187-.043.01-.07.022ZM7.537 20.639l.01.023.012.024.017.023c.002.002 0 .005.002.006 0 .002.003.003.004.005l.013.024.014.017v.003c.001 0 .003 0 .003.002l.02.027.02.027.011.015.02.016c.001.002 0 .004.002.006.002.001.005 0 .006.003l.016.019.014.011.022.013.004.005c.002.002.005 0 .006.002l.023.019.016.013 1.056.606.021.011.02.01.025.01h.001l.027.004.002.002h.002l.013.002h.031l.012-.003h.004l.003-.003c.002-.002.006 0 .01-.002.002-.002.003-.006.007-.007l.01-.005.008-.006.01-.013c0-.002.003-.001.004-.003.002-.001.001-.004.003-.005l.01-.01.046-.076c.002-.001.004-.001.005-.003l.001-.005.06-.071c0-.002.003-.001.005-.003 0-.001 0-.003.002-.005l.07-.063h.004l.003-.004.07-.051.004-.001c.002 0 .002-.003.003-.003l13.842-7.994-.974-.563-.02-.01-.006-.007c-.002-.001-.006 0-.008-.003l-.02-.017-.021-.014-.002-.003-.004-.001-.023-.02-.002-.003-.004-.001-.023-.024-.02-.02-.001-.003-.003-.001-.02-.024-.02-.023v-.003l-.005-.005-.018-.03-.016-.018v-.003l-.006-.005-.02-.031v-.002l-.016-.028v-.001l-.003-.003-.015-.032v-.001l-.001-.001-.007-.016-14.373 8.298.002.006ZM16.809 25.359l14.354-8.283v-.299l-14.354 8.287v.295Z"/><path d="M5.736 19.488h.003l.37.24c.003.002.003.005.005.007.003.002.006.001.008.004l.004.004.255.197.001.002h.002l.26.225v.002h.003l.098.095.001.002.003.001.094.102.095.103v.004l.004.001.087.114v.001l.001.001.083.118.087.123v.002l.002.001.079.126v.003l.002.001.067.126.07.13v.002l.003.002.059.13v.001l.06.133v.004l.001.002.06.17v.003l.007.022.012.024.013.023.018.03.019.025.001.006.005.004.014.027.007.012.02.018.004.005c.001.002.004.002.005.003l.019.023.023.027v.001h.001l.016.02.014.01.022.014c.004.002.005.007.008.01.004.003.009.003.012.006l.005.007.012.005.003.003h.004l.83.48.003.003h.002l.015.01.015.005.026.008.002.002h.003l.013.005.017.002v.001h.002l.013.003h.027l.012-.003.008-.001.008-.006c.004-.002.007 0 .01-.002l.009-.008c.002-.002.005 0 .007-.003.002-.001.001-.004.004-.006l.006-.004.004-.004.006-.01.006-.013.002-.002v-.002l.048-.083.003-.002.001-.004.055-.075.003-.002.001-.004.06-.066c0-.002.003-.002.004-.003l.003-.005.067-.055c.001-.001.003 0 .004-.002 0 0 0-.002.002-.003l.07-.047h.002l.075-.048c.003-.002.006 0 .009-.002.003-.001.004-.005.007-.006l.082-.027h.004c.001 0 .001-.002.003-.002l.087-.02h.003l.088-.016c.003 0 .004.002.007.001l.005-.002h.098l.083.004h.013l.006.002c.003 0 .005-.002.007 0l.099.019h.002l.213.052.003.002h.004l.21.075v.001h.002l.224.09.002.003h.004l.216.11.001.002h.002l.22.126c.002 0 .002.002.003.002h.002l.217.146v.002h.002l.216.157.001.002h.002l.216.174.002.002h.002l.212.193.001.002h.002l.098.1h.002l.098.103.001.003c.001 0 .002 0 .003.002l.091.113.09.115.001.001h.001l.09.123.001.003h.002l.079.123v.001l.08.13v.004s.002 0 .002.002l.067.133.067.13v.003l.002.001.063.142v.003l.052.13v.002l.001.001.053.163.012.021c.002.003 0 .006.002.01 0 .003.005.004.006.008l.005.022.011.018v.003c.001 0 .002 0 .003.002l.012.026.017.023c.002.002 0 .004.002.006l.004.004.014.027.009.014.019.019.004.009.007.006.01.017.018.016c.002.001.002.003.003.005s.004.001.005.003l.016.018.019.016.001.003c.001.001.003 0 .004.002l.015.015.018.012c.002.001.002.004.003.006.002.001.005 0 .007.003l.012.011.014.007v.002h.003l.76.433v.002h.003l.02.013.02.009.002.001h.001l.007.003.017.003c.003 0 .004.003.007.004h.008l.012.005.011.002h.028l.005-.001.015-.006h.004c.002 0 .002-.002.003-.002l.01-.003c.003-.003.006-.003.01-.005.002-.003.001-.007.005-.009l.01-.008.005-.005.007-.01.01-.016.052-.083.048-.076c0-.002.003-.002.005-.004 0-.001 0-.003.002-.005l.063-.07c.001-.002.003-.002.005-.003l.003-.006.063-.051.003-.001v-.002l.071-.051c.002-.002.005 0 .006-.002.002 0 .002-.003.004-.004l.079-.04h.004l.003-.003.082-.03h.003c.002 0 .002-.002.003-.003l.083-.023h.005l.005-.002.09-.012.005.001.005-.002h.098l.083.004h.012l.006.003.007-.002.099.02.002.001h.001l.236.059c.002 0 .002.002.003.002h.003l.19.064.04-.248v-.006c0-.004.004-.006.005-.009 0-.003-.003-.006-.002-.009l.004-.016c.002-.005.007-.007.01-.012l.004-.012c0-.003.003-.003.004-.005v-.003l.007-.006.001-.007.008-.012c0-.001.003 0 .004-.002v-.004l.005-.005.003-.001.001-.003.008-.008.005-.004c.002-.002.004-.001.005-.002.002-.002.001-.004.003-.005l.012-.008c.006-.005.013-.003.02-.005h.001l.008-.005h.004c.003 0 .004-.003.006-.003h.011c.004 0 .006-.004.01-.004h.038c.004 0 .006.004.01.004h.01c.003 0 .004.003.007.003h.004l.007.004c.005.001.01-.001.014.001l.015.008.007.003.003.004h.005l.011.008.143.081.004.005.002.002c.003.001.006 0 .008.002v.001l.006.006c.002.001.004 0 .005.002l.004.004.002.001.002.003c.003.004.004.009.006.013l.004.001c0 .002 0 .004.002.006l.001.001c.003.002.002.006.004.008.003.006.007.009.009.015 0 .002.003.002.004.004l.01.03.01.02c.002.003 0 .007.001.01.002.002.002.005.003.008.002.003.006.003.008.006l.004.008v.009l.002.004.002.002c.008.006.017.011.02.02l.005.004v.001h.001l.014-.02c.002-.003.005-.002.007-.005.001 0 0-.004.002-.005h.001l.003-.002c0-.001 0-.003.002-.004.007-.006.015-.006.022-.009l.012-.005c.005-.001.008-.006.014-.006h.024c.01 0 .017.007.026.011l.005.001.006.001.008.005h.002l.213.126.003.004.003.002.01.004.002.001c.001.002.004.001.006.003l.002.001.004.004.003.009s0 .002.002.003c.002.003.006.003.008.006l.004.008v.008a.059.059 0 0 1 .01.019l.001.003c0 .005.005.007.005.012l.048.11v.003h.002l.08.047v-.303l-.151-.128-.183-.14-.179-.123-.182-.112-.179-.087-.185-.08-.173-.064-.175-.042-.167-.03-.091-.003-.094.004-.086.01-.077.021-.076.033-.079.04-.064.05-.06.052-.058.07-.053.075-.008.011-.007.007c-.001.001 0 .003-.002.005l-.016.015-.015.015-.006.003-.004.006-.011.008-.015.01-.004.001-.001.002-.02.012c-.005.004-.01.003-.016.005l-.007.005-.02.004-.019.003a.052.052 0 0 1-.013.002h-.049l-.027-.005h-.002l-.005-.001-.016-.004h-.002l-.002-.001-.028-.008v-.001h-.005l-.02-.008-.002-.002c-.002-.001-.003 0-.005-.002l-.022-.011-.023-.011-.002-.002h-.003l-1.055-.607-.002-.002-.003-.001-.023-.016c-.001 0 0-.002-.002-.003l-.004-.001-.02-.017-.021-.014c-.002-.001-.002-.003-.002-.004l-.004-.001-.024-.02-.001-.002c-.001-.001-.002 0-.003-.002l-.024-.023-.02-.02-.024-.023c-.001-.002 0-.005-.002-.006-.001-.002-.004-.001-.005-.003l-.02-.027-.017-.021v-.002l-.002-.001-.02-.028-.001-.005-.005-.005-.013-.026-.017-.023-.001-.005-.005-.005-.012-.024v-.001l-.001-.002-.016-.035v-.002l-.002-.002-.011-.032-.067-.168-.057-.14-.07-.137-.072-.134-.078-.129-.083-.134-.085-.126-.09-.118-.098-.113-.1-.11-.168-.161-.164-.156-.167-.137-.178-.13-.17-.114-.176-.093-.173-.089-.174-.074-.166-.056-.159-.038-.167-.027-.092-.007-.093.007-.087.007-.078.022-.077.03-.072.04v.001l-.065.047-.064.056-.057.064-.048.078-.008.008c-.002.001-.001.003-.002.005l-.012.012-.01.012c0 .001-.003 0-.004.002-.002.002-.001.005-.003.006l-.011.011c-.002.002-.004 0-.005.002-.001.001 0 .003-.002.004l-.016.012c-.004.003-.007.002-.01.004-.004.002-.004.005-.007.006l-.01.004-.008.006c-.006.004-.013.004-.02.006-.003.002-.005.006-.009.007l-.02.004-.02.004a.057.057 0 0 1-.013.001h-.043l-.013-.001-.016-.003-.028-.004-.001-.001h-.006l-.016-.005-.003-.002c-.003 0-.006 0-.008-.002l-.028-.012-.003-.001-.023-.012h-.001l-.024-.012-.001-.001H8.78l-1.064-.611-.003-.004-.006-.003-.02-.016-.019-.016-.022-.013-.004-.005c-.002-.001-.004 0-.006-.002l-.024-.02-.003-.006c-.001-.002-.004 0-.006-.003l-.015-.018-.02-.016c-.001-.001 0-.005-.002-.006s-.005-.001-.006-.003l-.02-.023v-.003l-.003-.001-.02-.028-.019-.026-.016-.02c-.002-.002-.001-.004-.002-.006l-.008-.008-.013-.026-.016-.023-.001-.005-.005-.005-.016-.032v-.002l-.002-.001-.011-.028v-.002l-.002-.001-.01-.027-.012-.021c-.002-.003 0-.005-.001-.007l-.005-.005-.046-.132-.057-.134-.063-.132-.069-.123-.075-.13-.077-.123-.08-.123-.081-.115-.092-.104-.093-.105-.097-.105-.006-.002v.327c0 .007-.006.011-.007.017-.002.008 0 .014-.003.02l-.008.008a.06.06 0 0 1-.008.008.069.069 0 0 1-.044.018.068.068 0 0 1-.035-.01l-.3-.177-.001-.003h-.003c-.002-.002-.005-.001-.007-.002l-.007-.004-.001-.001-.002-.001-.001-.002h-.002l-.003-.003-.001-.002c-.004-.002-.008-.001-.01-.004-.004-.005-.004-.01-.007-.016v-.002a.063.063 0 0 1-.008-.018l-.002-.006c-.002-.003-.005-.004-.006-.007l-.04-.107-.003-.009v-.001c-.002-.002-.004 0-.005-.003l-.008-.012-.007-.01-.001-.004-.004-.005-.004-.008-.001-.003-.006-.008c-.003-.003-.006-.002-.009-.005l-.001-.002c-.001-.002-.003-.001-.005-.002l-.007-.008-.006-.003-.003-.003-.005-.001-.012-.008h-.007l-.034.05c-.002.004-.006.006-.008.008l-.003.004-.003.004-.005.002a.067.067 0 0 1-.026.01c-.006.003-.01.008-.017.008h-.023c-.01 0-.017-.007-.025-.01l-.01-.003-.01-.006-.005-.002-.162-.09c-.002-.001-.002-.003-.003-.005l-.013-.007c-.002-.002-.005-.002-.007-.003-.001-.002-.001-.005-.003-.007l-.004-.004H5.58v-.002l-.001-.001-.001-.001-.002-.001-.001-.001c-.005-.006-.005-.013-.008-.02-.004-.003-.004-.007-.007-.011l-.007-.006v-.003a.051.051 0 0 1-.005-.013l-.002-.003-.002-.007-.005-.008c-.002-.003 0-.006-.001-.009-.002-.004-.006-.006-.007-.01l-.003-.01v-.001l-.001-.005-.003-.003-.004-.012v-.001l-.003-.004-.012-.012c-.003-.003-.002-.007-.004-.01l-.005-.006-.002-.003-.007-.007c-.003-.002-.002-.006-.004-.008s-.005-.001-.006-.004l-.003-.003s0-.002-.002-.002-.004 0-.006-.002l-.008-.004h-.001l-.008-.004c-.003-.002-.003-.006-.006-.007l-.002-.002h-.004l-.005-.002-.006-.002-.002.003v.328l.31.176c.002 0 .002.002.002.003Z"/><path d="M6.75 19.313h.001v.001l.095.106.095.107.001.004c.002.001.003 0 .004.002l.083.118v.002h.001l.083.126v.001l.08.126v.002l.076.13v.001l.07.126.001.003.002.001.063.135v.001h.001l.06.139v.004l.02.054 14.37-8.295-.03-.077-.054-.135-.062-.131-.069-.123-.075-.134-.075-.117-.084-.122-.083-.113-.088-.108-.099-.11v-.001l-.085-.097c-.004-.003-.01-.002-.013-.005l-.004-.004v-.001h-.002l-.002-.003h-.001c-.004-.002-.005-.005-.008-.007l-.002-.001-.347.199-14.019 8.09.097.106ZM5.57 18.904c.005.005.014.006.018.013.002.002 0 .005.002.006l.006.003c.003.004.003.01.005.014a.04.04 0 0 1 .005.005h.002v.003c.004.005.01.007.012.013v.001c.004.002.005.007.008.01 0 0 .002 0 .003.002v.002c.009.009.019.017.022.03v.002l14.37-8.3-.003-.004v-.002l-.003-.004-.008-.013c-.002-.002 0-.004-.002-.005-.001-.002-.003-.001-.004-.002l-.008-.008c-.003-.003-.002-.007-.005-.01l-.006-.008-.005-.006-.002-.001-.008-.008-.001-.005-.005-.001c-.003-.001-.003-.004-.005-.004l-.012-.004-.011-.007h-.002v-.002h-.006l-.009-.002-.006.001-.002.001-14.346 8.284c.002.002.004.001.005.003v.003ZM5.823 19.17l.011-.017c.004-.005.01-.006.015-.01.003-.003.002-.007.004-.01.001-.002.003-.001.005-.002l.001-.005h.003c.005-.005.01-.006.016-.01.002 0 .002-.003.004-.005l14.273-8.238-.047-.027c-.003-.001-.003-.005-.005-.006l-.015-.006-14.352 8.287.087.049Z"/><path d="M6.078 19.162c.007.005.016.007.02.015.002.001.001.004.002.006.005.004.011.004.015.01.002.003 0 .007.002.01.003.004.008.005.01.009v.005l.004.003v.003l.001.005c.002.002.005.002.006.004.002.003 0 .006.002.009l.003.005c.005.005.013.008.016.015v.008c.002.003.006.003.007.006v.006c0 .002.003.003.004.005l.039.105h.002l.193.115v-.275c0-.003.003-.005.004-.008 0-.01.005-.016.01-.024.004-.008.008-.015.015-.02.003-.002.003-.006.006-.008l.02-.011c.001-.002.003 0 .005-.001l.003-.004 14.083-8.128-.02-.054-.001-.005v-.005c-.002-.003-.005-.004-.005-.006l-.001-.003-.002-.003-.001-.004c-.002-.002-.004-.003-.005-.006l-.002-.005-.004-.007-.004-.005-.006-.009c-.006-.003-.009-.01-.014-.015-.005-.003-.01-.008-.014-.014l-.009-.003c-.005-.001-.006-.005-.01-.008h-.002l-.003-.003h-.018l-.098.06h-.001l-.001.001L6.076 19.16l.002.002ZM14.561 25.166l-.071.035-.063.046-.06.05-.021.023.333-.195-.04.012-.078.029Z"/></g><defs><filter id="na" x="-4" y="-5" width="50" height="50" filterUnits="userSpaceOnUse" color-interpolation-filters="sRGB"><feFlood flood-opacity="0" result="BackgroundImageFix"/><feColorMatrix in="SourceAlpha" values="0 0 0 0 0 0 0 0 0 0 0 0 0 0 0 0 0 0 127 0" result="hardAlpha"/><feOffset dx="2" dy="2"/><feGaussianBlur stdDeviation="3.5"/><feComposite in2="hardAlpha" operator="out"/><feColorMatrix values="0 0 0 0 0.555 0 0 0 0 0.555 0 0 0 0 0.555 0 0 0 0.18 0"/><feBlend in2="BackgroundImageFix" result="effect1_dropShadow_876_8929"/><feBlend in="SourceGraphic" in2="effect1_dropShadow_876_8929" result="shape"/></filter></defs></symbol><symbol fill="none" viewBox="0 0 39 36" id="iconbox" xmlns="http://www.w3.org/2000/svg"><g filter="url(#oa)" fill="#1C62AE"><path d="m16.015 18.747-6.32-1.5v5.629l8.721 2.068v-8.467l-2.222 2.219a.192.192 0 0 1-.18.05Z"/><path d="m18.228 16.122-8.666-2.056-2.23 2.228 8.666 2.055 2.23-2.227ZM21.02 17.884l8.648-2.052-2.009-1.768-8.647 2.052 2.008 1.768Z"/><path d="M20.968 18.284a.19.19 0 0 1-.126-.048l-2.043-1.797v8.505l8.72-2.068v-6.14l-6.507 1.543a.18.18 0 0 1-.044.005ZM16.964 12.055l-6.679 1.79 8.322 1.973 8.177-1.94-9.82-1.823Z"/></g><defs><filter id="oa" x="-5" y="-5" width="50" height="50" filterUnits="userSpaceOnUse" color-interpolation-filters="sRGB"><feFlood flood-opacity="0" result="BackgroundImageFix"/><feColorMatrix in="SourceAlpha" values="0 0 0 0 0 0 0 0 0 0 0 0 0 0 0 0 0 0 127 0" result="hardAlpha"/><feOffset dx="2" dy="2"/><feGaussianBlur stdDeviation="3.5"/><feComposite in2="hardAlpha" operator="out"/><feColorMatrix values="0 0 0 0 0.555 0 0 0 0 0.555 0 0 0 0 0.555 0 0 0 0.18 0"/><feBlend in2="BackgroundImageFix" result="effect1_dropShadow_876_8842"/><feBlend in="SourceGraphic" in2="effect1_dropShadow_876_8842" result="shape"/></filter></defs></symbol><symbol fill="none" viewBox="0 0 50 45" id="iconcheck" xmlns="http://www.w3.org/2000/svg"><g filter="url(#pa)"><g clip-path="url(#pb)" fill-rule="evenodd" clip-rule="evenodd" fill="#1C62AE"><path d="M26.47 9.624v1.582a1.322 1.322 0 0 0 1.324 1.324h1.582l-2.905-2.906Z"/><path d="M27.794 13.412h1.765a.44.44 0 0 1 .441.44v12.354a1.322 1.322 0 0 1-1.323 1.323H16.323A1.323 1.323 0 0 1 15 26.206V10.323A1.322 1.322 0 0 1 16.323 9h8.824c.244 0 .441.198.441.441v1.765a2.208 2.208 0 0 0 2.206 2.206Zm-10.9 10.459.882.882a.44.44 0 0 0 .624 0l1.765-1.765a.442.442 0 0 0-.624-.623l-1.453 1.452-.57-.57a.442.442 0 0 0-.624.624Zm4.724.129h6.176a.441.441 0 0 0 0-.882h-6.176a.441.441 0 0 0 0 .882Zm-4.724-3.659.882.883a.44.44 0 0 0 .624 0l1.765-1.765a.442.442 0 0 0-.624-.624l-1.453 1.453-.57-.57a.441.441 0 0 0-.624.623Zm4.724.13h6.176a.441.441 0 0 0 0-.883h-6.176a.441.441 0 0 0 0 .883Zm-4.724-3.66.882.883a.44.44 0 0 0 .624 0l1.765-1.764a.442.442 0 0 0-.624-.624l-1.453 1.453-.57-.57a.441.441 0 0 0-.624.623Zm4.724.13h6.176a.441.441 0 0 0 0-.882h-6.176a.441.441 0 0 0 0 .882Z"/></g></g><defs><clipPath id="pb"><rect x="5" width="36" height="36" rx="5" fill="#fff"/></clipPath><filter id="pa" x="0" y="-5" width="50" height="50" filterUnits="userSpaceOnUse" color-interpolation-filters="sRGB"><feFlood flood-opacity="0" result="BackgroundImageFix"/><feColorMatrix in="SourceAlpha" values="0 0 0 0 0 0 0 0 0 0 0 0 0 0 0 0 0 0 127 0" result="hardAlpha"/><feOffset dx="2" dy="2"/><feGaussianBlur stdDeviation="3.5"/><feComposite in2="hardAlpha" operator="out"/><feColorMatrix values="0 0 0 0 0.555 0 0 0 0 0.555 0 0 0 0 0.555 0 0 0 0.18 0"/><feBlend in2="BackgroundImageFix" result="effect1_dropShadow_876_9070"/><feBlend in="SourceGraphic" in2="effect1_dropShadow_876_9070" result="shape"/></filter></defs></symbol><symbol fill="none" viewBox="0 0 36 36" id="iconsafety" xmlns="http://www.w3.org/2000/svg"><g filter="url(#qa)"><path d="m25.361 11.579-2.274-2.577S20.459 11.343 17.68 9c-2.779 2.343-5.406.002-5.406.002L10 11.578s1.81 1.214.76 4.082C9.57 18.906 9.24 23.6 17.68 27c8.44-3.4 8.11-8.094 6.92-11.34-1.049-2.868.761-4.082.761-4.082Zm-8.285 9.606a.997.997 0 0 1-1.415 0l-2.623-2.624 1.413-1.415 1.917 1.917 4.541-4.54 1.414 1.413-5.247 5.249Z" fill="#1C62AE"/></g><defs><filter id="qa" x="-5" y="-5" width="50" height="50" filterUnits="userSpaceOnUse" color-interpolation-filters="sRGB"><feFlood flood-opacity="0" result="BackgroundImageFix"/><feColorMatrix in="SourceAlpha" values="0 0 0 0 0 0 0 0 0 0 0 0 0 0 0 0 0 0 127 0" result="hardAlpha"/><feOffset dx="2" dy="2"/><feGaussianBlur stdDeviation="3.5"/><feComposite in2="hardAlpha" operator="out"/><feColorMatrix values="0 0 0 0 0.555 0 0 0 0 0.555 0 0 0 0 0.555 0 0 0 0.18 0"/><feBlend in2="BackgroundImageFix" result="effect1_dropShadow_876_9007"/><feBlend in="SourceGraphic" in2="effect1_dropShadow_876_9007" result="shape"/></filter></defs></symbol><symbol fill="none" viewBox="0 0 38 50" id="instruction" xmlns="http://www.w3.org/2000/svg"><path d="M4.796.365C2.703.365 1 2.05 1 4.121v41.357c0 2.072 1.703 3.756 3.796 3.756h28.407c2.094 0 3.797-1.684 3.797-3.756V14.242a.935.935 0 0 0-.265-.652L24.185.653a.951.951 0 0 0-.683-.288H4.796Zm0 1.88h17.046v12.217c0 .52.424.94.948.94h12.315v30.076c0 1.035-.853 1.877-1.901 1.877H4.796c-1.048 0-1.901-.842-1.901-1.877V4.121c0-1.034.853-1.876 1.901-1.876Zm18.94.658 10.304 10.62H23.737V2.902ZM18.616 14.39a3.125 3.125 0 0 0-.792.1c-.742.184-1.937.903-1.596 3.651.151 1.214.6 2.76 1.263 4.426a193.31 193.31 0 0 1-1.145 3.41c-.369 1.076-.75 2.187-1.089 3.234-.272.84-.521 1.635-.757 2.386-.33 1.053-.63 2.006-.923 2.87-5.065 2.853-7.088 5.324-7.212 6.844-.05.618.193 1.154.667 1.472.238.16.58.295 1.055.295.477 0 1.088-.137 1.864-.521 2.734-1.356 4.025-3.599 5.176-6.794a54.863 54.863 0 0 1 3.324-1.652c1.969-.901 3.646-1.458 5.054-1.785 1.63 1.697 3.353 2.812 4.97 2.812 1.759 0 3-.577 3.403-1.582.298-.741.07-1.565-.608-2.204-.965-.908-2.681-1.373-4.83-1.312-.713.02-1.467.1-2.255.238-1.785-2.126-3.519-5.078-4.683-7.795 1.193-3.821 1.63-6.318.541-7.49-.272-.293-.722-.594-1.427-.603Zm-.014 1.878c.032 0 .048.002.05 0 .033.041.379.543-.243 3.129a11.283 11.283 0 0 1-.3-1.486c-.14-1.128.061-1.57.174-1.597.161-.04.264-.046.319-.046Zm.036 8.852c.98 1.969 2.186 3.948 3.5 5.623a30.231 30.231 0 0 0-4.481 1.662 62.27 62.27 0 0 0-1.677.797l.33-1.047c.233-.745.48-1.534.751-2.369.335-1.032.713-2.136 1.079-3.203l.498-1.462Zm7.95 6.797c1.7-.027 2.628.35 2.914.491.403.2.558.394.599.473-.102.11-.542.377-1.626.377-.806 0-1.72-.488-2.664-1.303.275-.022.534-.034.777-.038Zm-14.172 5.46c-.803 1.615-1.775 2.736-3.312 3.498a3.434 3.434 0 0 1-.762.288c.29-.632 1.353-1.99 4.074-3.785Z" fill="#2D2D2D"/></symbol><symbol fill="none" viewBox="0 0 29 37" id="location-sharp" xmlns="http://www.w3.org/2000/svg"><path d="M14.5 2.313c-6.383 0-11.563 4.661-11.563 10.406 0 9.25 11.563 21.968 11.563 21.968S26.063 21.97 26.063 12.72c0-5.745-5.18-10.406-11.563-10.406Zm0 16.187a4.625 4.625 0 1 1 0-9.25 4.625 4.625 0 0 1 0 9.25Z" fill="#1C62AE"/></symbol><symbol fill="none" viewBox="0 0 260 37" id="logo" xmlns="http://www.w3.org/2000/svg"><g clip-path="url(#ta)"><path d="M32.463 25.852c-2.759-.011-5.148-1.606-6.352-3.94-.012-.022-.028-.043-.04-.066h-.007L14.083.422 1 .372l18.607 33.266c2.498 4.463 8.78 4.488 11.31.043l4.943-8.686a7.048 7.048 0 0 1-3.397.857zM38.446.506 27.151.472l5.44 9.732.004-.007c1.072 2.171 3.263 3.666 5.803 3.676 3.607.013 6.541-2.968 6.555-6.659.014-3.69-2.9-6.694-6.507-6.708z" fill="#1C62AE"/><path d="M90.994 14.931h11.292v-4.479H90.994V5.048h12.785V.427H85.401v24.885h18.83v-4.62H90.994v-5.76zm92.958-9.811h7.782v20.193h5.629V5.119h7.781V.427h-21.192v4.692zM69.178 18.203 61.778.427h-6.08l10.491 24.887h5.56L82.276.427h-5.594l-7.504 17.776zm47.2-12.301c1.203-.663 2.583-.995 4.135-.995 2.454 0 4.551.936 6.287 2.808l3.615-3.413c-1.182-1.398-2.641-2.464-4.378-3.2C124.3.368 122.364.001 120.234.001c-2.548 0-4.841.55-6.878 1.653-2.039 1.101-3.631 2.63-4.778 4.585-1.147 1.956-1.72 4.166-1.72 6.631s.573 4.675 1.72 6.63c1.147 1.956 2.727 3.485 4.743 4.587 2.015 1.102 4.284 1.652 6.809 1.652 1.76 0 3.509-.272 5.246-.817 1.738-.545 3.266-1.327 4.587-2.347V12.479h-5.143v7.288c-1.297.711-2.756 1.067-4.377 1.067-1.529 0-2.89-.338-4.082-1.014a7.199 7.199 0 0 1-2.797-2.826c-.673-1.208-1.008-2.583-1.008-4.124 0-1.565.335-2.95 1.008-4.16a7.053 7.053 0 0 1 2.814-2.808zm61.322 6.044c-1.181-.45-2.699-.9-4.552-1.352-1.783-.402-3.109-.811-3.978-1.226-.867-.414-1.302-1.048-1.302-1.902 0-.853.376-1.54 1.129-2.061.752-.522 1.916-.783 3.492-.783 2.245 0 4.493.652 6.74 1.956l1.737-4.373c-1.112-.711-2.41-1.257-3.891-1.636A18.32 18.32 0 0 0 172.523 0c-2.223 0-4.105.345-5.645 1.032-1.54.687-2.693 1.617-3.457 2.79-.765 1.174-1.146 2.484-1.146 3.93 0 1.659.422 2.985 1.268 3.98a7.383 7.383 0 0 0 3.039 2.17c1.181.45 2.698.9 4.551 1.35 1.204.284 2.16.545 2.867.782.707.238 1.286.552 1.737.942.451.392.677.884.677 1.476 0 .806-.381 1.452-1.146 1.938-.765.486-1.945.728-3.544.728a13.67 13.67 0 0 1-4.308-.71c-1.436-.474-2.675-1.103-3.717-1.885l-1.912 4.337c1.09.854 2.531 1.547 4.326 2.08 1.794.534 3.654.8 5.576.8 2.224 0 4.111-.344 5.663-1.031 1.552-.687 2.716-1.617 3.492-2.79a6.9 6.9 0 0 0 1.165-3.893c0-1.66-.423-2.975-1.269-3.947a7.539 7.539 0 0 0-3.04-2.133zm48.051 5.049a7.214 7.214 0 0 1-2.728 2.826c-1.159.676-2.455 1.013-3.891 1.013s-2.733-.337-3.892-1.013a7.182 7.182 0 0 1-2.726-2.826c-.661-1.21-.991-2.584-.991-4.125 0-1.54.33-2.915.991-4.123a7.18 7.18 0 0 1 2.726-2.827c1.159-.675 2.456-1.013 3.892-1.013s2.732.338 3.891 1.013a7.213 7.213 0 0 1 2.728 2.827c.659 1.208.99 2.583.99 4.123 0 1.541-.331 2.915-.99 4.125zm.191-15.324c-2.016-1.113-4.286-1.67-6.81-1.67-2.526 0-4.8.557-6.827 1.67-2.028 1.115-3.613 2.649-4.76 4.605-1.147 1.955-1.72 4.154-1.72 6.595 0 2.44.573 4.639 1.72 6.594 1.147 1.956 2.732 3.49 4.76 4.604 2.027 1.114 4.301 1.671 6.827 1.671 2.524 0 4.794-.557 6.81-1.671 2.014-1.114 3.601-2.648 4.759-4.604 1.158-1.955 1.737-4.154 1.737-6.595 0-2.44-.579-4.64-1.737-6.594-1.158-1.956-2.745-3.49-4.759-4.605zM261 25.313l-9.195-13.35 8.688-11.59h-5.978l-12.744 17V.428h-5.594v24.886h5.577l.028.022 6.691-8.928 6.134 8.906H261zM142.554 14.981l3.603-8.9 2.748 6.79.804 1.957a8.78 8.78 0 0 1-7.155.153zm.858-14.554-10.84 24.887h5.767l2.154-5.333h.042l.183-.448a13.18 13.18 0 0 0 5.271 1.109c1.912 0 3.818-.43 5.588-1.26l2.434 5.931h5.834L148.97.428h-5.558z" fill="#100F0D"/></g><defs><clipPath id="ta"><path fill="#fff" d="M0 0h260v37H0z"/></clipPath></defs></symbol><symbol fill="none" viewBox="0 0 28 28" id="news" xmlns="http://www.w3.org/2000/svg"><path d="M17.153 9.376v13.238a5.837 5.837 0 0 0 2.03 4.413H5.386a4.408 4.408 0 0 1-4.413-4.413V9.376h16.18ZM3.915 18.201H14.21v-1.47H3.915v1.47Zm0-2.941H14.21v-1.471H3.915v1.47Zm14.709 7.354a4.412 4.412 0 1 0 8.825 0V.551H8.328v7.354h10.296v14.71Z" fill="#F1AF27"/></symbol><symbol fill="none" viewBox="0 0 36 36" id="paymentip" xmlns="http://www.w3.org/2000/svg"><g clip-path="url(#va)"><path d="M18.549 8.394c-3.16.034-2.636 1.618-3.191 1.821-1.624.555-1.583 2.9-1.51 2.814.669.04 1.086-.27 1.526-.755.44-.484.858-1.138 1.428-1.681.145-.117.249-.047.377.016 1.165 1.403 3.905 1.966 5.98 1.985-.294-2.143-1.357-4.235-4.61-4.2Zm-1.55 2.764c-.429.456-.801.995-1.231 1.469-.625.42-1.322.926-1.952.927-.377-.008-.566.454-.566.878 0 .525.525 1.28.787 1.28v-.066c.564 2.373 2.192 4.796 4.504 4.823 2.299.027 3.96-2.412 4.52-4.79.276-.145.689-.784.689-1.247 0-.4-.167-.829-.5-.87-.007-.147-.021-.294-.034-.443-2.066-.007-4.768-.475-6.218-1.96Zm-2.043 9.32c-.53.214-1.08.417-1.624.614l1.927 2.888c.135.2.106.494-.065.665l-.714.713 2.198 3.249h.673l-2.395-8.13Zm7.08.016-2.388 8.113h.673l2.198-3.249-.713-.713a.542.542 0 0 1-.066-.665l1.903-2.855a62.548 62.548 0 0 0-1.608-.631Zm-1.223.418c-1.14 1.349-3.325 1.419-4.57.205l2.2 7.49h.114l2.256-7.695Zm-8.49.55c-.867.317-1.603.606-1.96.845-.47.37-.92 1.05-1.182 1.837l-1.05 4.463h7.268l-2.034-2.953a.543.543 0 0 1 .04-.698l.747-.746-1.83-2.748Zm12.304.074-1.78 2.674.747.746c.18.18.199.498.04.698L21.6 28.607h7.268l-1.05-4.463c-.262-.787-.918-1.575-1.443-1.837a42.236 42.236 0 0 0-1.748-.771Z" fill="#1C62AE"/></g><defs><clipPath id="va"><path fill="#fff" transform="translate(8 8)" d="M0 0h21v21H0z"/></clipPath></defs></symbol><symbol fill="none" viewBox="0 0 36 36" id="paymentperson" xmlns="http://www.w3.org/2000/svg"><path d="M21.06 8.375c-1.08.54-4.487.534-4.707.557-3.113-.016-3.89 2.276-3.932 5.375.182-1.5.82-2.82 2.261-3.274a5.783 5.783 0 0 1 1.62-.228c.164.044.32.108.456.152.426.072.826.053 1.24 0 .155-.044.33-.105.464-.152.286 0 .955.023 1.645.228 1.94.692 2.236 2.483 2.253 4.092a.277.277 0 0 1-.27.27.277.277 0 0 1-.27-.27c.007-1.58-.344-3.11-1.864-3.578a5.588 5.588 0 0 0-1.494-.202c-.103.049-.273.107-.371.143-.49.087-.958.06-1.426 0-.14-.024-.248-.088-.363-.143-.254 0-.868.023-1.46.202-1.615.583-1.915 2.307-1.932 3.578a.277.277 0 0 1-.27.27.277.277 0 0 1-.27-.27c0-.141.01-.274.017-.405-.21.068-.287.333-.287.675 0 .464.513 1.213.827 1.418.423 1.303 1.066 2.699 1.84 3.771l-.355 1.249-.397.169.853 2.489 1.46.936c.204-.384.4-.795.615-1.164l-1.519-2.025.195-.675c.557.524 1.155.852 1.763.852.928-.003 1.38-.564 1.94-1.063l.245.869-1.73 2.076c.2.36.38.748.566 1.122l1.662-1.038.827-2.464c-.106-.041-.216-.087-.32-.126l-.389-1.367c.919-1.185 1.51-2.614 1.79-3.552.267 0 .927-.937.927-1.477 0-.455-.099-.788-.506-.683.005-.042.013-.086.017-.127-.032-3.97-.229-5.088-1.35-6.21Zm-5.534 6.21c.435 0 .819.067 1.122.287.245.177.4.451.464.793h.565c.064-.341.22-.616.465-.793.303-.22.695-.287 1.13-.287.825.003 1.28.038 1.595.295.265.323.3.717.295 1.063-.004.52-.372.879-.76 1.072-.388.194-.815.27-1.13.27-.44 0-.838-.067-1.147-.287-.244-.173-.4-.455-.456-.793h-.54c-.057.338-.22.62-.464.793-.31.22-.698.287-1.14.287a2.67 2.67 0 0 1-1.138-.27c-.387-.193-.747-.551-.751-1.072-.014-.196.006-.399.017-.565.03-.18.112-.37.27-.498.315-.257.778-.292 1.603-.295Zm6.362 7.746-2.27 6.294h2.422l.75-5.746c.11.072-.621-.43-.902-.548Zm-8.86.092c-.376.159-.73.306-1.105.465.342 1.767.556 3.857.802 5.737h2.54l-2.237-6.202Zm10.809.768-.709 5.434h4.632l-.54-2.16c0-1.08-.54-1.89-1.08-2.16-.267-.133-1.174-.588-2.303-1.114Zm-12.893.11c-.943.408-1.741.776-2.084 1.004-.477.325-1.08 1.08-1.08 2.16l-.54 2.16h4.396l-.692-5.324Zm6.43 2.455-.355.684a.563.563 0 0 1-.767.21l-.642-.413.81 2.388h2.042l.87-2.506-.853.532a.563.563 0 0 1-.768-.22l-.337-.675Z" fill="#1C62AE"/></symbol><symbol fill="none" viewBox="0 0 56 56" id="play" xmlns="http://www.w3.org/2000/svg"><path d="m13.875 45.444-.01-.005c-.488-.276-.86-.864-.86-1.58V12.142c0-.718.371-1.303.86-1.58l.008-.004.006-.004a1.343 1.343 0 0 1 1.367.018l.008.005.008.004 27.08 16.21a1.437 1.437 0 0 1 0 2.416L15.258 45.42l-.01.006a1.383 1.383 0 0 1-.702.2 1.37 1.37 0 0 1-.67-.181Z" fill="#1C62AE" stroke="#F4F4F4" stroke-width="5"/></symbol><symbol fill="none" viewBox="0 0 33 33" id="sales" xmlns="http://www.w3.org/2000/svg"><g clip-path="url(#ya)" fill="#F1AF27"><path d="m32.19 16.5-3.372-3.3 1.274-4.548-4.579-1.165-1.165-4.579L19.8 4.182 16.5.81l-3.3 3.372-4.548-1.274-1.165 4.579-4.579 1.165L4.182 13.2.81 16.5l3.372 3.3-1.274 4.548 4.579 1.165 1.165 4.579 4.548-1.274 3.3 3.373 3.3-3.373 4.548 1.274 1.165-4.579 4.579-1.165-1.274-4.548 3.372-3.3zm-11.565 5.156a2.063 2.063 0 1 1 0-4.126 2.063 2.063 0 0 1 0 4.126zm-8.25-10.312a2.062 2.062 0 1 1 0 4.125 2.062 2.062 0 0 1 0-4.125zm.082 10.55 7.22-11.344.866.557-7.22 11.344-.866-.557z"/><path d="M12.375 14.438a1.031 1.031 0 1 0 0-2.063 1.031 1.031 0 0 0 0 2.063zm8.25 6.187a1.031 1.031 0 1 0 0-2.062 1.031 1.031 0 0 0 0 2.062z"/></g><defs><clipPath id="ya"><path fill="#fff" d="M0 0h33v33H0z"/></clipPath></defs></symbol><symbol fill="none" viewBox="0 0 28 28" id="search" xmlns="http://www.w3.org/2000/svg"><path d="m24.975 23.045-5.145-5.146a9.505 9.505 0 0 0 1.905-5.719c0-5.269-4.286-9.555-9.555-9.555S2.625 6.911 2.625 12.18s4.286 9.555 9.555 9.555a9.505 9.505 0 0 0 5.72-1.905l5.145 5.145a1.367 1.367 0 0 0 1.93-1.93zM5.355 12.18a6.825 6.825 0 1 1 6.825 6.825 6.833 6.833 0 0 1-6.825-6.825z" fill="#666"/></symbol></svg>