<svg width="123" height="24" fill="none" xmlns="http://www.w3.org/2000/svg"><path d="M121.157 1.984H90.955v18.914h30.202V1.984z" fill="#38AF3A"/><path d="M100.193 4.961l-2.09 8.854c-.075.328-.113.545-.113.65 0 .148.036.26.107.34.07.08.165.12.282.12.15 0 .286-.045.408-.136.192-.144.432-.405.72-.784l.468.396c-.634.82-1.284 1.229-1.949 1.229-.357 0-.642-.107-.857-.323a1.105 1.105 0 01-.321-.812c0-.216.027-.442.083-.677l1.807-7.65h-1.646l.145-.603a11.58 11.58 0 001.317-.244 7.27 7.27 0 001.019-.36h.62zM103.327 4.961a.698.698 0 01.719.74.89.89 0 01-.263.644.822.822 0 01-.607.27.74.74 0 01-.539-.22.714.714 0 01-.223-.528c0-.244.091-.457.273-.636a.88.88 0 01.64-.27zm.135 3.436L102.182 14a1.923 1.923 0 00-.087.487c0 .14.035.251.104.332a.327.327 0 00.259.122.528.528 0 00.348-.144c.173-.144.392-.405.657-.784l.461.403c-.256.384-.55.682-.883.895-.333.213-.648.32-.945.32-.322 0-.593-.114-.812-.341a1.114 1.114 0 01-.328-.794c0-.212.041-.478.123-.799l.937-4.126h-1.629l.141-.604a5.91 5.91 0 001.101-.15c.333-.08.739-.22 1.218-.419h.615zM108.055 6.14l-.547 2.43h1.571l-.138.734h-1.599l-.948 4.207c-.085.373-.126.637-.126.79 0 .186.048.333.144.441a.478.478 0 00.372.162.825.825 0 00.332-.072 1.73 1.73 0 00.442-.302c.078-.071.269-.292.572-.661l.482.402c-.425.547-.8.918-1.127 1.114a1.92 1.92 0 01-1.007.295c-.394 0-.719-.128-.975-.384a1.245 1.245 0 01-.384-.91c0-.225.031-.472.094-.74l.984-4.342h-1.654l.146-.554c.482-.11.873-.256 1.173-.439.301-.182.588-.444.861-.787.274-.343.538-.804.792-1.384h.54zM111.271 11.928c1.088-.12 1.877-.238 2.365-.354.787-.187 1.324-.414 1.611-.68.288-.267.432-.56.432-.877a.856.856 0 00-.321-.677c-.213-.182-.516-.274-.909-.274-.412 0-.849.123-1.309.368a3.57 3.57 0 00-1.172 1.002c-.321.423-.553.92-.697 1.492zm4.724 1.682l.402.46c-.604.535-1.232.937-1.883 1.206-.652.27-1.29.404-1.913.404-.838 0-1.514-.257-2.027-.772-.513-.515-.769-1.2-.769-2.053 0-.762.212-1.487.636-2.175.424-.687 1.016-1.24 1.776-1.657a4.986 4.986 0 012.44-.625c.69 0 1.23.158 1.618.475.388.315.582.69.582 1.12 0 .255-.085.522-.255.802-.17.28-.456.54-.859.78-.403.24-.985.439-1.747.597-.762.158-1.699.266-2.811.323a3.638 3.638 0 00-.036.425c0 .379.08.716.241 1.013.16.298.388.534.683.709.295.175.603.262.923.262.408 0 .884-.11 1.428-.33a5.919 5.919 0 001.571-.964z" fill="#fff"/><path d="M49.591 9.703h5.974V7.387h-5.974V4.594h6.764v-2.39h-9.722V15.07h9.961v-2.39h-7.003V9.703zM38.051 11.394l-3.915-9.19H30.92l5.55 12.866h2.941l5.57-12.866h-2.96l-3.97 9.19zM63.02 5.035c.637-.343 1.367-.515 2.188-.515 1.298 0 2.407.485 3.326 1.452l1.912-1.765a6.093 6.093 0 00-2.316-1.654c-.919-.38-1.943-.57-3.07-.57-1.348 0-2.56.285-3.639.856a6.328 6.328 0 00-2.527 2.37c-.606 1.01-.91 2.153-.91 3.428s.303 2.417.91 3.428a6.358 6.358 0 002.509 2.37c1.066.57 2.266.855 3.602.855a9.43 9.43 0 002.776-.422 7.755 7.755 0 002.426-1.214v-5.22h-2.72v3.769c-.687.367-1.459.55-2.316.55-.81 0-1.53-.173-2.16-.523a3.77 3.77 0 01-1.48-1.46C61.177 10.144 61 9.433 61 8.636c0-.809.177-1.526.532-2.15a3.693 3.693 0 011.49-1.452zM76.868 9.728l1.906-4.601 1.454 3.51.425 1.012a4.741 4.741 0 01-3.785.08zm.454-7.524L71.588 15.07h3.05l1.14-2.757h.022l.097-.232a7.112 7.112 0 002.788.574c1.012 0 2.02-.223 2.957-.651l1.287 3.066h3.087L80.262 2.204h-2.94z" fill="#100F0D"/><path d="M18.628 15.348a3.812 3.812 0 01-3.36-2.036l-.02-.034h-.004L8.905 2.22h-6.92l9.843 17.154c1.321 2.308 4.645 2.32 5.983.022l2.615-4.49a3.794 3.794 0 01-1.798.442zM21.793 2.22h-5.975l2.878 5.039.002-.003a3.453 3.453 0 006.538-1.543c.007-1.908-1.535-3.487-3.443-3.494z" fill="#38AF3A"/></svg>