<svg width="33" height="20" fill="none" xmlns="http://www.w3.org/2000/svg"><path fill-rule="evenodd" clip-rule="evenodd" d="M31.35 1.263c.23-.712 0-1.23-1.019-1.23h-3.387c-.855 0-1.25.453-1.48.938 0 0-1.742 4.142-4.175 6.827-.79.777-1.15 1.036-1.578 1.036-.23 0-.527-.259-.527-.97V1.23c0-.841-.262-1.23-.986-1.23h-5.327c-.526 0-.855.389-.855.777 0 .809 1.217 1.003 1.348 3.268v4.92c0 1.069-.194 1.264-.625 1.264-1.15 0-3.945-4.174-5.622-8.93C6.791.355 6.46 0 5.605 0h-3.42c-.986 0-1.15.453-1.15.938 0 .874 1.15 5.274 5.36 11.098 2.794 3.978 6.772 6.116 10.356 6.116 2.17 0 2.433-.486 2.433-1.294v-3.01c0-.97.198-1.132.888-1.132.493 0 1.381.259 3.387 2.168 2.301 2.265 2.696 3.3 3.978 3.3h3.387c.986 0 1.447-.485 1.183-1.424-.295-.938-1.413-2.297-2.86-3.914-.79-.906-1.973-1.909-2.334-2.394-.493-.648-.362-.906 0-1.489-.034 0 4.11-5.76 4.537-7.703" fill="#fff"/></svg>