<svg width="30" height="21" fill="none" xmlns="http://www.w3.org/2000/svg"><path d="M29.116 4.526c0-2.402-1.733-4.334-3.875-4.334C22.34.053 19.38 0 16.358 0h-.943c-3.016 0-5.98.053-8.881.192-2.137 0-3.87 1.943-3.87 4.346-.13 1.9-.186 3.8-.183 5.7-.005 1.901.054 3.803.178 5.707 0 2.402 1.733 4.351 3.87 4.351 3.047.144 6.174.208 9.352.203 3.184.01 6.301-.057 9.352-.203 2.142 0 3.876-1.948 3.876-4.35a83.17 83.17 0 00.178-5.713c.012-1.9-.045-3.803-.171-5.707zM13.32 15.476V4.986l7.593 5.242-7.593 5.248z" fill="#fff"/></svg>