<svg width="260" height="37" fill="none" xmlns="http://www.w3.org/2000/svg"><g clip-path="url(#clip0_907_8659)" fill="#fff"><path d="M31.463 25.852c-2.759-.011-5.148-1.606-6.352-3.94-.012-.022-.028-.043-.04-.066h-.007L13.083.422 0 .372l18.607 33.266c2.498 4.463 8.78 4.488 11.31.043l4.943-8.686a7.048 7.048 0 01-3.397.857zM37.446.506L26.151.472l5.44 9.732.004-.007c1.072 2.171 3.263 3.666 5.803 3.676 3.607.013 6.541-2.968 6.555-6.659.014-3.69-2.9-6.694-6.507-6.708zM89.994 14.931h11.292v-4.479H89.994V5.048h12.785V.427H84.401v24.885h18.83v-4.62H89.994v-5.76zM182.952 5.12h7.782v20.193h5.629V5.119h7.781V.427h-21.192v4.692zM68.178 18.203L60.778.427h-6.08l10.491 24.887h5.56L81.276.427h-5.594l-7.504 17.776zM115.378 5.902c1.203-.663 2.583-.995 4.135-.995 2.454 0 4.551.936 6.287 2.808l3.615-3.413c-1.182-1.398-2.641-2.464-4.378-3.2C123.3.368 121.364.001 119.234.001c-2.548 0-4.841.55-6.878 1.653-2.039 1.101-3.631 2.63-4.778 4.585-1.147 1.956-1.72 4.166-1.72 6.631s.573 4.675 1.72 6.63c1.147 1.956 2.727 3.485 4.743 4.587 2.015 1.102 4.284 1.652 6.809 1.652 1.76 0 3.509-.272 5.246-.817 1.738-.545 3.266-1.327 4.587-2.347V12.479h-5.143v7.288c-1.297.711-2.756 1.067-4.377 1.067-1.529 0-2.89-.338-4.082-1.014a7.199 7.199 0 01-2.797-2.826c-.673-1.208-1.008-2.583-1.008-4.124 0-1.565.335-2.95 1.008-4.16a7.053 7.053 0 012.814-2.808zM176.7 11.946c-1.181-.45-2.699-.9-4.552-1.352-1.783-.402-3.109-.811-3.978-1.226-.867-.414-1.302-1.048-1.302-1.902 0-.853.376-1.54 1.129-2.061.752-.522 1.916-.783 3.492-.783 2.245 0 4.493.652 6.74 1.956l1.737-4.373c-1.112-.711-2.41-1.257-3.891-1.636A18.32 18.32 0 00171.523 0c-2.223 0-4.105.345-5.645 1.032-1.54.687-2.693 1.617-3.457 2.79-.765 1.174-1.146 2.484-1.146 3.93 0 1.659.422 2.985 1.268 3.98a7.383 7.383 0 003.039 2.17c1.181.45 2.698.9 4.551 1.35 1.204.284 2.16.545 2.867.782.707.238 1.286.552 1.737.942.451.392.677.884.677 1.476 0 .806-.381 1.452-1.146 1.938-.765.486-1.945.728-3.544.728a13.67 13.67 0 01-4.308-.71c-1.436-.474-2.675-1.103-3.717-1.885l-1.912 4.337c1.09.854 2.531 1.547 4.326 2.08 1.794.534 3.654.8 5.576.8 2.224 0 4.111-.344 5.663-1.031 1.552-.687 2.716-1.617 3.492-2.79a6.9 6.9 0 001.165-3.893c0-1.66-.423-2.975-1.269-3.947a7.539 7.539 0 00-3.04-2.133zM224.751 16.995a7.214 7.214 0 01-2.728 2.826c-1.159.676-2.455 1.013-3.891 1.013s-2.733-.337-3.892-1.013a7.182 7.182 0 01-2.726-2.826c-.661-1.21-.991-2.584-.991-4.125 0-1.54.33-2.915.991-4.123a7.18 7.18 0 012.726-2.827c1.159-.675 2.456-1.013 3.892-1.013s2.732.338 3.891 1.013a7.213 7.213 0 012.728 2.827c.659 1.208.99 2.583.99 4.123 0 1.541-.331 2.915-.99 4.125zm.191-15.324c-2.016-1.113-4.286-1.67-6.81-1.67-2.526 0-4.8.557-6.827 1.67-2.028 1.115-3.613 2.649-4.76 4.605-1.147 1.955-1.72 4.154-1.72 6.595 0 2.44.573 4.639 1.72 6.594 1.147 1.956 2.732 3.49 4.76 4.604 2.027 1.114 4.301 1.671 6.827 1.671 2.524 0 4.794-.557 6.81-1.671 2.014-1.114 3.601-2.648 4.759-4.604 1.158-1.955 1.737-4.154 1.737-6.595 0-2.44-.579-4.64-1.737-6.594-1.158-1.956-2.745-3.49-4.759-4.605zM260 25.313l-9.195-13.35 8.688-11.59h-5.978l-12.744 17V.428h-5.594v24.886h5.577l.028.022 6.691-8.928 6.134 8.906H260zM141.554 14.981l3.603-8.9 2.748 6.79.804 1.957a8.78 8.78 0 01-7.155.153zm.858-14.554l-10.84 24.887h5.767l2.154-5.333h.042l.183-.448a13.18 13.18 0 005.271 1.109c1.912 0 3.818-.43 5.588-1.26l2.434 5.931h5.834L147.97.428h-5.558z"/></g><defs><clipPath id="clip0_907_8659"><path fill="#fff" d="M0 0h260v37H0z"/></clipPath></defs></svg>